<ttFont>
    <TTGlyph name=".notdef" xMin="70" yMin="0" xMax="632" yMax="1410">
      <contour>
        <pt x="562" y="70" on="1"/>
        <pt x="562" y="1340" on="1"/>
        <pt x="140" y="1340" on="1"/>
        <pt x="140" y="70" on="1"/>
      </contour>
      <contour>
        <pt x="70" y="1410" on="1"/>
        <pt x="632" y="1410" on="1"/>
        <pt x="632" y="0" on="1"/>
        <pt x="70" y="0" on="1"/>
      </contour>
    </TTGlyph>
    <TTGlyph name="A" xMin="27" yMin="0" xMax="1531" yMax="1630">
      <contour>
        <pt x="986" y="1630" on="1"/>
        <pt x="1531" y="0" on="1"/>
        <pt x="1133" y="0" on="1"/>
        <pt x="1020" y="358" on="1"/>
        <pt x="538" y="358" on="1"/>
        <pt x="425" y="0" on="1"/>
        <pt x="27" y="0" on="1"/>
        <pt x="564" y="1630" on="1"/>
      </contour>
      <contour>
        <pt x="589" y="541" on="1"/>
        <pt x="986" y="541" on="1"/>
        <pt x="786" y="1142" on="1"/>
      </contour>
    </TTGlyph>
    <TTGlyph name="AE" xMin="27" yMin="0" xMax="1957" yMax="1630">
      <contour>
        <pt x="863" y="1375" on="1"/>
        <pt x="579" y="540" on="1"/>
        <pt x="863" y="540" on="1"/>
      </contour>
      <contour>
        <pt x="1948" y="1384" on="1"/>
        <pt x="1255" y="1384" on="1"/>
        <pt x="1255" y="975" on="1"/>
        <pt x="1851" y="975" on="1"/>
        <pt x="1851" y="764" on="1"/>
        <pt x="1255" y="764" on="1"/>
        <pt x="1255" y="245" on="1"/>
        <pt x="1957" y="245" on="1"/>
        <pt x="1957" y="0" on="1"/>
        <pt x="863" y="0" on="1"/>
        <pt x="863" y="359" on="1"/>
        <pt x="531" y="359" on="1"/>
        <pt x="413" y="0" on="1"/>
        <pt x="27" y="0" on="1"/>
        <pt x="646" y="1630" on="1"/>
        <pt x="1948" y="1630" on="1"/>
      </contour>
    </TTGlyph>
    <TTGlyph name="Aacute" xMin="27" yMin="0" xMax="1531" yMax="2556">
      <component glyphName="A" x="0" y="0" flags="0x1204"/>
      <component glyphName="acute" x="222" y="1627" flags="0x1004"/>
    </TTGlyph>
    <TTGlyph name="Acircumflex" xMin="27" yMin="0" xMax="1531" yMax="2484">
      <component glyphName="A" x="0" y="0" flags="0x1204"/>
      <component glyphName="circumflex" x="115" y="1627" flags="0x1004"/>
    </TTGlyph>
    <TTGlyph name="Adieresis" xMin="27" yMin="0" xMax="1531" yMax="2258">
      <component glyphName="A" x="0" y="0" flags="0x1204"/>
      <component glyphName="dieresis" x="119" y="1636" flags="0x1004"/>
    </TTGlyph>
    <TTGlyph name="Agrave" xMin="27" yMin="0" xMax="1531" yMax="2558">
      <component glyphName="A" x="0" y="0" flags="0x1204"/>
      <component glyphName="grave" x="350" y="1627" flags="0x1004"/>
    </TTGlyph>
    <TTGlyph name="Aring" xMin="27" yMin="0" xMax="1531" yMax="2564">
      <component glyphName="A" x="0" y="0" flags="0x1204"/>
      <component glyphName="ring" x="347" y="1627" flags="0x1004"/>
    </TTGlyph>
    <TTGlyph name="Atilde" xMin="27" yMin="0" xMax="1531" yMax="2226">
      <component glyphName="A" x="0" y="0" flags="0x1204"/>
      <component glyphName="tilde" x="146" y="1627" flags="0x1004"/>
    </TTGlyph>
    <TTGlyph name="B" xMin="158" yMin="0" xMax="1429" yMax="1630">
      <contour>
        <pt x="595" y="1630" on="1"/>
        <pt x="746" y="1630" on="0"/>
        <pt x="959" y="1608" on="0"/>
        <pt x="1107" y="1572" on="0"/>
        <pt x="1201" y="1525" on="0"/>
        <pt x="1234" y="1501" on="1"/>
        <pt x="1306" y="1447" on="0"/>
        <pt x="1374" y="1293" on="0"/>
        <pt x="1374" y="1192" on="1"/>
        <pt x="1374" y="1128" on="0"/>
        <pt x="1320" y="1013" on="0"/>
        <pt x="1224" y="923" on="0"/>
        <pt x="1094" y="864" on="0"/>
        <pt x="1018" y="856" on="1"/>
        <pt x="1130" y="839" on="0"/>
        <pt x="1287" y="776" on="0"/>
        <pt x="1385" y="682" on="0"/>
        <pt x="1429" y="558" on="0"/>
        <pt x="1429" y="480" on="1"/>
        <pt x="1429" y="352" on="0"/>
        <pt x="1335" y="170" on="0"/>
        <pt x="1155" y="54" on="0"/>
        <pt x="894" y="0" on="0"/>
        <pt x="726" y="0" on="1"/>
        <pt x="522" y="0" on="1"/>
        <pt x="158" y="0" on="1"/>
        <pt x="158" y="1630" on="1"/>
      </contour>
      <contour>
        <pt x="669" y="251" on="1"/>
        <pt x="760" y="251" on="0"/>
        <pt x="897" y="259" on="0"/>
        <pt x="989" y="303" on="0"/>
        <pt x="1035" y="396" on="0"/>
        <pt x="1035" y="481" on="1"/>
        <pt x="1035" y="552" on="0"/>
        <pt x="995" y="644" on="0"/>
        <pt x="911" y="697" on="0"/>
        <pt x="779" y="718" on="0"/>
        <pt x="686" y="718" on="1"/>
        <pt x="557" y="718" on="1"/>
        <pt x="557" y="251" on="1"/>
      </contour>
      <contour>
        <pt x="557" y="960" on="1"/>
        <pt x="688" y="960" on="1"/>
        <pt x="851" y="960" on="0"/>
        <pt x="1020" y="1063" on="0"/>
        <pt x="1020" y="1165" on="1"/>
        <pt x="1020" y="1220" on="0"/>
        <pt x="989" y="1302" on="0"/>
        <pt x="914" y="1354" on="0"/>
        <pt x="791" y="1380" on="0"/>
        <pt x="699" y="1380" on="1"/>
        <pt x="557" y="1380" on="1"/>
      </contour>
    </TTGlyph>
    <TTGlyph name="C" xMin="106" yMin="-28" xMax="1320" yMax="1657">
      <contour>
        <pt x="502" y="809" on="1"/>
        <pt x="502" y="531" on="0"/>
        <pt x="683" y="259" on="0"/>
        <pt x="863" y="259" on="1"/>
        <pt x="951" y="259" on="0"/>
        <pt x="1121" y="310" on="0"/>
        <pt x="1210" y="372" on="1"/>
        <pt x="1317" y="92" on="1"/>
        <pt x="1287" y="66" on="0"/>
        <pt x="1188" y="22" on="0"/>
        <pt x="1061" y="-10" on="0"/>
        <pt x="909" y="-28" on="0"/>
        <pt x="825" y="-28" on="1"/>
        <pt x="658" y="-28" on="0"/>
        <pt x="392" y="84" on="0"/>
        <pt x="206" y="300" on="0"/>
        <pt x="106" y="616" on="0"/>
        <pt x="106" y="820" on="1"/>
        <pt x="106" y="1028" on="0"/>
        <pt x="205" y="1342" on="0"/>
        <pt x="391" y="1552" on="0"/>
        <pt x="657" y="1657" on="0"/>
        <pt x="824" y="1657" on="1"/>
        <pt x="882" y="1657" on="0"/>
        <pt x="1012" y="1646" on="0"/>
        <pt x="1142" y="1617" on="0"/>
        <pt x="1267" y="1569" on="0"/>
        <pt x="1320" y="1532" on="1"/>
        <pt x="1211" y="1252" on="1"/>
        <pt x="1158" y="1286" on="0"/>
        <pt x="1066" y="1332" on="0"/>
        <pt x="979" y="1359" on="0"/>
        <pt x="896" y="1371" on="0"/>
        <pt x="853" y="1371" on="1"/>
        <pt x="763" y="1371" on="0"/>
        <pt x="631" y="1308" on="0"/>
        <pt x="544" y="1172" on="0"/>
        <pt x="502" y="959" on="0"/>
      </contour>
    </TTGlyph>
    <TTGlyph name="Ccedilla" xMin="106" yMin="-692" xMax="1320" yMax="1657">
      <component glyphName="C" x="0" y="0" flags="0x1204"/>
      <component glyphName="cedilla" x="637" y="4" flags="0x1004"/>
    </TTGlyph>
    <TTGlyph name="D" xMin="158" yMin="0" xMax="1507" yMax="1630">
      <contour>
        <pt x="1107" y="811" on="1"/>
        <pt x="1107" y="897" on="0"/>
        <pt x="1093" y="1048" on="0"/>
        <pt x="1055" y="1174" on="0"/>
        <pt x="986" y="1273" on="0"/>
        <pt x="876" y="1342" on="0"/>
        <pt x="719" y="1379" on="0"/>
        <pt x="611" y="1379" on="1"/>
        <pt x="557" y="1379" on="1"/>
        <pt x="557" y="251" on="1"/>
        <pt x="613" y="251" on="1"/>
        <pt x="760" y="251" on="0"/>
        <pt x="951" y="333" on="0"/>
        <pt x="1063" y="480" on="0"/>
        <pt x="1107" y="686" on="0"/>
      </contour>
      <contour>
        <pt x="1507" y="806" on="1"/>
        <pt x="1507" y="609" on="0"/>
        <pt x="1404" y="308" on="0"/>
        <pt x="1194" y="104" on="0"/>
        <pt x="874" y="0" on="0"/>
        <pt x="658" y="0" on="1"/>
        <pt x="158" y="0" on="1"/>
        <pt x="158" y="1630" on="1"/>
        <pt x="660" y="1630" on="1"/>
        <pt x="1083" y="1630" on="0"/>
        <pt x="1507" y="1216" on="0"/>
      </contour>
    </TTGlyph>
    <TTGlyph name="E" xMin="158" yMin="0" xMax="1283" yMax="1630">
      <contour>
        <pt x="158" y="0" on="1"/>
        <pt x="158" y="1630" on="1"/>
        <pt x="1274" y="1630" on="1"/>
        <pt x="1274" y="1379" on="1"/>
        <pt x="556" y="1379" on="1"/>
        <pt x="556" y="964" on="1"/>
        <pt x="1181" y="964" on="1"/>
        <pt x="1181" y="719" on="1"/>
        <pt x="556" y="719" on="1"/>
        <pt x="556" y="245" on="1"/>
        <pt x="1283" y="245" on="1"/>
        <pt x="1283" y="0" on="1"/>
      </contour>
    </TTGlyph>
    <TTGlyph name="Eacute" xMin="158" yMin="0" xMax="1283" yMax="2561">
      <component glyphName="E" x="0" y="0" flags="0x1204"/>
      <component glyphName="acute" x="159" y="1632" flags="0x1004"/>
    </TTGlyph>
    <TTGlyph name="Ecircumflex" xMin="158" yMin="0" xMax="1283" yMax="2489">
      <component glyphName="E" x="0" y="0" flags="0x1204"/>
      <component glyphName="circumflex" x="52" y="1632" flags="0x1004"/>
    </TTGlyph>
    <TTGlyph name="Edieresis" xMin="155" yMin="0" xMax="1284" yMax="2262">
      <component glyphName="E" x="0" y="0" flags="0x1204"/>
      <component glyphName="dieresis" x="56" y="1640" flags="0x1004"/>
    </TTGlyph>
    <TTGlyph name="Egrave" xMin="158" yMin="0" xMax="1283" yMax="2563">
      <component glyphName="E" x="0" y="0" flags="0x1204"/>
      <component glyphName="grave" x="287" y="1632" flags="0x1004"/>
    </TTGlyph>
    <TTGlyph name="Eth" xMin="1" yMin="0" xMax="1525" yMax="1630">
      <contour>
        <pt x="1126" y="810" on="1"/>
        <pt x="1126" y="891" on="0"/>
        <pt x="1116" y="1041" on="0"/>
        <pt x="1082" y="1171" on="0"/>
        <pt x="1018" y="1277" on="0"/>
        <pt x="911" y="1353" on="0"/>
        <pt x="754" y="1395" on="0"/>
        <pt x="644" y="1395" on="1"/>
        <pt x="563" y="1395" on="1"/>
        <pt x="563" y="948" on="1"/>
        <pt x="838" y="948" on="1"/>
        <pt x="838" y="699" on="1"/>
        <pt x="563" y="699" on="1"/>
        <pt x="563" y="245" on="1"/>
        <pt x="644" y="245" on="1"/>
        <pt x="751" y="245" on="0"/>
        <pt x="906" y="284" on="0"/>
        <pt x="1013" y="355" on="0"/>
        <pt x="1079" y="457" on="0"/>
        <pt x="1114" y="582" on="0"/>
        <pt x="1126" y="729" on="0"/>
      </contour>
      <contour>
        <pt x="1525" y="807" on="1"/>
        <pt x="1525" y="610" on="0"/>
        <pt x="1423" y="309" on="0"/>
        <pt x="1214" y="105" on="0"/>
        <pt x="894" y="0" on="0"/>
        <pt x="676" y="0" on="1"/>
        <pt x="165" y="0" on="1"/>
        <pt x="165" y="699" on="1"/>
        <pt x="1" y="699" on="1"/>
        <pt x="1" y="948" on="1"/>
        <pt x="165" y="948" on="1"/>
        <pt x="165" y="1630" on="1"/>
        <pt x="676" y="1630" on="1"/>
        <pt x="1098" y="1630" on="0"/>
        <pt x="1525" y="1222" on="0"/>
      </contour>
    </TTGlyph>
    <TTGlyph name="Euro" xMin="50" yMin="-39" xMax="1298" yMax="1674">
      <contour>
        <pt x="885" y="772" on="1"/>
        <pt x="885" y="571" on="1"/>
        <pt x="546" y="571" on="1"/>
        <pt x="579" y="260" on="0"/>
        <pt x="816" y="260" on="1"/>
        <pt x="878" y="260" on="0"/>
        <pt x="1043" y="316" on="0"/>
        <pt x="1128" y="375" on="1"/>
        <pt x="1203" y="103" on="1"/>
        <pt x="1141" y="43" on="0"/>
        <pt x="933" y="-35" on="0"/>
        <pt x="792" y="-39" on="1"/>
        <pt x="678" y="-39" on="0"/>
        <pt x="475" y="25" on="0"/>
        <pt x="319" y="170" on="0"/>
        <pt x="220" y="403" on="0"/>
        <pt x="209" y="571" on="1"/>
        <pt x="71" y="571" on="1"/>
        <pt x="71" y="772" on="1"/>
        <pt x="205" y="772" on="1"/>
        <pt x="206" y="814" on="0"/>
        <pt x="207" y="871" on="0"/>
        <pt x="210" y="890" on="1"/>
        <pt x="50" y="890" on="1"/>
        <pt x="50" y="1091" on="1"/>
        <pt x="239" y="1091" on="1"/>
        <pt x="269" y="1224" on="0"/>
        <pt x="381" y="1440" on="0"/>
        <pt x="548" y="1592" on="0"/>
        <pt x="771" y="1674" on="0"/>
        <pt x="911" y="1674" on="1"/>
        <pt x="980" y="1674" on="0"/>
        <pt x="1099" y="1650" on="0"/>
        <pt x="1197" y="1613" on="0"/>
        <pt x="1272" y="1571" on="0"/>
        <pt x="1298" y="1553" on="1"/>
        <pt x="1209" y="1288" on="1"/>
        <pt x="1178" y="1313" on="0"/>
        <pt x="1095" y="1350" on="0"/>
        <pt x="1008" y="1374" on="0"/>
        <pt x="924" y="1386" on="0"/>
        <pt x="892" y="1386" on="1"/>
        <pt x="839" y="1386" on="0"/>
        <pt x="747" y="1343" on="0"/>
        <pt x="671" y="1266" on="0"/>
        <pt x="610" y="1157" on="0"/>
        <pt x="588" y="1091" on="1"/>
        <pt x="953" y="1091" on="1"/>
        <pt x="953" y="890" on="1"/>
        <pt x="545" y="890" on="1"/>
        <pt x="541" y="853" on="0"/>
        <pt x="539" y="772" on="1"/>
      </contour>
    </TTGlyph>
    <TTGlyph name="F" xMin="158" yMin="0" xMax="1290" yMax="1630">
      <contour>
        <pt x="556" y="0" on="1"/>
        <pt x="158" y="0" on="1"/>
        <pt x="158" y="1630" on="1"/>
        <pt x="1290" y="1630" on="1"/>
        <pt x="1290" y="1379" on="1"/>
        <pt x="556" y="1379" on="1"/>
        <pt x="556" y="964" on="1"/>
        <pt x="1198" y="964" on="1"/>
        <pt x="1198" y="719" on="1"/>
        <pt x="556" y="719" on="1"/>
      </contour>
    </TTGlyph>
    <TTGlyph name="G" xMin="106" yMin="-28" xMax="1485" yMax="1657">
      <contour>
        <pt x="1136" y="674" on="1"/>
        <pt x="771" y="674" on="1"/>
        <pt x="771" y="914" on="1"/>
        <pt x="1485" y="914" on="1"/>
        <pt x="1485" y="0" on="1"/>
        <pt x="1225" y="0" on="1"/>
        <pt x="1176" y="122" on="1"/>
        <pt x="1155" y="83" on="0"/>
        <pt x="1079" y="27" on="0"/>
        <pt x="980" y="-10" on="0"/>
        <pt x="865" y="-28" on="0"/>
        <pt x="804" y="-28" on="1"/>
        <pt x="643" y="-28" on="0"/>
        <pt x="385" y="74" on="0"/>
        <pt x="204" y="279" on="0"/>
        <pt x="106" y="588" on="0"/>
        <pt x="106" y="794" on="1"/>
        <pt x="106" y="992" on="0"/>
        <pt x="212" y="1311" on="0"/>
        <pt x="417" y="1536" on="0"/>
        <pt x="717" y="1657" on="0"/>
        <pt x="911" y="1657" on="1"/>
        <pt x="1017" y="1657" on="0"/>
        <pt x="1180" y="1629" on="0"/>
        <pt x="1300" y="1588" on="0"/>
        <pt x="1379" y="1544" on="0"/>
        <pt x="1402" y="1528" on="1"/>
        <pt x="1288" y="1263" on="1"/>
        <pt x="1243" y="1283" on="0"/>
        <pt x="1150" y="1322" on="0"/>
        <pt x="1057" y="1352" on="0"/>
        <pt x="966" y="1371" on="0"/>
        <pt x="921" y="1371" on="1"/>
        <pt x="822" y="1371" on="0"/>
        <pt x="667" y="1295" on="0"/>
        <pt x="560" y="1148" on="0"/>
        <pt x="504" y="932" on="0"/>
        <pt x="504" y="791" on="1"/>
        <pt x="504" y="682" on="0"/>
        <pt x="543" y="488" on="0"/>
        <pt x="625" y="343" on="0"/>
        <pt x="751" y="258" on="0"/>
        <pt x="837" y="258" on="1"/>
        <pt x="923" y="258" on="0"/>
        <pt x="1068" y="284" on="0"/>
        <pt x="1136" y="304" on="1"/>
      </contour>
    </TTGlyph>
    <TTGlyph name="H" xMin="158" yMin="0" xMax="1504" yMax="1630">
      <contour>
        <pt x="1105" y="721" on="1"/>
        <pt x="557" y="721" on="1"/>
        <pt x="557" y="0" on="1"/>
        <pt x="158" y="0" on="1"/>
        <pt x="158" y="1630" on="1"/>
        <pt x="557" y="1630" on="1"/>
        <pt x="557" y="966" on="1"/>
        <pt x="1105" y="966" on="1"/>
        <pt x="1105" y="1630" on="1"/>
        <pt x="1504" y="1630" on="1"/>
        <pt x="1504" y="0" on="1"/>
        <pt x="1105" y="0" on="1"/>
      </contour>
    </TTGlyph>
    <TTGlyph name="I" xMin="77" yMin="0" xMax="823" yMax="1630">
      <contour>
        <pt x="249" y="181" on="1"/>
        <pt x="249" y="1448" on="1"/>
        <pt x="77" y="1448" on="1"/>
        <pt x="77" y="1630" on="1"/>
        <pt x="823" y="1630" on="1"/>
        <pt x="823" y="1448" on="1"/>
        <pt x="649" y="1448" on="1"/>
        <pt x="649" y="181" on="1"/>
        <pt x="823" y="181" on="1"/>
        <pt x="823" y="0" on="1"/>
        <pt x="77" y="0" on="1"/>
        <pt x="77" y="181" on="1"/>
      </contour>
    </TTGlyph>
    <TTGlyph name="Iacute" xMin="77" yMin="0" xMax="842" yMax="2571">
      <component glyphName="I" x="0" y="0" flags="0x1204"/>
      <component glyphName="acute" x="-119" y="1642" flags="0x1004"/>
    </TTGlyph>
    <TTGlyph name="Icircumflex" xMin="41" yMin="0" xMax="846" yMax="2499">
      <component glyphName="I" x="0" y="0" flags="0x1204"/>
      <component glyphName="circumflex" x="-226" y="1642" flags="0x1004"/>
    </TTGlyph>
    <TTGlyph name="Idieresis" xMin="-123" yMin="0" xMax="1006" yMax="2272">
      <component glyphName="I" x="0" y="0" flags="0x1204"/>
      <component glyphName="dieresis" x="-222" y="1650" flags="0x1004"/>
    </TTGlyph>
    <TTGlyph name="Igrave" xMin="77" yMin="0" xMax="823" yMax="2573">
      <component glyphName="I" x="0" y="0" flags="0x1204"/>
      <component glyphName="grave" x="8" y="1642" flags="0x1004"/>
    </TTGlyph>
    <TTGlyph name="J" xMin="30" yMin="-89" xMax="756" yMax="1630">
      <contour>
        <pt x="30" y="171" on="1"/>
        <pt x="123" y="183" on="0"/>
        <pt x="248" y="222" on="0"/>
        <pt x="324" y="300" on="0"/>
        <pt x="356" y="426" on="0"/>
        <pt x="356" y="525" on="1"/>
        <pt x="356" y="1630" on="1"/>
        <pt x="756" y="1630" on="1"/>
        <pt x="756" y="523" on="1"/>
        <pt x="756" y="361" on="0"/>
        <pt x="681" y="132" on="0"/>
        <pt x="526" y="-15" on="0"/>
        <pt x="291" y="-85" on="0"/>
        <pt x="132" y="-89" on="1"/>
      </contour>
    </TTGlyph>
    <TTGlyph name="K" xMin="158" yMin="0" xMax="1546" yMax="1630">
      <contour>
        <pt x="557" y="0" on="1"/>
        <pt x="158" y="0" on="1"/>
        <pt x="158" y="1630" on="1"/>
        <pt x="557" y="1630" on="1"/>
        <pt x="557" y="930" on="1"/>
        <pt x="627" y="930" on="1"/>
        <pt x="1073" y="1630" on="1"/>
        <pt x="1491" y="1630" on="1"/>
        <pt x="942" y="818" on="1"/>
        <pt x="1546" y="0" on="1"/>
        <pt x="1098" y="0" on="1"/>
        <pt x="619" y="685" on="1"/>
        <pt x="557" y="685" on="1"/>
      </contour>
    </TTGlyph>
    <TTGlyph name="L" xMin="158" yMin="0" xMax="1255" yMax="1630">
      <contour>
        <pt x="158" y="0" on="1"/>
        <pt x="158" y="1630" on="1"/>
        <pt x="556" y="1630" on="1"/>
        <pt x="556" y="251" on="1"/>
        <pt x="1255" y="251" on="1"/>
        <pt x="1255" y="0" on="1"/>
      </contour>
    </TTGlyph>
    <TTGlyph name="M" xMin="158" yMin="0" xMax="1888" yMax="1630">
      <contour>
        <pt x="486" y="1084" on="1"/>
        <pt x="486" y="0" on="1"/>
        <pt x="158" y="0" on="1"/>
        <pt x="158" y="1630" on="1"/>
        <pt x="618" y="1630" on="1"/>
        <pt x="1014" y="441" on="1"/>
        <pt x="1427" y="1630" on="1"/>
        <pt x="1888" y="1630" on="1"/>
        <pt x="1888" y="0" on="1"/>
        <pt x="1560" y="0" on="1"/>
        <pt x="1560" y="1084" on="1"/>
        <pt x="1210" y="0" on="1"/>
        <pt x="840" y="0" on="1"/>
      </contour>
    </TTGlyph>
    <TTGlyph name="N" xMin="158" yMin="0" xMax="1539" yMax="1630">
      <contour>
        <pt x="1131" y="0" on="1"/>
        <pt x="511" y="1076" on="1"/>
        <pt x="511" y="0" on="1"/>
        <pt x="158" y="0" on="1"/>
        <pt x="158" y="1630" on="1"/>
        <pt x="578" y="1630" on="1"/>
        <pt x="1187" y="570" on="1"/>
        <pt x="1187" y="1630" on="1"/>
        <pt x="1539" y="1630" on="1"/>
        <pt x="1539" y="0" on="1"/>
      </contour>
    </TTGlyph>
    <TTGlyph name="Ngrave" xMin="158" yMin="0" xMax="1539" yMax="2510">
      <component glyphName="N" x="0" y="0" flags="0x1004"/>
      <component glyphName="grave" x="224" y="1579" flags="0x1004"/>
    </TTGlyph>
    <TTGlyph name="Ntilde" xMin="158" yMin="0" xMax="1539" yMax="2231">
      <component glyphName="N" x="0" y="0" flags="0x1204"/>
      <component glyphName="tilde" x="192" y="1632" flags="0x1004"/>
    </TTGlyph>
    <TTGlyph name="O" xMin="106" yMin="-28" xMax="1584" yMax="1657">
      <contour>
        <pt x="1584" y="814" on="1"/>
        <pt x="1584" y="617" on="0"/>
        <pt x="1494" y="305" on="0"/>
        <pt x="1311" y="88" on="0"/>
        <pt x="1033" y="-28" on="0"/>
        <pt x="845" y="-28" on="1"/>
        <pt x="657" y="-28" on="0"/>
        <pt x="380" y="87" on="0"/>
        <pt x="196" y="304" on="0"/>
        <pt x="106" y="615" on="0"/>
        <pt x="106" y="811" on="1"/>
        <pt x="106" y="1010" on="0"/>
        <pt x="197" y="1325" on="0"/>
        <pt x="381" y="1542" on="0"/>
        <pt x="659" y="1657" on="0"/>
        <pt x="845" y="1657" on="1"/>
        <pt x="1032" y="1657" on="0"/>
        <pt x="1310" y="1541" on="0"/>
        <pt x="1493" y="1324" on="0"/>
        <pt x="1584" y="1011" on="0"/>
      </contour>
      <contour>
        <pt x="504" y="817" on="1"/>
        <pt x="504" y="704" on="0"/>
        <pt x="532" y="501" on="0"/>
        <pt x="608" y="348" on="0"/>
        <pt x="740" y="258" on="0"/>
        <pt x="845" y="258" on="1"/>
        <pt x="951" y="258" on="0"/>
        <pt x="1085" y="351" on="0"/>
        <pt x="1160" y="506" on="0"/>
        <pt x="1187" y="708" on="0"/>
        <pt x="1187" y="817" on="1"/>
        <pt x="1187" y="929" on="0"/>
        <pt x="1158" y="1130" on="0"/>
        <pt x="1081" y="1282" on="0"/>
        <pt x="948" y="1371" on="0"/>
        <pt x="844" y="1371" on="1"/>
        <pt x="739" y="1371" on="0"/>
        <pt x="607" y="1281" on="0"/>
        <pt x="532" y="1128" on="0"/>
        <pt x="504" y="928" on="0"/>
      </contour>
    </TTGlyph>
    <TTGlyph name="OE" xMin="106" yMin="-28" xMax="2310" yMax="1657">
      <contour>
        <pt x="1185" y="0" on="1"/>
        <pt x="1185" y="1630" on="1"/>
        <pt x="2300" y="1630" on="1"/>
        <pt x="2300" y="1379" on="1"/>
        <pt x="1582" y="1379" on="1"/>
        <pt x="1582" y="964" on="1"/>
        <pt x="2208" y="964" on="1"/>
        <pt x="2208" y="719" on="1"/>
        <pt x="1582" y="719" on="1"/>
        <pt x="1582" y="245" on="1"/>
        <pt x="2310" y="245" on="1"/>
        <pt x="2310" y="0" on="1"/>
      </contour>
      <contour>
        <pt x="1584" y="814" on="1"/>
        <pt x="1584" y="617" on="0"/>
        <pt x="1494" y="305" on="0"/>
        <pt x="1311" y="88" on="0"/>
        <pt x="1033" y="-28" on="0"/>
        <pt x="845" y="-28" on="1"/>
        <pt x="657" y="-28" on="0"/>
        <pt x="380" y="87" on="0"/>
        <pt x="196" y="304" on="0"/>
        <pt x="106" y="615" on="0"/>
        <pt x="106" y="811" on="1"/>
        <pt x="106" y="1010" on="0"/>
        <pt x="197" y="1325" on="0"/>
        <pt x="381" y="1542" on="0"/>
        <pt x="659" y="1657" on="0"/>
        <pt x="845" y="1657" on="1"/>
        <pt x="1032" y="1657" on="0"/>
        <pt x="1310" y="1541" on="0"/>
        <pt x="1493" y="1324" on="0"/>
        <pt x="1584" y="1011" on="0"/>
      </contour>
      <contour>
        <pt x="504" y="817" on="1"/>
        <pt x="504" y="704" on="0"/>
        <pt x="532" y="501" on="0"/>
        <pt x="608" y="348" on="0"/>
        <pt x="740" y="258" on="0"/>
        <pt x="845" y="258" on="1"/>
        <pt x="951" y="258" on="0"/>
        <pt x="1085" y="351" on="0"/>
        <pt x="1160" y="506" on="0"/>
        <pt x="1187" y="708" on="0"/>
        <pt x="1187" y="817" on="1"/>
        <pt x="1187" y="929" on="0"/>
        <pt x="1158" y="1130" on="0"/>
        <pt x="1081" y="1282" on="0"/>
        <pt x="948" y="1371" on="0"/>
        <pt x="844" y="1371" on="1"/>
        <pt x="739" y="1371" on="0"/>
        <pt x="607" y="1281" on="0"/>
        <pt x="532" y="1128" on="0"/>
        <pt x="504" y="928" on="0"/>
      </contour>
    </TTGlyph>
    <TTGlyph name="Oacute" xMin="106" yMin="-28" xMax="1584" yMax="2559">
      <component glyphName="O" x="0" y="0" flags="0x1204"/>
      <component glyphName="acute" x="281" y="1630" flags="0x1004"/>
    </TTGlyph>
    <TTGlyph name="Ocircumflex" xMin="106" yMin="-28" xMax="1584" yMax="2487">
      <component glyphName="O" x="0" y="0" flags="0x1204"/>
      <component glyphName="circumflex" x="174" y="1630" flags="0x1004"/>
    </TTGlyph>
    <TTGlyph name="Odieresis" xMin="106" yMin="-28" xMax="1584" yMax="2260">
      <component glyphName="O" x="0" y="0" flags="0x1204"/>
      <component glyphName="dieresis" x="177" y="1638" flags="0x1004"/>
    </TTGlyph>
    <TTGlyph name="Ograve" xMin="106" yMin="-28" xMax="1584" yMax="2561">
      <component glyphName="O" x="0" y="0" flags="0x1204"/>
      <component glyphName="grave" x="408" y="1630" flags="0x1004"/>
    </TTGlyph>
    <TTGlyph name="Oslash" xMin="106" yMin="-174" xMax="1584" yMax="1799">
      <contour>
        <pt x="493" y="40" on="1"/>
        <pt x="392" y="86" on="0"/>
        <pt x="246" y="235" on="0"/>
        <pt x="151" y="434" on="0"/>
        <pt x="106" y="677" on="0"/>
        <pt x="106" y="816" on="1"/>
        <pt x="106" y="1006" on="0"/>
        <pt x="192" y="1316" on="0"/>
        <pt x="373" y="1537" on="0"/>
        <pt x="653" y="1657" on="0"/>
        <pt x="846" y="1657" on="1"/>
        <pt x="994" y="1657" on="0"/>
        <pt x="1128" y="1618" on="1"/>
        <pt x="1200" y="1799" on="1"/>
        <pt x="1339" y="1753" on="1"/>
        <pt x="1260" y="1557" on="1"/>
        <pt x="1422" y="1457" on="0"/>
        <pt x="1584" y="1081" on="0"/>
        <pt x="1584" y="816" on="1"/>
        <pt x="1584" y="621" on="0"/>
        <pt x="1495" y="308" on="0"/>
        <pt x="1313" y="89" on="0"/>
        <pt x="1035" y="-28" on="0"/>
        <pt x="845" y="-28" on="1"/>
        <pt x="718" y="-28" on="0"/>
        <pt x="636" y="-7" on="1"/>
        <pt x="570" y="-174" on="1"/>
        <pt x="426" y="-128" on="1"/>
      </contour>
      <contour>
        <pt x="748" y="271" on="1"/>
        <pt x="779" y="263" on="0"/>
        <pt x="826" y="258" on="0"/>
        <pt x="845" y="258" on="1"/>
        <pt x="947" y="258" on="0"/>
        <pt x="1079" y="346" on="0"/>
        <pt x="1157" y="498" on="0"/>
        <pt x="1187" y="701" on="0"/>
        <pt x="1187" y="816" on="1"/>
        <pt x="1187" y="931" on="0"/>
        <pt x="1161" y="1121" on="0"/>
        <pt x="1121" y="1206" on="1"/>
      </contour>
      <contour>
        <pt x="622" y="311" on="1"/>
        <pt x="626" y="321" on="0"/>
        <pt x="626" y="333" on="1"/>
        <pt x="626" y="346" on="0"/>
        <pt x="619" y="352" on="1"/>
        <pt x="1010" y="1328" on="1"/>
        <pt x="972" y="1348" on="0"/>
        <pt x="895" y="1371" on="0"/>
        <pt x="844" y="1371" on="1"/>
        <pt x="745" y="1371" on="0"/>
        <pt x="614" y="1287" on="0"/>
        <pt x="536" y="1138" on="0"/>
        <pt x="504" y="935" on="0"/>
        <pt x="504" y="816" on="1"/>
        <pt x="504" y="739" on="0"/>
        <pt x="516" y="594" on="0"/>
        <pt x="543" y="465" on="0"/>
        <pt x="588" y="354" on="0"/>
      </contour>
    </TTGlyph>
    <TTGlyph name="Otilde" xMin="106" yMin="-28" xMax="1584" yMax="2229">
      <component glyphName="O" x="0" y="0" flags="0x1204"/>
      <component glyphName="tilde" x="205" y="1630" flags="0x1004"/>
    </TTGlyph>
    <TTGlyph name="P" xMin="158" yMin="0" xMax="1409" yMax="1630">
      <contour>
        <pt x="1409" y="1081" on="1"/>
        <pt x="1409" y="925" on="0"/>
        <pt x="1293" y="723" on="0"/>
        <pt x="1082" y="607" on="0"/>
        <pt x="788" y="562" on="0"/>
        <pt x="610" y="562" on="1"/>
        <pt x="557" y="562" on="1"/>
        <pt x="557" y="0" on="1"/>
        <pt x="158" y="0" on="1"/>
        <pt x="158" y="1630" on="1"/>
        <pt x="638" y="1630" on="1"/>
        <pt x="818" y="1630" on="0"/>
        <pt x="1102" y="1579" on="0"/>
        <pt x="1299" y="1453" on="0"/>
        <pt x="1406" y="1241" on="0"/>
      </contour>
      <contour>
        <pt x="609" y="796" on="1"/>
        <pt x="692" y="796" on="0"/>
        <pt x="839" y="821" on="0"/>
        <pt x="949" y="885" on="0"/>
        <pt x="1013" y="994" on="0"/>
        <pt x="1013" y="1078" on="1"/>
        <pt x="1013" y="1165" on="0"/>
        <pt x="964" y="1282" on="0"/>
        <pt x="869" y="1351" on="0"/>
        <pt x="730" y="1380" on="0"/>
        <pt x="639" y="1380" on="1"/>
        <pt x="557" y="1380" on="1"/>
        <pt x="557" y="796" on="1"/>
      </contour>
    </TTGlyph>
    <TTGlyph name="Q" xMin="106" yMin="-434" xMax="1583" yMax="1657">
      <contour>
        <pt x="1583" y="817" on="1"/>
        <pt x="1583" y="650" on="0"/>
        <pt x="1518" y="371" on="0"/>
        <pt x="1384" y="160" on="0"/>
        <pt x="1182" y="20" on="0"/>
        <pt x="1044" y="-8" on="1"/>
        <pt x="1333" y="-236" on="1"/>
        <pt x="1147" y="-434" on="1"/>
        <pt x="680" y="-14" on="1"/>
        <pt x="536" y="9" on="0"/>
        <pt x="320" y="142" on="0"/>
        <pt x="177" y="354" on="0"/>
        <pt x="106" y="639" on="0"/>
        <pt x="106" y="815" on="1"/>
        <pt x="106" y="1017" on="0"/>
        <pt x="199" y="1330" on="0"/>
        <pt x="384" y="1545" on="0"/>
        <pt x="661" y="1657" on="0"/>
        <pt x="846" y="1657" on="1"/>
        <pt x="1033" y="1657" on="0"/>
        <pt x="1310" y="1541" on="0"/>
        <pt x="1493" y="1323" on="0"/>
        <pt x="1583" y="1012" on="0"/>
      </contour>
      <contour>
        <pt x="844" y="1371" on="1"/>
        <pt x="744" y="1371" on="0"/>
        <pt x="613" y="1285" on="0"/>
        <pt x="535" y="1135" on="0"/>
        <pt x="504" y="932" on="0"/>
        <pt x="504" y="816" on="1"/>
        <pt x="504" y="705" on="0"/>
        <pt x="533" y="503" on="0"/>
        <pt x="609" y="349" on="0"/>
        <pt x="741" y="258" on="0"/>
        <pt x="844" y="258" on="1"/>
        <pt x="945" y="258" on="0"/>
        <pt x="1077" y="344" on="0"/>
        <pt x="1154" y="494" on="0"/>
        <pt x="1185" y="698" on="0"/>
        <pt x="1185" y="816" on="1"/>
        <pt x="1185" y="877" on="0"/>
        <pt x="1175" y="1007" on="0"/>
        <pt x="1148" y="1130" on="0"/>
        <pt x="1101" y="1240" on="0"/>
        <pt x="1025" y="1323" on="0"/>
        <pt x="917" y="1371" on="0"/>
      </contour>
    </TTGlyph>
    <TTGlyph name="R" xMin="158" yMin="0" xMax="1436" yMax="1630">
      <contour>
        <pt x="575" y="932" on="1"/>
        <pt x="686" y="932" on="0"/>
        <pt x="855" y="948" on="0"/>
        <pt x="968" y="998" on="0"/>
        <pt x="1026" y="1089" on="0"/>
        <pt x="1026" y="1163" on="1"/>
        <pt x="1026" y="1229" on="0"/>
        <pt x="986" y="1313" on="0"/>
        <pt x="894" y="1361" on="0"/>
        <pt x="743" y="1380" on="0"/>
        <pt x="632" y="1380" on="1"/>
        <pt x="557" y="1380" on="1"/>
        <pt x="557" y="932" on="1"/>
      </contour>
      <contour>
        <pt x="935" y="811" on="1"/>
        <pt x="1043" y="800" on="0"/>
        <pt x="1227" y="749" on="0"/>
        <pt x="1360" y="653" on="0"/>
        <pt x="1436" y="503" on="0"/>
        <pt x="1436" y="393" on="1"/>
        <pt x="1436" y="0" on="1"/>
        <pt x="1042" y="0" on="1"/>
        <pt x="1042" y="420" on="1"/>
        <pt x="1042" y="498" on="0"/>
        <pt x="994" y="603" on="0"/>
        <pt x="900" y="666" on="0"/>
        <pt x="762" y="692" on="0"/>
        <pt x="672" y="692" on="1"/>
        <pt x="557" y="692" on="1"/>
        <pt x="557" y="0" on="1"/>
        <pt x="158" y="0" on="1"/>
        <pt x="158" y="1630" on="1"/>
        <pt x="586" y="1630" on="1"/>
        <pt x="754" y="1630" on="0"/>
        <pt x="1009" y="1606" on="0"/>
        <pt x="1195" y="1558" on="0"/>
        <pt x="1318" y="1487" on="0"/>
        <pt x="1392" y="1394" on="0"/>
        <pt x="1423" y="1278" on="0"/>
        <pt x="1423" y="1210" on="1"/>
        <pt x="1423" y="1102" on="0"/>
        <pt x="1351" y="955" on="0"/>
        <pt x="1221" y="863" on="0"/>
        <pt x="1042" y="818" on="0"/>
      </contour>
    </TTGlyph>
    <TTGlyph name="S" xMin="90" yMin="-28" xMax="1308" yMax="1657">
      <contour>
        <pt x="1308" y="464" on="1"/>
        <pt x="1308" y="226" on="0"/>
        <pt x="1001" y="-28" on="0"/>
        <pt x="703" y="-28" on="1"/>
        <pt x="575" y="-28" on="0"/>
        <pt x="360" y="21" on="0"/>
        <pt x="280" y="51" on="1"/>
        <pt x="187" y="85" on="0"/>
        <pt x="110" y="130" on="1"/>
        <pt x="194" y="407" on="1"/>
        <pt x="194" y="407" on="0"/>
        <pt x="221" y="396" on="1"/>
        <pt x="248" y="384" on="0"/>
        <pt x="335" y="351" on="0"/>
        <pt x="448" y="312" on="0"/>
        <pt x="566" y="279" on="0"/>
        <pt x="679" y="257" on="0"/>
        <pt x="725" y="257" on="1"/>
        <pt x="834" y="257" on="0"/>
        <pt x="940" y="319" on="0"/>
        <pt x="940" y="396" on="1"/>
        <pt x="940" y="426" on="0"/>
        <pt x="927" y="478" on="0"/>
        <pt x="897" y="524" on="0"/>
        <pt x="846" y="562" on="0"/>
        <pt x="807" y="579" on="1"/>
        <pt x="393" y="754" on="1"/>
        <pt x="242" y="817" on="0"/>
        <pt x="90" y="1038" on="0"/>
        <pt x="90" y="1194" on="1"/>
        <pt x="90" y="1274" on="0"/>
        <pt x="140" y="1405" on="0"/>
        <pt x="227" y="1508" on="0"/>
        <pt x="344" y="1583" on="0"/>
        <pt x="479" y="1633" on="0"/>
        <pt x="625" y="1657" on="0"/>
        <pt x="697" y="1657" on="1"/>
        <pt x="779" y="1657" on="0"/>
        <pt x="927" y="1637" on="0"/>
        <pt x="1053" y="1606" on="0"/>
        <pt x="1154" y="1570" on="0"/>
        <pt x="1225" y="1539" on="0"/>
        <pt x="1244" y="1529" on="1"/>
        <pt x="1262" y="1519" on="1"/>
        <pt x="1170" y="1260" on="1"/>
        <pt x="1152" y="1268" on="1"/>
        <pt x="1135" y="1276" on="0"/>
        <pt x="1075" y="1301" on="0"/>
        <pt x="992" y="1330" on="0"/>
        <pt x="896" y="1355" on="0"/>
        <pt x="790" y="1371" on="0"/>
        <pt x="737" y="1371" on="1"/>
        <pt x="692" y="1371" on="0"/>
        <pt x="591" y="1363" on="0"/>
        <pt x="506" y="1333" on="0"/>
        <pt x="450" y="1275" on="0"/>
        <pt x="450" y="1225" on="1"/>
        <pt x="450" y="1213" on="0"/>
        <pt x="453" y="1184" on="0"/>
        <pt x="475" y="1151" on="0"/>
        <pt x="523" y="1115" on="0"/>
        <pt x="568" y="1097" on="1"/>
        <pt x="940" y="947" on="1"/>
        <pt x="1027" y="912" on="0"/>
        <pt x="1164" y="820" on="0"/>
        <pt x="1259" y="702" on="0"/>
        <pt x="1308" y="555" on="0"/>
      </contour>
    </TTGlyph>
    <TTGlyph name="Scaron" xMin="90" yMin="-28" xMax="1308" yMax="2498">
      <component glyphName="S" x="0" y="0" flags="0x1204"/>
      <component glyphName="caron" x="56" y="1629" flags="0x1004"/>
    </TTGlyph>
    <TTGlyph name="Sgrave" xMin="90" yMin="-28" xMax="1308" yMax="2541">
      <component glyphName="S" x="0" y="0" flags="0x1004"/>
      <component glyphName="grave" x="43" y="1610" flags="0x1004"/>
    </TTGlyph>
    <TTGlyph name="T" xMin="-20" yMin="0" xMax="1206" yMax="1630">
      <contour>
        <pt x="796" y="1379" on="1"/>
        <pt x="796" y="0" on="1"/>
        <pt x="397" y="0" on="1"/>
        <pt x="397" y="1379" on="1"/>
        <pt x="-20" y="1379" on="1"/>
        <pt x="-20" y="1630" on="1"/>
        <pt x="1206" y="1630" on="1"/>
        <pt x="1206" y="1379" on="1"/>
      </contour>
    </TTGlyph>
    <TTGlyph name="Thorn" xMin="158" yMin="-249" xMax="1309" yMax="1630">
      <contour>
        <pt x="926" y="776" on="1"/>
        <pt x="926" y="959" on="0"/>
        <pt x="826" y="1144" on="0"/>
        <pt x="730" y="1144" on="1"/>
        <pt x="677" y="1144" on="0"/>
        <pt x="609" y="1127" on="0"/>
        <pt x="567" y="1100" on="0"/>
        <pt x="545" y="1069" on="0"/>
        <pt x="536" y="1055" on="1"/>
        <pt x="536" y="496" on="1"/>
        <pt x="573" y="441" on="0"/>
        <pt x="680" y="386" on="0"/>
        <pt x="751" y="383" on="1"/>
        <pt x="795" y="383" on="0"/>
        <pt x="854" y="420" on="0"/>
        <pt x="893" y="481" on="0"/>
        <pt x="914" y="561" on="0"/>
        <pt x="924" y="648" on="0"/>
        <pt x="926" y="737" on="0"/>
      </contour>
      <contour>
        <pt x="829" y="137" on="1"/>
        <pt x="631" y="137" on="0"/>
        <pt x="536" y="280" on="1"/>
        <pt x="536" y="-249" on="1"/>
        <pt x="158" y="-249" on="1"/>
        <pt x="158" y="1630" on="1"/>
        <pt x="515" y="1630" on="1"/>
        <pt x="515" y="1216" on="1"/>
        <pt x="533" y="1259" on="0"/>
        <pt x="596" y="1325" on="0"/>
        <pt x="676" y="1372" on="0"/>
        <pt x="768" y="1396" on="0"/>
        <pt x="815" y="1397" on="1"/>
        <pt x="937" y="1397" on="0"/>
        <pt x="1120" y="1304" on="0"/>
        <pt x="1244" y="1136" on="0"/>
        <pt x="1307" y="902" on="0"/>
        <pt x="1309" y="761" on="1"/>
        <pt x="1309" y="611" on="0"/>
        <pt x="1240" y="378" on="0"/>
        <pt x="1114" y="219" on="0"/>
        <pt x="937" y="137" on="0"/>
      </contour>
    </TTGlyph>
    <TTGlyph name="U" xMin="145" yMin="-28" xMax="1492" yMax="1630">
      <contour>
        <pt x="819" y="258" on="1"/>
        <pt x="889" y="258" on="0"/>
        <pt x="985" y="291" on="0"/>
        <pt x="1046" y="352" on="0"/>
        <pt x="1078" y="439" on="0"/>
        <pt x="1092" y="547" on="0"/>
        <pt x="1094" y="674" on="0"/>
        <pt x="1094" y="744" on="1"/>
        <pt x="1094" y="1630" on="1"/>
        <pt x="1492" y="1630" on="1"/>
        <pt x="1492" y="748" on="1"/>
        <pt x="1492" y="553" on="0"/>
        <pt x="1417" y="262" on="0"/>
        <pt x="1255" y="69" on="0"/>
        <pt x="999" y="-28" on="0"/>
        <pt x="818" y="-28" on="1"/>
        <pt x="638" y="-28" on="0"/>
        <pt x="383" y="69" on="0"/>
        <pt x="221" y="262" on="0"/>
        <pt x="145" y="553" on="0"/>
        <pt x="145" y="748" on="1"/>
        <pt x="145" y="1630" on="1"/>
        <pt x="544" y="1630" on="1"/>
        <pt x="544" y="744" on="1"/>
        <pt x="544" y="674" on="0"/>
        <pt x="545" y="548" on="0"/>
        <pt x="558" y="440" on="0"/>
        <pt x="590" y="352" on="0"/>
        <pt x="651" y="291" on="0"/>
        <pt x="747" y="258" on="0"/>
      </contour>
    </TTGlyph>
    <TTGlyph name="Uacute" xMin="145" yMin="-28" xMax="1492" yMax="2561">
      <component glyphName="U" x="0" y="0" flags="0x1204"/>
      <component glyphName="acute" x="247" y="1632" flags="0x1004"/>
    </TTGlyph>
    <TTGlyph name="Ucircumflex" xMin="145" yMin="-28" xMax="1492" yMax="2489">
      <component glyphName="U" x="0" y="0" flags="0x1204"/>
      <component glyphName="circumflex" x="140" y="1632" flags="0x1004"/>
    </TTGlyph>
    <TTGlyph name="Udieresis" xMin="145" yMin="-28" xMax="1492" yMax="2262">
      <component glyphName="U" x="0" y="0" flags="0x1204"/>
      <component glyphName="dieresis" x="143" y="1640" flags="0x1004"/>
    </TTGlyph>
    <TTGlyph name="Ugrave" xMin="145" yMin="-28" xMax="1492" yMax="2563">
      <component glyphName="U" x="0" y="0" flags="0x1204"/>
      <component glyphName="grave" x="374" y="1632" flags="0x1004"/>
    </TTGlyph>
    <TTGlyph name="V" xMin="27" yMin="0" xMax="1430" yMax="1630">
      <contour>
        <pt x="733" y="552" on="1"/>
        <pt x="1054" y="1630" on="1"/>
        <pt x="1430" y="1630" on="1"/>
        <pt x="923" y="0" on="1"/>
        <pt x="533" y="0" on="1"/>
        <pt x="27" y="1630" on="1"/>
        <pt x="398" y="1630" on="1"/>
      </contour>
    </TTGlyph>
    <TTGlyph name="W" xMin="29" yMin="0" xMax="2059" yMax="1630">
      <contour>
        <pt x="1253" y="1630" on="1"/>
        <pt x="1458" y="494" on="1"/>
        <pt x="1674" y="1630" on="1"/>
        <pt x="2059" y="1630" on="1"/>
        <pt x="1709" y="1" on="1"/>
        <pt x="1282" y="1" on="1"/>
        <pt x="1043" y="1234" on="1"/>
        <pt x="808" y="0" on="1"/>
        <pt x="377" y="0" on="1"/>
        <pt x="29" y="1630" on="1"/>
        <pt x="415" y="1630" on="1"/>
        <pt x="630" y="494" on="1"/>
        <pt x="835" y="1630" on="1"/>
      </contour>
    </TTGlyph>
    <TTGlyph name="X" xMin="-11" yMin="0" xMax="1429" yMax="1630">
      <contour>
        <pt x="1015" y="1630" on="1"/>
        <pt x="1429" y="1630" on="1"/>
        <pt x="932" y="825" on="1"/>
        <pt x="1429" y="0" on="1"/>
        <pt x="1007" y="0" on="1"/>
        <pt x="709" y="497" on="1"/>
        <pt x="410" y="0" on="1"/>
        <pt x="-11" y="0" on="1"/>
        <pt x="486" y="825" on="1"/>
        <pt x="-11" y="1630" on="1"/>
        <pt x="403" y="1630" on="1"/>
        <pt x="709" y="1117" on="1"/>
      </contour>
    </TTGlyph>
    <TTGlyph name="Y" xMin="-75" yMin="0" xMax="1346" yMax="1630">
      <contour>
        <pt x="942" y="1630" on="1"/>
        <pt x="1346" y="1630" on="1"/>
        <pt x="820" y="539" on="1"/>
        <pt x="820" y="0" on="1"/>
        <pt x="444" y="0" on="1"/>
        <pt x="444" y="539" on="1"/>
        <pt x="-75" y="1630" on="1"/>
        <pt x="322" y="1630" on="1"/>
        <pt x="631" y="957" on="1"/>
      </contour>
    </TTGlyph>
    <TTGlyph name="Yacute" xMin="-75" yMin="0" xMax="1346" yMax="2561">
      <component glyphName="Y" x="0" y="0" flags="0x1204"/>
      <component glyphName="acute" x="68" y="1632" flags="0x1004"/>
    </TTGlyph>
    <TTGlyph name="Ydieresis" xMin="-75" yMin="0" xMax="1346" yMax="2262">
      <component glyphName="Y" x="0" y="0" flags="0x1204"/>
      <component glyphName="dieresis" x="-35" y="1640" flags="0x1004"/>
    </TTGlyph>
    <TTGlyph name="Ygrave" xMin="-75" yMin="0" xMax="1346" yMax="2563">
      <component glyphName="Y" x="0" y="0" flags="0x1204"/>
      <component glyphName="grave" x="195" y="1632" flags="0x1004"/>
    </TTGlyph>
    <TTGlyph name="Z" xMin="49" yMin="0" xMax="1203" yMax="1630">
      <contour>
        <pt x="1201" y="1393" on="1"/>
        <pt x="497" y="251" on="1"/>
        <pt x="1203" y="251" on="1"/>
        <pt x="1203" y="0" on="1"/>
        <pt x="49" y="0" on="1"/>
        <pt x="49" y="243" on="1"/>
        <pt x="762" y="1379" on="1"/>
        <pt x="49" y="1379" on="1"/>
        <pt x="49" y="1630" on="1"/>
        <pt x="1201" y="1630" on="1"/>
      </contour>
    </TTGlyph>
    <TTGlyph name="Zcaron" xMin="49" yMin="0" xMax="1203" yMax="2501">
      <component glyphName="Z" x="0" y="0" flags="0x1204"/>
      <component glyphName="caron" x="-35" y="1632" flags="0x1004"/>
    </TTGlyph>
    <TTGlyph name="Zgrave" xMin="49" yMin="0" xMax="1203" yMax="2510">
      <component glyphName="Z" x="0" y="0" flags="0x1004"/>
      <component glyphName="grave" x="58" y="1579" flags="0x1004"/>
    </TTGlyph>
    <TTGlyph name="a" xMin="72" yMin="-27" xMax="1146" yMax="1236">
      <contour>
        <pt x="622" y="985" on="1"/>
        <pt x="513" y="985" on="0"/>
        <pt x="330" y="939" on="0"/>
        <pt x="237" y="896" on="1"/>
        <pt x="149" y="1119" on="1"/>
        <pt x="242" y="1177" on="0"/>
        <pt x="487" y="1236" on="0"/>
        <pt x="635" y="1236" on="1"/>
        <pt x="770" y="1236" on="0"/>
        <pt x="963" y="1167" on="0"/>
        <pt x="1087" y="1031" on="0"/>
        <pt x="1146" y="831" on="0"/>
        <pt x="1146" y="701" on="1"/>
        <pt x="1146" y="0" on="1"/>
        <pt x="853" y="0" on="1"/>
        <pt x="802" y="152" on="1"/>
        <pt x="774" y="104" on="0"/>
        <pt x="712" y="37" on="0"/>
        <pt x="638" y="-7" on="0"/>
        <pt x="549" y="-27" on="0"/>
        <pt x="494" y="-27" on="1"/>
        <pt x="395" y="-27" on="0"/>
        <pt x="239" y="25" on="0"/>
        <pt x="130" y="127" on="0"/>
        <pt x="72" y="277" on="0"/>
        <pt x="72" y="375" on="1"/>
        <pt x="72" y="474" on="0"/>
        <pt x="149" y="617" on="0"/>
        <pt x="297" y="710" on="0"/>
        <pt x="513" y="755" on="0"/>
        <pt x="653" y="755" on="1"/>
        <pt x="682" y="755" on="0"/>
        <pt x="741" y="751" on="0"/>
        <pt x="771" y="746" on="1"/>
        <pt x="771" y="786" on="0"/>
        <pt x="764" y="870" on="0"/>
        <pt x="735" y="940" on="0"/>
        <pt x="675" y="985" on="0"/>
      </contour>
      <contour>
        <pt x="593" y="227" on="1"/>
        <pt x="699" y="227" on="0"/>
        <pt x="771" y="324" on="1"/>
        <pt x="771" y="554" on="1"/>
        <pt x="738" y="556" on="0"/>
        <pt x="690" y="560" on="0"/>
        <pt x="686" y="560" on="1"/>
        <pt x="614" y="560" on="0"/>
        <pt x="522" y="539" on="0"/>
        <pt x="470" y="500" on="0"/>
        <pt x="450" y="443" on="0"/>
        <pt x="450" y="407" on="1"/>
        <pt x="450" y="324" on="0"/>
        <pt x="523" y="227" on="0"/>
      </contour>
    </TTGlyph>
    <TTGlyph name="aacute" xMin="72" yMin="-27" xMax="1146" yMax="2124">
      <component glyphName="a" x="0" y="0" flags="0x1204"/>
      <component glyphName="acute" x="73" y="1195" flags="0x1004"/>
    </TTGlyph>
    <TTGlyph name="acircumflex" xMin="72" yMin="-27" xMax="1146" yMax="2052">
      <component glyphName="a" x="0" y="0" flags="0x1204"/>
      <component glyphName="circumflex" x="-33" y="1195" flags="0x1004"/>
    </TTGlyph>
    <TTGlyph name="acute" xMin="416" yMin="214" xMax="961" yMax="929">
      <contour>
        <pt x="416" y="295" on="1"/>
        <pt x="630" y="929" on="1"/>
        <pt x="961" y="773" on="1"/>
        <pt x="589" y="214" on="1"/>
      </contour>
    </TTGlyph>
    <TTGlyph name="acutecomb" xMin="489" yMin="1639" xMax="880" yMax="2276">
      <contour>
        <pt x="489" y="1665" on="1"/>
        <pt x="648" y="2276" on="1"/>
        <pt x="880" y="2185" on="1"/>
        <pt x="546" y="1639" on="1"/>
      </contour>
    </TTGlyph>
    <TTGlyph name="adieresis" xMin="69" yMin="-27" xMax="1198" yMax="1826">
      <component glyphName="a" x="0" y="0" flags="0x1204"/>
      <component glyphName="dieresis" x="-30" y="1204" flags="0x1004"/>
    </TTGlyph>
    <TTGlyph name="ae" xMin="70" yMin="-19" xMax="1812" yMax="1225">
      <contour>
        <pt x="1505" y="697" on="1"/>
        <pt x="1505" y="757" on="0"/>
        <pt x="1485" y="857" on="0"/>
        <pt x="1441" y="929" on="0"/>
        <pt x="1369" y="970" on="0"/>
        <pt x="1317" y="970" on="1"/>
        <pt x="1266" y="970" on="0"/>
        <pt x="1195" y="925" on="0"/>
        <pt x="1150" y="850" on="0"/>
        <pt x="1127" y="751" on="0"/>
        <pt x="1124" y="697" on="1"/>
      </contour>
      <contour>
        <pt x="1750" y="80" on="1"/>
        <pt x="1749" y="80" on="0"/>
        <pt x="1718" y="66" on="0"/>
        <pt x="1664" y="45" on="0"/>
        <pt x="1590" y="20" on="0"/>
        <pt x="1502" y="-1" on="0"/>
        <pt x="1405" y="-15" on="0"/>
        <pt x="1354" y="-15" on="1"/>
        <pt x="1280" y="-15" on="0"/>
        <pt x="1158" y="4" on="0"/>
        <pt x="1055" y="51" on="0"/>
        <pt x="968" y="131" on="0"/>
        <pt x="931" y="192" on="1"/>
        <pt x="893" y="126" on="0"/>
        <pt x="790" y="44" on="0"/>
        <pt x="671" y="-2" on="0"/>
        <pt x="544" y="-19" on="0"/>
        <pt x="483" y="-19" on="1"/>
        <pt x="279" y="-19" on="0"/>
        <pt x="70" y="184" on="0"/>
        <pt x="70" y="388" on="1"/>
        <pt x="70" y="467" on="0"/>
        <pt x="115" y="582" on="0"/>
        <pt x="193" y="663" on="0"/>
        <pt x="301" y="715" on="0"/>
        <pt x="428" y="744" on="0"/>
        <pt x="568" y="755" on="0"/>
        <pt x="640" y="755" on="1"/>
        <pt x="712" y="755" on="0"/>
        <pt x="772" y="746" on="1"/>
        <pt x="772" y="785" on="0"/>
        <pt x="767" y="860" on="0"/>
        <pt x="737" y="919" on="0"/>
        <pt x="674" y="956" on="0"/>
        <pt x="616" y="956" on="1"/>
        <pt x="570" y="956" on="0"/>
        <pt x="474" y="944" on="0"/>
        <pt x="382" y="926" on="0"/>
        <pt x="300" y="906" on="0"/>
        <pt x="237" y="888" on="0"/>
        <pt x="199" y="876" on="0"/>
        <pt x="198" y="876" on="1"/>
        <pt x="150" y="1118" on="1"/>
        <pt x="150" y="1117" on="0"/>
        <pt x="189" y="1132" on="0"/>
        <pt x="257" y="1156" on="0"/>
        <pt x="349" y="1184" on="0"/>
        <pt x="456" y="1209" on="0"/>
        <pt x="573" y="1225" on="0"/>
        <pt x="631" y="1225" on="1"/>
        <pt x="881" y="1225" on="0"/>
        <pt x="980" y="1079" on="1"/>
        <pt x="1006" y="1116" on="0"/>
        <pt x="1078" y="1171" on="0"/>
        <pt x="1167" y="1207" on="0"/>
        <pt x="1269" y="1225" on="0"/>
        <pt x="1324" y="1225" on="1"/>
        <pt x="1439" y="1225" on="0"/>
        <pt x="1621" y="1146" on="0"/>
        <pt x="1745" y="1004" on="0"/>
        <pt x="1811" y="806" on="0"/>
        <pt x="1811" y="687" on="1"/>
        <pt x="1811" y="643" on="0"/>
        <pt x="1811" y="555" on="0"/>
        <pt x="1812" y="512" on="1"/>
        <pt x="1124" y="512" on="1"/>
        <pt x="1126" y="451" on="0"/>
        <pt x="1159" y="351" on="0"/>
        <pt x="1220" y="279" on="0"/>
        <pt x="1310" y="239" on="0"/>
        <pt x="1370" y="239" on="1"/>
        <pt x="1429" y="239" on="0"/>
        <pt x="1540" y="264" on="0"/>
        <pt x="1627" y="293" on="0"/>
        <pt x="1680" y="318" on="0"/>
        <pt x="1682" y="318" on="1"/>
      </contour>
      <contour>
        <pt x="422" y="401" on="1"/>
        <pt x="422" y="323" on="0"/>
        <pt x="506" y="235" on="0"/>
        <pt x="575" y="235" on="1"/>
        <pt x="632" y="235" on="0"/>
        <pt x="725" y="283" on="0"/>
        <pt x="772" y="324" on="1"/>
        <pt x="772" y="554" on="1"/>
        <pt x="744" y="556" on="0"/>
        <pt x="696" y="560" on="0"/>
        <pt x="675" y="560" on="1"/>
        <pt x="612" y="560" on="0"/>
        <pt x="517" y="545" on="0"/>
        <pt x="454" y="509" on="0"/>
        <pt x="422" y="447" on="0"/>
      </contour>
    </TTGlyph>
    <TTGlyph name="afii10017" xMin="27" yMin="0" xMax="1531" yMax="1630">
      <component glyphName="A" x="0" y="0" flags="0x1204"/>
    </TTGlyph>
    <TTGlyph name="afii10018" xMin="158" yMin="0" xMax="1604" yMax="1630">
      <contour>
        <pt x="752" y="251" on="1"/>
        <pt x="833" y="251" on="1"/>
        <pt x="920" y="251" on="0"/>
        <pt x="1058" y="280" on="0"/>
        <pt x="1154" y="349" on="0"/>
        <pt x="1205" y="465" on="0"/>
        <pt x="1205" y="552" on="1"/>
        <pt x="1205" y="632" on="0"/>
        <pt x="1147" y="740" on="0"/>
        <pt x="1041" y="805" on="0"/>
        <pt x="893" y="833" on="0"/>
        <pt x="803" y="833" on="1"/>
        <pt x="752" y="833" on="1"/>
      </contour>
      <contour>
        <pt x="1604" y="550" on="1"/>
        <pt x="1604" y="385" on="0"/>
        <pt x="1490" y="172" on="0"/>
        <pt x="1286" y="48" on="0"/>
        <pt x="1003" y="0" on="0"/>
        <pt x="834" y="0" on="1"/>
        <pt x="660" y="0" on="1"/>
        <pt x="353" y="0" on="1"/>
        <pt x="353" y="1385" on="1"/>
        <pt x="158" y="1385" on="1"/>
        <pt x="158" y="1630" on="1"/>
        <pt x="1422" y="1630" on="1"/>
        <pt x="1422" y="1380" on="1"/>
        <pt x="752" y="1380" on="1"/>
        <pt x="752" y="1069" on="1"/>
        <pt x="805" y="1069" on="1"/>
        <pt x="986" y="1069" on="0"/>
        <pt x="1278" y="1024" on="0"/>
        <pt x="1486" y="907" on="0"/>
        <pt x="1601" y="706" on="0"/>
      </contour>
    </TTGlyph>
    <TTGlyph name="afii10019" xMin="158" yMin="0" xMax="1429" yMax="1630">
      <component glyphName="B" x="0" y="0" flags="0x1004"/>
    </TTGlyph>
    <TTGlyph name="afii10020" xMin="158" yMin="0" xMax="1105" yMax="1630">
      <contour>
        <pt x="557" y="1380" on="1"/>
        <pt x="557" y="0" on="1"/>
        <pt x="158" y="0" on="1"/>
        <pt x="158" y="1630" on="1"/>
        <pt x="1105" y="1630" on="1"/>
        <pt x="1105" y="1380" on="1"/>
      </contour>
    </TTGlyph>
    <TTGlyph name="afii10021" xMin="2" yMin="-488" xMax="1759" yMax="1631">
      <contour>
        <pt x="1248" y="251" on="1"/>
        <pt x="1248" y="1380" on="1"/>
        <pt x="685" y="1380" on="1"/>
        <pt x="685" y="964" on="1"/>
        <pt x="685" y="875" on="0"/>
        <pt x="681" y="670" on="0"/>
        <pt x="659" y="474" on="0"/>
        <pt x="612" y="305" on="0"/>
        <pt x="568" y="251" on="1"/>
      </contour>
      <contour>
        <pt x="102" y="251" on="1"/>
        <pt x="100" y="247" on="0"/>
        <pt x="100" y="248" on="1"/>
        <pt x="101" y="248" on="1"/>
        <pt x="103" y="248" on="0"/>
        <pt x="132" y="282" on="0"/>
        <pt x="173" y="359" on="0"/>
        <pt x="220" y="484" on="0"/>
        <pt x="260" y="667" on="0"/>
        <pt x="286" y="912" on="0"/>
        <pt x="286" y="1071" on="1"/>
        <pt x="286" y="1631" on="1"/>
        <pt x="1648" y="1631" on="1"/>
        <pt x="1648" y="141" on="1"/>
        <pt x="1759" y="141" on="1"/>
        <pt x="1759" y="-488" on="1"/>
        <pt x="1413" y="-488" on="1"/>
        <pt x="1413" y="2" on="1"/>
        <pt x="430" y="2" on="1"/>
        <pt x="430" y="-486" on="1"/>
        <pt x="2" y="-486" on="1"/>
        <pt x="2" y="251" on="1"/>
      </contour>
    </TTGlyph>
    <TTGlyph name="afii10022" xMin="158" yMin="0" xMax="1283" yMax="1630">
      <component glyphName="E" x="0" y="0" flags="0x1004"/>
    </TTGlyph>
    <TTGlyph name="afii10023" xMin="145" yMin="0" xMax="1316" yMax="2201">
      <contour>
        <pt x="145" y="1992" on="1"/>
        <pt x="145" y="2036" on="0"/>
        <pt x="177" y="2112" on="0"/>
        <pt x="234" y="2169" on="0"/>
        <pt x="309" y="2201" on="0"/>
        <pt x="353" y="2201" on="1"/>
        <pt x="396" y="2201" on="0"/>
        <pt x="474" y="2169" on="0"/>
        <pt x="531" y="2112" on="0"/>
        <pt x="565" y="2036" on="0"/>
        <pt x="565" y="1992" on="1"/>
        <pt x="565" y="1948" on="0"/>
        <pt x="531" y="1872" on="0"/>
        <pt x="474" y="1816" on="0"/>
        <pt x="396" y="1784" on="0"/>
        <pt x="353" y="1784" on="1"/>
        <pt x="308" y="1784" on="0"/>
        <pt x="231" y="1816" on="0"/>
        <pt x="176" y="1873" on="0"/>
        <pt x="145" y="1948" on="0"/>
      </contour>
      <contour>
        <pt x="855" y="1992" on="1"/>
        <pt x="855" y="2036" on="0"/>
        <pt x="888" y="2112" on="0"/>
        <pt x="944" y="2169" on="0"/>
        <pt x="1020" y="2201" on="0"/>
        <pt x="1063" y="2201" on="1"/>
        <pt x="1106" y="2201" on="0"/>
        <pt x="1184" y="2169" on="0"/>
        <pt x="1241" y="2112" on="0"/>
        <pt x="1275" y="2036" on="0"/>
        <pt x="1275" y="1992" on="1"/>
        <pt x="1275" y="1948" on="0"/>
        <pt x="1241" y="1872" on="0"/>
        <pt x="1184" y="1816" on="0"/>
        <pt x="1106" y="1784" on="0"/>
        <pt x="1063" y="1784" on="1"/>
        <pt x="1018" y="1784" on="0"/>
        <pt x="941" y="1816" on="0"/>
        <pt x="886" y="1873" on="0"/>
        <pt x="855" y="1948" on="0"/>
      </contour>
      <contour>
        <pt x="191" y="0" on="1"/>
        <pt x="191" y="1630" on="1"/>
        <pt x="1307" y="1630" on="1"/>
        <pt x="1307" y="1379" on="1"/>
        <pt x="589" y="1379" on="1"/>
        <pt x="589" y="964" on="1"/>
        <pt x="1214" y="964" on="1"/>
        <pt x="1214" y="719" on="1"/>
        <pt x="589" y="719" on="1"/>
        <pt x="589" y="245" on="1"/>
        <pt x="1316" y="245" on="1"/>
        <pt x="1316" y="0" on="1"/>
      </contour>
    </TTGlyph>
    <TTGlyph name="afii10024" xMin="-11" yMin="0" xMax="2389" yMax="1630">
      <contour>
        <pt x="990" y="691" on="1"/>
        <pt x="923" y="691" on="1"/>
        <pt x="404" y="0" on="1"/>
        <pt x="-11" y="0" on="1"/>
        <pt x="439" y="606" on="1"/>
        <pt x="481" y="662" on="0"/>
        <pt x="550" y="739" on="0"/>
        <pt x="616" y="788" on="0"/>
        <pt x="686" y="816" on="0"/>
        <pt x="729" y="823" on="1"/>
        <pt x="686" y="833" on="0"/>
        <pt x="616" y="864" on="0"/>
        <pt x="548" y="920" on="0"/>
        <pt x="476" y="1006" on="0"/>
        <pt x="431" y="1071" on="1"/>
        <pt x="44" y="1630" on="1"/>
        <pt x="451" y="1630" on="1"/>
        <pt x="915" y="935" on="1"/>
        <pt x="990" y="935" on="1"/>
        <pt x="990" y="1630" on="1"/>
        <pt x="1388" y="1630" on="1"/>
        <pt x="1388" y="935" on="1"/>
        <pt x="1461" y="935" on="1"/>
        <pt x="1927" y="1630" on="1"/>
        <pt x="2331" y="1630" on="1"/>
        <pt x="1947" y="1071" on="1"/>
        <pt x="1902" y="1006" on="0"/>
        <pt x="1830" y="919" on="0"/>
        <pt x="1761" y="862" on="0"/>
        <pt x="1690" y="831" on="0"/>
        <pt x="1648" y="823" on="1"/>
        <pt x="1690" y="816" on="0"/>
        <pt x="1760" y="788" on="0"/>
        <pt x="1826" y="738" on="0"/>
        <pt x="1896" y="661" on="0"/>
        <pt x="1938" y="606" on="1"/>
        <pt x="2389" y="0" on="1"/>
        <pt x="1972" y="0" on="1"/>
        <pt x="1453" y="691" on="1"/>
        <pt x="1388" y="691" on="1"/>
        <pt x="1388" y="0" on="1"/>
        <pt x="990" y="0" on="1"/>
      </contour>
    </TTGlyph>
    <TTGlyph name="afii10025" xMin="158" yMin="-28" xMax="1415" yMax="1657">
      <contour>
        <pt x="1130" y="833" on="1"/>
        <pt x="1170" y="829" on="0"/>
        <pt x="1268" y="780" on="0"/>
        <pt x="1354" y="686" on="0"/>
        <pt x="1412" y="546" on="0"/>
        <pt x="1412" y="452" on="1"/>
        <pt x="1412" y="306" on="0"/>
        <pt x="1303" y="119" on="0"/>
        <pt x="1110" y="12" on="0"/>
        <pt x="848" y="-28" on="0"/>
        <pt x="695" y="-28" on="1"/>
        <pt x="638" y="-28" on="0"/>
        <pt x="513" y="-9" on="0"/>
        <pt x="382" y="23" on="0"/>
        <pt x="248" y="65" on="0"/>
        <pt x="184" y="88" on="1"/>
        <pt x="264" y="363" on="1"/>
        <pt x="298" y="349" on="0"/>
        <pt x="398" y="313" on="0"/>
        <pt x="515" y="280" on="0"/>
        <pt x="642" y="258" on="0"/>
        <pt x="703" y="258" on="1"/>
        <pt x="859" y="258" on="0"/>
        <pt x="1023" y="371" on="0"/>
        <pt x="1023" y="494" on="1"/>
        <pt x="1023" y="546" on="0"/>
        <pt x="992" y="621" on="0"/>
        <pt x="923" y="669" on="0"/>
        <pt x="812" y="691" on="0"/>
        <pt x="731" y="691" on="1"/>
        <pt x="690" y="691" on="0"/>
        <pt x="611" y="689" on="0"/>
        <pt x="571" y="689" on="1"/>
        <pt x="421" y="689" on="1"/>
        <pt x="421" y="955" on="1"/>
        <pt x="691" y="955" on="1"/>
        <pt x="862" y="955" on="0"/>
        <pt x="1025" y="1046" on="0"/>
        <pt x="1025" y="1148" on="1"/>
        <pt x="1025" y="1211" on="0"/>
        <pt x="997" y="1296" on="0"/>
        <pt x="928" y="1348" on="0"/>
        <pt x="810" y="1370" on="0"/>
        <pt x="719" y="1370" on="1"/>
        <pt x="623" y="1370" on="0"/>
        <pt x="460" y="1343" on="0"/>
        <pt x="337" y="1307" on="0"/>
        <pt x="257" y="1273" on="0"/>
        <pt x="244" y="1266" on="1"/>
        <pt x="158" y="1526" on="1"/>
        <pt x="222" y="1565" on="0"/>
        <pt x="362" y="1616" on="0"/>
        <pt x="509" y="1646" on="0"/>
        <pt x="658" y="1657" on="0"/>
        <pt x="731" y="1657" on="1"/>
        <pt x="878" y="1657" on="0"/>
        <pt x="1129" y="1617" on="0"/>
        <pt x="1312" y="1514" on="0"/>
        <pt x="1415" y="1334" on="0"/>
        <pt x="1415" y="1194" on="1"/>
        <pt x="1415" y="1101" on="0"/>
        <pt x="1354" y="965" on="0"/>
        <pt x="1266" y="876" on="0"/>
        <pt x="1168" y="833" on="0"/>
      </contour>
    </TTGlyph>
    <TTGlyph name="afii10026" xMin="158" yMin="0" xMax="1542" yMax="1630">
      <contour>
        <pt x="512" y="1630" on="1"/>
        <pt x="512" y="680" on="1"/>
        <pt x="1122" y="1630" on="1"/>
        <pt x="1542" y="1630" on="1"/>
        <pt x="1542" y="0" on="1"/>
        <pt x="1186" y="0" on="1"/>
        <pt x="1186" y="1107" on="1"/>
        <pt x="513" y="136" on="1"/>
        <pt x="513" y="0" on="1"/>
        <pt x="158" y="0" on="1"/>
        <pt x="158" y="1630" on="1"/>
      </contour>
    </TTGlyph>
    <TTGlyph name="afii10027" xMin="158" yMin="0" xMax="1542" yMax="2030">
      <component glyphName="uni0306" x="164" y="337" flags="0x1004"/>
      <component glyphName="afii10026" x="0" y="0" flags="0x1004"/>
    </TTGlyph>
    <TTGlyph name="afii10028" xMin="158" yMin="0" xMax="1548" yMax="1630">
      <contour>
        <pt x="557" y="0" on="1"/>
        <pt x="158" y="0" on="1"/>
        <pt x="158" y="1630" on="1"/>
        <pt x="557" y="1630" on="1"/>
        <pt x="557" y="935" on="1"/>
        <pt x="627" y="935" on="1"/>
        <pt x="1086" y="1630" on="1"/>
        <pt x="1493" y="1630" on="1"/>
        <pt x="1110" y="1071" on="1"/>
        <pt x="1066" y="1008" on="0"/>
        <pt x="994" y="920" on="0"/>
        <pt x="925" y="863" on="0"/>
        <pt x="853" y="831" on="0"/>
        <pt x="811" y="823" on="1"/>
        <pt x="852" y="815" on="0"/>
        <pt x="922" y="788" on="0"/>
        <pt x="990" y="740" on="0"/>
        <pt x="1059" y="664" on="0"/>
        <pt x="1100" y="609" on="1"/>
        <pt x="1548" y="0" on="1"/>
        <pt x="1132" y="0" on="1"/>
        <pt x="619" y="691" on="1"/>
        <pt x="557" y="691" on="1"/>
      </contour>
    </TTGlyph>
    <TTGlyph name="afii10029" xMin="5" yMin="0" xMax="1601" yMax="1630">
      <contour>
        <pt x="1601" y="0" on="1"/>
        <pt x="1202" y="0" on="1"/>
        <pt x="1202" y="1380" on="1"/>
        <pt x="671" y="1380" on="1"/>
        <pt x="675" y="861" on="1"/>
        <pt x="675" y="745" on="0"/>
        <pt x="654" y="528" on="0"/>
        <pt x="599" y="337" on="0"/>
        <pt x="504" y="178" on="0"/>
        <pt x="355" y="64" on="0"/>
        <pt x="146" y="1" on="0"/>
        <pt x="5" y="1" on="1"/>
        <pt x="5" y="370" on="1"/>
        <pt x="78" y="370" on="0"/>
        <pt x="181" y="405" on="0"/>
        <pt x="247" y="489" on="0"/>
        <pt x="277" y="627" on="0"/>
        <pt x="277" y="731" on="1"/>
        <pt x="272" y="1630" on="1"/>
        <pt x="1601" y="1630" on="1"/>
      </contour>
    </TTGlyph>
    <TTGlyph name="afii10030" xMin="158" yMin="0" xMax="1888" yMax="1630">
      <component glyphName="M" x="0" y="0" flags="0x1204"/>
    </TTGlyph>
    <TTGlyph name="afii10031" xMin="158" yMin="0" xMax="1504" yMax="1630">
      <component glyphName="H" x="0" y="0" flags="0x1204"/>
    </TTGlyph>
    <TTGlyph name="afii10032" xMin="106" yMin="-28" xMax="1584" yMax="1657">
      <component glyphName="O" x="0" y="0" flags="0x1204"/>
    </TTGlyph>
    <TTGlyph name="afii10033" xMin="158" yMin="0" xMax="1550" yMax="1630">
      <contour>
        <pt x="1550" y="0" on="1"/>
        <pt x="1151" y="0" on="1"/>
        <pt x="1151" y="1380" on="1"/>
        <pt x="557" y="1380" on="1"/>
        <pt x="557" y="0" on="1"/>
        <pt x="158" y="0" on="1"/>
        <pt x="158" y="1630" on="1"/>
        <pt x="1550" y="1630" on="1"/>
      </contour>
    </TTGlyph>
    <TTGlyph name="afii10034" xMin="158" yMin="0" xMax="1409" yMax="1630">
      <component glyphName="P" x="0" y="0" flags="0x1004"/>
    </TTGlyph>
    <TTGlyph name="afii10035" xMin="107" yMin="-28" xMax="1321" yMax="1657">
      <component glyphName="C" x="1" y="0" flags="0x1004"/>
    </TTGlyph>
    <TTGlyph name="afii10036" xMin="-18" yMin="0" xMax="1208" yMax="1630">
      <component glyphName="T" x="2" y="0" flags="0x1004"/>
    </TTGlyph>
    <TTGlyph name="afii10037" xMin="-74" yMin="-1" xMax="1366" yMax="1630">
      <contour>
        <pt x="962" y="1630" on="1"/>
        <pt x="1366" y="1630" on="1"/>
        <pt x="831" y="544" on="1"/>
        <pt x="831" y="371" on="1"/>
        <pt x="831" y="208" on="0"/>
        <pt x="870" y="12" on="1"/>
        <pt x="480" y="-1" on="1"/>
        <pt x="468" y="98" on="0"/>
        <pt x="452" y="287" on="0"/>
        <pt x="452" y="371" on="1"/>
        <pt x="452" y="544" on="1"/>
        <pt x="-74" y="1630" on="1"/>
        <pt x="324" y="1630" on="1"/>
        <pt x="641" y="964" on="1"/>
      </contour>
    </TTGlyph>
    <TTGlyph name="afii10038" xMin="106" yMin="-90" xMax="1969" yMax="1721">
      <contour>
        <pt x="1237" y="-90" on="1"/>
        <pt x="839" y="-90" on="1"/>
        <pt x="839" y="77" on="1"/>
        <pt x="704" y="77" on="0"/>
        <pt x="490" y="137" on="0"/>
        <pt x="327" y="243" on="0"/>
        <pt x="212" y="385" on="0"/>
        <pt x="139" y="549" on="0"/>
        <pt x="106" y="727" on="0"/>
        <pt x="106" y="816" on="1"/>
        <pt x="106" y="996" on="0"/>
        <pt x="228" y="1271" on="0"/>
        <pt x="432" y="1458" on="0"/>
        <pt x="696" y="1553" on="0"/>
        <pt x="839" y="1553" on="1"/>
        <pt x="839" y="1721" on="1"/>
        <pt x="1237" y="1721" on="1"/>
        <pt x="1237" y="1553" on="1"/>
        <pt x="1330" y="1553" on="0"/>
        <pt x="1512" y="1511" on="0"/>
        <pt x="1674" y="1428" on="0"/>
        <pt x="1812" y="1305" on="0"/>
        <pt x="1913" y="1141" on="0"/>
        <pt x="1969" y="937" on="0"/>
        <pt x="1969" y="815" on="1"/>
        <pt x="1969" y="726" on="0"/>
        <pt x="1935" y="547" on="0"/>
        <pt x="1862" y="383" on="0"/>
        <pt x="1747" y="241" on="0"/>
        <pt x="1584" y="137" on="0"/>
        <pt x="1371" y="77" on="0"/>
        <pt x="1237" y="77" on="1"/>
      </contour>
      <contour>
        <pt x="839" y="1266" on="1"/>
        <pt x="763" y="1264" on="0"/>
        <pt x="640" y="1229" on="0"/>
        <pt x="553" y="1132" on="0"/>
        <pt x="505" y="957" on="0"/>
        <pt x="505" y="815" on="1"/>
        <pt x="505" y="680" on="0"/>
        <pt x="563" y="505" on="0"/>
        <pt x="658" y="403" on="0"/>
        <pt x="777" y="363" on="0"/>
        <pt x="839" y="363" on="1"/>
      </contour>
      <contour>
        <pt x="1237" y="364" on="1"/>
        <pt x="1278" y="364" on="0"/>
        <pt x="1358" y="381" on="0"/>
        <pt x="1433" y="421" on="0"/>
        <pt x="1497" y="488" on="0"/>
        <pt x="1544" y="589" on="0"/>
        <pt x="1571" y="726" on="0"/>
        <pt x="1571" y="816" on="1"/>
        <pt x="1571" y="912" on="0"/>
        <pt x="1549" y="1053" on="0"/>
        <pt x="1507" y="1152" on="0"/>
        <pt x="1447" y="1214" on="0"/>
        <pt x="1373" y="1250" on="0"/>
        <pt x="1286" y="1264" on="0"/>
        <pt x="1237" y="1266" on="1"/>
      </contour>
    </TTGlyph>
    <TTGlyph name="afii10039" xMin="-11" yMin="0" xMax="1429" yMax="1630">
      <component glyphName="X" x="0" y="0" flags="0x1204"/>
    </TTGlyph>
    <TTGlyph name="afii10040" xMin="158" yMin="-366" xMax="1691" yMax="1630">
      <contour>
        <pt x="158" y="1630" on="1"/>
        <pt x="557" y="1630" on="1"/>
        <pt x="557" y="251" on="1"/>
        <pt x="1128" y="251" on="1"/>
        <pt x="1128" y="1630" on="1"/>
        <pt x="1527" y="1630" on="1"/>
        <pt x="1527" y="194" on="1"/>
        <pt x="1691" y="194" on="1"/>
        <pt x="1691" y="-366" on="1"/>
        <pt x="1291" y="-366" on="1"/>
        <pt x="1291" y="0" on="1"/>
        <pt x="158" y="0" on="1"/>
      </contour>
    </TTGlyph>
    <TTGlyph name="afii10041" xMin="111" yMin="0" xMax="1234" yMax="1630">
      <contour>
        <pt x="856" y="532" on="1"/>
        <pt x="811" y="469" on="0"/>
        <pt x="651" y="393" on="0"/>
        <pt x="541" y="393" on="1"/>
        <pt x="439" y="393" on="0"/>
        <pt x="279" y="456" on="0"/>
        <pt x="169" y="579" on="0"/>
        <pt x="111" y="763" on="0"/>
        <pt x="111" y="884" on="1"/>
        <pt x="111" y="1630" on="1"/>
        <pt x="489" y="1630" on="1"/>
        <pt x="489" y="856" on="1"/>
        <pt x="489" y="803" on="0"/>
        <pt x="517" y="724" on="0"/>
        <pt x="562" y="671" on="0"/>
        <pt x="621" y="644" on="0"/>
        <pt x="651" y="644" on="1"/>
        <pt x="707" y="644" on="0"/>
        <pt x="772" y="655" on="0"/>
        <pt x="813" y="675" on="0"/>
        <pt x="839" y="702" on="0"/>
        <pt x="856" y="717" on="1"/>
        <pt x="856" y="1630" on="1"/>
        <pt x="1234" y="1630" on="1"/>
        <pt x="1234" y="0" on="1"/>
        <pt x="856" y="0" on="1"/>
      </contour>
    </TTGlyph>
    <TTGlyph name="afii10042" xMin="158" yMin="0" xMax="2339" yMax="1630">
      <contour>
        <pt x="1449" y="251" on="1"/>
        <pt x="1942" y="251" on="1"/>
        <pt x="1942" y="1630" on="1"/>
        <pt x="2339" y="1630" on="1"/>
        <pt x="2339" y="0" on="1"/>
        <pt x="158" y="0" on="1"/>
        <pt x="158" y="1630" on="1"/>
        <pt x="556" y="1630" on="1"/>
        <pt x="556" y="251" on="1"/>
        <pt x="1049" y="251" on="1"/>
        <pt x="1049" y="1630" on="1"/>
        <pt x="1449" y="1630" on="1"/>
      </contour>
    </TTGlyph>
    <TTGlyph name="afii10043" xMin="158" yMin="-465" xMax="2428" yMax="1630">
      <contour>
        <pt x="1449" y="249" on="1"/>
        <pt x="1943" y="249" on="1"/>
        <pt x="1943" y="1630" on="1"/>
        <pt x="2322" y="1630" on="1"/>
        <pt x="2322" y="87" on="1"/>
        <pt x="2428" y="87" on="1"/>
        <pt x="2428" y="-465" on="1"/>
        <pt x="2086" y="-465" on="1"/>
        <pt x="2086" y="0" on="1"/>
        <pt x="158" y="0" on="1"/>
        <pt x="158" y="1630" on="1"/>
        <pt x="556" y="1630" on="1"/>
        <pt x="556" y="249" on="1"/>
        <pt x="1049" y="249" on="1"/>
        <pt x="1049" y="1630" on="1"/>
        <pt x="1449" y="1630" on="1"/>
      </contour>
    </TTGlyph>
    <TTGlyph name="afii10044" xMin="17" yMin="0" xMax="1565" yMax="1630">
      <contour>
        <pt x="712" y="251" on="1"/>
        <pt x="793" y="251" on="1"/>
        <pt x="882" y="251" on="0"/>
        <pt x="1021" y="280" on="0"/>
        <pt x="1116" y="349" on="0"/>
        <pt x="1166" y="465" on="0"/>
        <pt x="1166" y="552" on="1"/>
        <pt x="1166" y="632" on="0"/>
        <pt x="1107" y="740" on="0"/>
        <pt x="1001" y="805" on="0"/>
        <pt x="853" y="833" on="0"/>
        <pt x="764" y="833" on="1"/>
        <pt x="712" y="833" on="1"/>
      </contour>
      <contour>
        <pt x="712" y="1069" on="1"/>
        <pt x="766" y="1069" on="1"/>
        <pt x="947" y="1069" on="0"/>
        <pt x="1242" y="1024" on="0"/>
        <pt x="1451" y="907" on="0"/>
        <pt x="1565" y="706" on="0"/>
        <pt x="1565" y="550" on="1"/>
        <pt x="1565" y="385" on="0"/>
        <pt x="1451" y="172" on="0"/>
        <pt x="1246" y="48" on="0"/>
        <pt x="963" y="0" on="0"/>
        <pt x="794" y="0" on="1"/>
        <pt x="314" y="0" on="1"/>
        <pt x="314" y="1385" on="1"/>
        <pt x="17" y="1385" on="1"/>
        <pt x="17" y="1630" on="1"/>
        <pt x="712" y="1630" on="1"/>
      </contour>
    </TTGlyph>
    <TTGlyph name="afii10045" xMin="102" yMin="0" xMax="2108" yMax="1630">
      <contour>
        <pt x="2108" y="0" on="1"/>
        <pt x="1712" y="0" on="1"/>
        <pt x="1712" y="1626" on="1"/>
        <pt x="2108" y="1626" on="1"/>
      </contour>
      <contour>
        <pt x="1353" y="550" on="1"/>
        <pt x="1353" y="385" on="0"/>
        <pt x="1239" y="172" on="0"/>
        <pt x="1034" y="48" on="0"/>
        <pt x="751" y="0" on="0"/>
        <pt x="582" y="0" on="1"/>
        <pt x="102" y="0" on="1"/>
        <pt x="102" y="1630" on="1"/>
        <pt x="500" y="1630" on="1"/>
        <pt x="500" y="1069" on="1"/>
        <pt x="554" y="1069" on="1"/>
        <pt x="735" y="1069" on="0"/>
        <pt x="1027" y="1024" on="0"/>
        <pt x="1235" y="907" on="0"/>
        <pt x="1350" y="706" on="0"/>
      </contour>
      <contour>
        <pt x="500" y="251" on="1"/>
        <pt x="581" y="251" on="1"/>
        <pt x="670" y="251" on="0"/>
        <pt x="809" y="280" on="0"/>
        <pt x="904" y="349" on="0"/>
        <pt x="954" y="465" on="0"/>
        <pt x="954" y="552" on="1"/>
        <pt x="954" y="632" on="0"/>
        <pt x="895" y="740" on="0"/>
        <pt x="789" y="805" on="0"/>
        <pt x="641" y="833" on="0"/>
        <pt x="551" y="833" on="1"/>
        <pt x="500" y="833" on="1"/>
      </contour>
    </TTGlyph>
    <TTGlyph name="afii10046" xMin="102" yMin="0" xMax="1353" yMax="1630">
      <contour>
        <pt x="1353" y="550" on="1"/>
        <pt x="1353" y="385" on="0"/>
        <pt x="1239" y="172" on="0"/>
        <pt x="1034" y="48" on="0"/>
        <pt x="751" y="0" on="0"/>
        <pt x="582" y="0" on="1"/>
        <pt x="102" y="0" on="1"/>
        <pt x="102" y="1630" on="1"/>
        <pt x="500" y="1630" on="1"/>
        <pt x="500" y="1069" on="1"/>
        <pt x="554" y="1069" on="1"/>
        <pt x="735" y="1069" on="0"/>
        <pt x="1027" y="1024" on="0"/>
        <pt x="1235" y="907" on="0"/>
        <pt x="1350" y="706" on="0"/>
      </contour>
      <contour>
        <pt x="500" y="251" on="1"/>
        <pt x="581" y="251" on="1"/>
        <pt x="670" y="251" on="0"/>
        <pt x="809" y="280" on="0"/>
        <pt x="904" y="349" on="0"/>
        <pt x="954" y="465" on="0"/>
        <pt x="954" y="552" on="1"/>
        <pt x="954" y="632" on="0"/>
        <pt x="895" y="740" on="0"/>
        <pt x="789" y="805" on="0"/>
        <pt x="641" y="833" on="0"/>
        <pt x="551" y="833" on="1"/>
        <pt x="500" y="833" on="1"/>
      </contour>
    </TTGlyph>
    <TTGlyph name="afii10047" xMin="52" yMin="-28" xMax="1266" yMax="1657">
      <contour>
        <pt x="1266" y="821" on="1"/>
        <pt x="1266" y="629" on="0"/>
        <pt x="1176" y="316" on="0"/>
        <pt x="996" y="94" on="0"/>
        <pt x="726" y="-28" on="0"/>
        <pt x="547" y="-28" on="1"/>
        <pt x="473" y="-28" on="0"/>
        <pt x="325" y="-10" on="0"/>
        <pt x="193" y="21" on="0"/>
        <pt x="86" y="65" on="0"/>
        <pt x="55" y="92" on="1"/>
        <pt x="163" y="371" on="1"/>
        <pt x="252" y="309" on="0"/>
        <pt x="421" y="258" on="0"/>
        <pt x="506" y="258" on="1"/>
        <pt x="669" y="258" on="0"/>
        <pt x="853" y="478" on="0"/>
        <pt x="868" y="715" on="1"/>
        <pt x="298" y="715" on="1"/>
        <pt x="298" y="958" on="1"/>
        <pt x="864" y="958" on="1"/>
        <pt x="856" y="1049" on="0"/>
        <pt x="812" y="1201" on="0"/>
        <pt x="731" y="1310" on="0"/>
        <pt x="607" y="1370" on="0"/>
        <pt x="519" y="1370" on="1"/>
        <pt x="476" y="1370" on="0"/>
        <pt x="393" y="1359" on="0"/>
        <pt x="307" y="1332" on="0"/>
        <pt x="214" y="1286" on="0"/>
        <pt x="161" y="1252" on="1"/>
        <pt x="52" y="1532" on="1"/>
        <pt x="87" y="1556" on="0"/>
        <pt x="192" y="1601" on="0"/>
        <pt x="321" y="1636" on="0"/>
        <pt x="470" y="1657" on="0"/>
        <pt x="549" y="1657" on="1"/>
        <pt x="727" y="1657" on="0"/>
        <pt x="995" y="1541" on="0"/>
        <pt x="1175" y="1325" on="0"/>
        <pt x="1266" y="1015" on="0"/>
      </contour>
    </TTGlyph>
    <TTGlyph name="afii10048" xMin="158" yMin="-28" xMax="2227" yMax="1657">
      <contour>
        <pt x="755" y="948" on="1"/>
        <pt x="762" y="1037" on="0"/>
        <pt x="802" y="1211" on="0"/>
        <pt x="876" y="1369" on="0"/>
        <pt x="989" y="1503" on="0"/>
        <pt x="1148" y="1601" on="0"/>
        <pt x="1356" y="1657" on="0"/>
        <pt x="1490" y="1657" on="1"/>
        <pt x="1636" y="1657" on="0"/>
        <pt x="1858" y="1589" on="0"/>
        <pt x="2022" y="1470" on="0"/>
        <pt x="2132" y="1309" on="0"/>
        <pt x="2199" y="1122" on="0"/>
        <pt x="2227" y="917" on="0"/>
        <pt x="2227" y="815" on="1"/>
        <pt x="2227" y="720" on="0"/>
        <pt x="2202" y="520" on="0"/>
        <pt x="2139" y="333" on="0"/>
        <pt x="2033" y="167" on="0"/>
        <pt x="1869" y="44" on="0"/>
        <pt x="1641" y="-28" on="0"/>
        <pt x="1489" y="-28" on="1"/>
        <pt x="1370" y="-28" on="0"/>
        <pt x="1181" y="16" on="0"/>
        <pt x="1035" y="91" on="0"/>
        <pt x="928" y="193" on="0"/>
        <pt x="852" y="308" on="0"/>
        <pt x="803" y="431" on="0"/>
        <pt x="772" y="551" on="0"/>
        <pt x="756" y="660" on="0"/>
        <pt x="752" y="704" on="1"/>
        <pt x="557" y="704" on="1"/>
        <pt x="557" y="0" on="1"/>
        <pt x="158" y="0" on="1"/>
        <pt x="158" y="1630" on="1"/>
        <pt x="557" y="1630" on="1"/>
        <pt x="557" y="948" on="1"/>
      </contour>
      <contour>
        <pt x="1829" y="813" on="1"/>
        <pt x="1829" y="882" on="0"/>
        <pt x="1818" y="1018" on="0"/>
        <pt x="1790" y="1142" on="0"/>
        <pt x="1742" y="1248" on="0"/>
        <pt x="1666" y="1327" on="0"/>
        <pt x="1560" y="1371" on="0"/>
        <pt x="1489" y="1371" on="1"/>
        <pt x="1386" y="1371" on="0"/>
        <pt x="1254" y="1281" on="0"/>
        <pt x="1177" y="1128" on="0"/>
        <pt x="1147" y="925" on="0"/>
        <pt x="1147" y="812" on="1"/>
        <pt x="1147" y="745" on="0"/>
        <pt x="1158" y="611" on="0"/>
        <pt x="1187" y="488" on="0"/>
        <pt x="1236" y="382" on="0"/>
        <pt x="1312" y="303" on="0"/>
        <pt x="1418" y="258" on="0"/>
        <pt x="1489" y="258" on="1"/>
        <pt x="1567" y="258" on="0"/>
        <pt x="1679" y="311" on="0"/>
        <pt x="1754" y="399" on="0"/>
        <pt x="1799" y="513" on="0"/>
        <pt x="1822" y="637" on="0"/>
        <pt x="1829" y="760" on="0"/>
      </contour>
    </TTGlyph>
    <TTGlyph name="afii10049" xMin="122" yMin="0" xMax="1399" yMax="1630">
      <contour>
        <pt x="622" y="811" on="1"/>
        <pt x="516" y="818" on="0"/>
        <pt x="337" y="863" on="0"/>
        <pt x="208" y="955" on="0"/>
        <pt x="135" y="1103" on="0"/>
        <pt x="135" y="1213" on="1"/>
        <pt x="135" y="1280" on="0"/>
        <pt x="166" y="1394" on="0"/>
        <pt x="239" y="1487" on="0"/>
        <pt x="362" y="1558" on="0"/>
        <pt x="546" y="1606" on="0"/>
        <pt x="797" y="1630" on="0"/>
        <pt x="963" y="1630" on="1"/>
        <pt x="1399" y="1630" on="1"/>
        <pt x="1399" y="0" on="1"/>
        <pt x="1001" y="0" on="1"/>
        <pt x="1001" y="692" on="1"/>
        <pt x="886" y="692" on="1"/>
        <pt x="799" y="692" on="0"/>
        <pt x="662" y="667" on="0"/>
        <pt x="567" y="606" on="0"/>
        <pt x="517" y="501" on="0"/>
        <pt x="517" y="420" on="1"/>
        <pt x="517" y="0" on="1"/>
        <pt x="122" y="0" on="1"/>
        <pt x="122" y="393" on="1"/>
        <pt x="122" y="502" on="0"/>
        <pt x="196" y="652" on="0"/>
        <pt x="329" y="748" on="0"/>
        <pt x="513" y="800" on="0"/>
      </contour>
      <contour>
        <pt x="1001" y="932" on="1"/>
        <pt x="1001" y="1380" on="1"/>
        <pt x="923" y="1380" on="1"/>
        <pt x="815" y="1380" on="0"/>
        <pt x="667" y="1362" on="0"/>
        <pt x="575" y="1315" on="0"/>
        <pt x="535" y="1231" on="0"/>
        <pt x="535" y="1165" on="1"/>
        <pt x="535" y="1094" on="0"/>
        <pt x="585" y="1004" on="0"/>
        <pt x="692" y="952" on="0"/>
        <pt x="856" y="932" on="0"/>
        <pt x="970" y="932" on="1"/>
      </contour>
    </TTGlyph>
    <TTGlyph name="afii10051" xMin="-18" yMin="-296" xMax="1542" yMax="1630">
      <contour>
        <pt x="932" y="-38" on="1"/>
        <pt x="943" y="-40" on="0"/>
        <pt x="967" y="-45" on="0"/>
        <pt x="984" y="-48" on="1"/>
        <pt x="1078" y="-48" on="0"/>
        <pt x="1166" y="65" on="0"/>
        <pt x="1166" y="170" on="1"/>
        <pt x="1166" y="209" on="0"/>
        <pt x="1164" y="286" on="0"/>
        <pt x="1164" y="324" on="1"/>
        <pt x="1164" y="773" on="1"/>
        <pt x="1164" y="870" on="0"/>
        <pt x="1080" y="985" on="0"/>
        <pt x="991" y="985" on="1"/>
        <pt x="958" y="985" on="0"/>
        <pt x="910" y="980" on="0"/>
        <pt x="868" y="965" on="0"/>
        <pt x="826" y="937" on="0"/>
        <pt x="798" y="914" on="1"/>
        <pt x="798" y="0" on="1"/>
        <pt x="399" y="0" on="1"/>
        <pt x="399" y="1379" on="1"/>
        <pt x="-18" y="1379" on="1"/>
        <pt x="-18" y="1630" on="1"/>
        <pt x="1207" y="1630" on="1"/>
        <pt x="1207" y="1379" on="1"/>
        <pt x="798" y="1379" on="1"/>
        <pt x="798" y="1098" on="1"/>
        <pt x="806" y="1118" on="0"/>
        <pt x="860" y="1166" on="0"/>
        <pt x="945" y="1208" on="0"/>
        <pt x="1060" y="1236" on="0"/>
        <pt x="1128" y="1236" on="1"/>
        <pt x="1223" y="1236" on="0"/>
        <pt x="1376" y="1175" on="0"/>
        <pt x="1484" y="1053" on="0"/>
        <pt x="1542" y="869" on="0"/>
        <pt x="1542" y="747" on="1"/>
        <pt x="1542" y="191" on="1"/>
        <pt x="1542" y="68" on="0"/>
        <pt x="1486" y="-114" on="0"/>
        <pt x="1382" y="-236" on="0"/>
        <pt x="1234" y="-296" on="0"/>
        <pt x="1141" y="-296" on="1"/>
        <pt x="1069" y="-296" on="0"/>
        <pt x="955" y="-272" on="0"/>
        <pt x="909" y="-246" on="1"/>
      </contour>
    </TTGlyph>
    <TTGlyph name="afii10052" xMin="158" yMin="0" xMax="1105" yMax="2369">
      <contour>
        <pt x="634" y="1758" on="1"/>
        <pt x="793" y="2369" on="1"/>
        <pt x="1025" y="2278" on="1"/>
        <pt x="691" y="1732" on="1"/>
      </contour>
      <contour>
        <pt x="557" y="1380" on="1"/>
        <pt x="557" y="0" on="1"/>
        <pt x="158" y="0" on="1"/>
        <pt x="158" y="1630" on="1"/>
        <pt x="1105" y="1630" on="1"/>
        <pt x="1105" y="1380" on="1"/>
      </contour>
    </TTGlyph>
    <TTGlyph name="afii10053" xMin="106" yMin="-28" xMax="1320" yMax="1657">
      <contour>
        <pt x="106" y="821" on="1"/>
        <pt x="106" y="1015" on="0"/>
        <pt x="197" y="1325" on="0"/>
        <pt x="377" y="1541" on="0"/>
        <pt x="646" y="1657" on="0"/>
        <pt x="824" y="1657" on="1"/>
        <pt x="907" y="1657" on="0"/>
        <pt x="1063" y="1634" on="0"/>
        <pt x="1194" y="1597" on="0"/>
        <pt x="1293" y="1553" on="0"/>
        <pt x="1320" y="1532" on="1"/>
        <pt x="1211" y="1252" on="1"/>
        <pt x="1119" y="1316" on="0"/>
        <pt x="948" y="1370" on="0"/>
        <pt x="854" y="1370" on="1"/>
        <pt x="765" y="1370" on="0"/>
        <pt x="641" y="1309" on="0"/>
        <pt x="560" y="1200" on="0"/>
        <pt x="517" y="1049" on="0"/>
        <pt x="508" y="959" on="1"/>
        <pt x="1062" y="959" on="1"/>
        <pt x="1062" y="714" on="1"/>
        <pt x="505" y="714" on="1"/>
        <pt x="533" y="258" on="0"/>
        <pt x="865" y="258" on="1"/>
        <pt x="1054" y="258" on="0"/>
        <pt x="1210" y="371" on="1"/>
        <pt x="1317" y="92" on="1"/>
        <pt x="1290" y="67" on="0"/>
        <pt x="1187" y="24" on="0"/>
        <pt x="1054" y="-9" on="0"/>
        <pt x="902" y="-28" on="0"/>
        <pt x="825" y="-28" on="1"/>
        <pt x="646" y="-28" on="0"/>
        <pt x="377" y="94" on="0"/>
        <pt x="197" y="316" on="0"/>
        <pt x="106" y="629" on="0"/>
      </contour>
    </TTGlyph>
    <TTGlyph name="afii10054" xMin="90" yMin="-28" xMax="1308" yMax="1657">
      <component glyphName="S" x="0" y="0" flags="0x1204"/>
    </TTGlyph>
    <TTGlyph name="afii10055" xMin="78" yMin="0" xMax="824" yMax="1630">
      <component glyphName="I" x="1" y="0" flags="0x1004"/>
    </TTGlyph>
    <TTGlyph name="afii10056" xMin="-111" yMin="0" xMax="1018" yMax="2161">
      <contour>
        <pt x="-111" y="1953" on="1"/>
        <pt x="-111" y="1997" on="0"/>
        <pt x="-79" y="2073" on="0"/>
        <pt x="-23" y="2129" on="0"/>
        <pt x="52" y="2161" on="0"/>
        <pt x="96" y="2161" on="1"/>
        <pt x="139" y="2161" on="0"/>
        <pt x="217" y="2129" on="0"/>
        <pt x="274" y="2072" on="0"/>
        <pt x="308" y="1996" on="0"/>
        <pt x="308" y="1953" on="1"/>
        <pt x="308" y="1909" on="0"/>
        <pt x="274" y="1833" on="0"/>
        <pt x="217" y="1776" on="0"/>
        <pt x="140" y="1744" on="0"/>
        <pt x="97" y="1744" on="1"/>
        <pt x="51" y="1744" on="0"/>
        <pt x="-25" y="1777" on="0"/>
        <pt x="-80" y="1833" on="0"/>
        <pt x="-111" y="1909" on="0"/>
      </contour>
      <contour>
        <pt x="599" y="1953" on="1"/>
        <pt x="599" y="1997" on="0"/>
        <pt x="631" y="2073" on="0"/>
        <pt x="687" y="2129" on="0"/>
        <pt x="763" y="2161" on="0"/>
        <pt x="806" y="2161" on="1"/>
        <pt x="849" y="2161" on="0"/>
        <pt x="927" y="2129" on="0"/>
        <pt x="984" y="2072" on="0"/>
        <pt x="1018" y="1996" on="0"/>
        <pt x="1018" y="1953" on="1"/>
        <pt x="1018" y="1909" on="0"/>
        <pt x="984" y="1833" on="0"/>
        <pt x="927" y="1776" on="0"/>
        <pt x="850" y="1744" on="0"/>
        <pt x="807" y="1744" on="1"/>
        <pt x="761" y="1744" on="0"/>
        <pt x="685" y="1777" on="0"/>
        <pt x="630" y="1833" on="0"/>
        <pt x="599" y="1909" on="0"/>
      </contour>
      <contour>
        <pt x="251" y="181" on="1"/>
        <pt x="251" y="1448" on="1"/>
        <pt x="79" y="1448" on="1"/>
        <pt x="79" y="1630" on="1"/>
        <pt x="825" y="1630" on="1"/>
        <pt x="825" y="1448" on="1"/>
        <pt x="650" y="1448" on="1"/>
        <pt x="650" y="181" on="1"/>
        <pt x="825" y="181" on="1"/>
        <pt x="825" y="0" on="1"/>
        <pt x="79" y="0" on="1"/>
        <pt x="79" y="181" on="1"/>
      </contour>
    </TTGlyph>
    <TTGlyph name="afii10057" xMin="30" yMin="-89" xMax="756" yMax="1630">
      <component glyphName="J" x="0" y="0" flags="0x1004"/>
    </TTGlyph>
    <TTGlyph name="afii10058" xMin="41" yMin="0" xMax="2493" yMax="1629">
      <contour>
        <pt x="2094" y="551" on="1"/>
        <pt x="2094" y="636" on="0"/>
        <pt x="2027" y="746" on="0"/>
        <pt x="1916" y="809" on="0"/>
        <pt x="1770" y="833" on="0"/>
        <pt x="1692" y="833" on="1"/>
        <pt x="1639" y="833" on="1"/>
        <pt x="1639" y="251" on="1"/>
        <pt x="1721" y="251" on="1"/>
        <pt x="1810" y="251" on="0"/>
        <pt x="1949" y="279" on="0"/>
        <pt x="2044" y="347" on="0"/>
        <pt x="2094" y="463" on="0"/>
      </contour>
      <contour>
        <pt x="1241" y="0" on="1"/>
        <pt x="1241" y="1380" on="1"/>
        <pt x="707" y="1380" on="1"/>
        <pt x="710" y="847" on="1"/>
        <pt x="710" y="733" on="0"/>
        <pt x="689" y="520" on="0"/>
        <pt x="635" y="332" on="0"/>
        <pt x="540" y="176" on="0"/>
        <pt x="391" y="64" on="0"/>
        <pt x="182" y="2" on="0"/>
        <pt x="41" y="2" on="1"/>
        <pt x="41" y="372" on="1"/>
        <pt x="135" y="372" on="0"/>
        <pt x="243" y="440" on="0"/>
        <pt x="298" y="555" on="0"/>
        <pt x="313" y="705" on="0"/>
        <pt x="313" y="788" on="1"/>
        <pt x="313" y="827" on="1"/>
        <pt x="308" y="1629" on="1"/>
        <pt x="1639" y="1629" on="1"/>
        <pt x="1639" y="1069" on="1"/>
        <pt x="1694" y="1069" on="1"/>
        <pt x="1874" y="1069" on="0"/>
        <pt x="2169" y="1024" on="0"/>
        <pt x="2379" y="907" on="0"/>
        <pt x="2493" y="706" on="0"/>
        <pt x="2493" y="549" on="1"/>
        <pt x="2493" y="439" on="0"/>
        <pt x="2441" y="272" on="0"/>
        <pt x="2345" y="150" on="0"/>
        <pt x="2207" y="69" on="0"/>
        <pt x="2036" y="20" on="0"/>
        <pt x="1834" y="0" on="0"/>
        <pt x="1722" y="0" on="1"/>
        <pt x="1620" y="0" on="1"/>
      </contour>
    </TTGlyph>
    <TTGlyph name="afii10059" xMin="158" yMin="0" xMax="2356" yMax="1630">
      <contour>
        <pt x="1957" y="551" on="1"/>
        <pt x="1957" y="636" on="0"/>
        <pt x="1890" y="746" on="0"/>
        <pt x="1779" y="809" on="0"/>
        <pt x="1634" y="833" on="0"/>
        <pt x="1555" y="833" on="1"/>
        <pt x="1504" y="833" on="1"/>
        <pt x="1504" y="251" on="1"/>
        <pt x="1585" y="251" on="1"/>
        <pt x="1674" y="251" on="0"/>
        <pt x="1813" y="279" on="0"/>
        <pt x="1908" y="347" on="0"/>
        <pt x="1957" y="463" on="0"/>
      </contour>
      <contour>
        <pt x="1104" y="721" on="1"/>
        <pt x="557" y="721" on="1"/>
        <pt x="557" y="0" on="1"/>
        <pt x="158" y="0" on="1"/>
        <pt x="158" y="1630" on="1"/>
        <pt x="557" y="1630" on="1"/>
        <pt x="557" y="966" on="1"/>
        <pt x="1104" y="966" on="1"/>
        <pt x="1104" y="1630" on="1"/>
        <pt x="1504" y="1630" on="1"/>
        <pt x="1504" y="1069" on="1"/>
        <pt x="1557" y="1069" on="1"/>
        <pt x="1738" y="1069" on="0"/>
        <pt x="2033" y="1024" on="0"/>
        <pt x="2242" y="907" on="0"/>
        <pt x="2356" y="706" on="0"/>
        <pt x="2356" y="549" on="1"/>
        <pt x="2356" y="384" on="0"/>
        <pt x="2241" y="171" on="0"/>
        <pt x="2037" y="48" on="0"/>
        <pt x="1754" y="0" on="0"/>
        <pt x="1586" y="0" on="1"/>
        <pt x="1104" y="0" on="1"/>
      </contour>
    </TTGlyph>
    <TTGlyph name="afii10060" xMin="6" yMin="0" xMax="1533" yMax="1630">
      <contour>
        <pt x="792" y="0" on="1"/>
        <pt x="390" y="0" on="1"/>
        <pt x="390" y="1380" on="1"/>
        <pt x="6" y="1380" on="1"/>
        <pt x="6" y="1630" on="1"/>
        <pt x="1233" y="1630" on="1"/>
        <pt x="1233" y="1380" on="1"/>
        <pt x="789" y="1380" on="1"/>
        <pt x="789" y="1065" on="1"/>
        <pt x="1123" y="1065" on="1"/>
        <pt x="1217" y="1065" on="0"/>
        <pt x="1368" y="1002" on="0"/>
        <pt x="1475" y="879" on="0"/>
        <pt x="1533" y="696" on="0"/>
        <pt x="1533" y="575" on="1"/>
        <pt x="1533" y="0" on="1"/>
        <pt x="1155" y="0" on="1"/>
        <pt x="1155" y="440" on="1"/>
        <pt x="1155" y="476" on="0"/>
        <pt x="1158" y="554" on="0"/>
        <pt x="1158" y="594" on="1"/>
        <pt x="1158" y="646" on="0"/>
        <pt x="1133" y="728" on="0"/>
        <pt x="1090" y="784" on="0"/>
        <pt x="1030" y="813" on="0"/>
        <pt x="996" y="813" on="1"/>
        <pt x="792" y="813" on="1"/>
      </contour>
    </TTGlyph>
    <TTGlyph name="afii10061" xMin="158" yMin="0" xMax="1548" yMax="2385">
      <contour>
        <pt x="557" y="0" on="1"/>
        <pt x="158" y="0" on="1"/>
        <pt x="158" y="1630" on="1"/>
        <pt x="557" y="1630" on="1"/>
        <pt x="557" y="935" on="1"/>
        <pt x="627" y="935" on="1"/>
        <pt x="1086" y="1630" on="1"/>
        <pt x="1493" y="1630" on="1"/>
        <pt x="1110" y="1071" on="1"/>
        <pt x="1066" y="1008" on="0"/>
        <pt x="994" y="920" on="0"/>
        <pt x="925" y="863" on="0"/>
        <pt x="853" y="831" on="0"/>
        <pt x="811" y="823" on="1"/>
        <pt x="852" y="815" on="0"/>
        <pt x="922" y="788" on="0"/>
        <pt x="990" y="740" on="0"/>
        <pt x="1059" y="664" on="0"/>
        <pt x="1100" y="609" on="1"/>
        <pt x="1548" y="0" on="1"/>
        <pt x="1132" y="0" on="1"/>
        <pt x="619" y="691" on="1"/>
        <pt x="557" y="691" on="1"/>
      </contour>
      <contour>
        <pt x="637" y="1751" on="1"/>
        <pt x="851" y="2385" on="1"/>
        <pt x="1182" y="2230" on="1"/>
        <pt x="809" y="1670" on="1"/>
      </contour>
    </TTGlyph>
    <TTGlyph name="afii10062" xMin="-68" yMin="-1" xMax="1372" yMax="2047">
      <component glyphName="uni0306" x="-39" y="354" flags="0x1004"/>
      <component glyphName="afii10037" x="6" y="0" flags="0x1004"/>
    </TTGlyph>
    <TTGlyph name="afii10065" xMin="96" yMin="-27" xMax="1170" yMax="1236">
      <component glyphName="a" x="24" y="0" flags="0x1004"/>
    </TTGlyph>
    <TTGlyph name="afii10066" xMin="72" yMin="-28" xMax="1225" yMax="1716">
      <contour>
        <pt x="451" y="603" on="1"/>
        <pt x="451" y="400" on="0"/>
        <pt x="555" y="215" on="0"/>
        <pt x="649" y="215" on="1"/>
        <pt x="846" y="215" on="0"/>
        <pt x="846" y="609" on="1"/>
        <pt x="846" y="726" on="0"/>
        <pt x="827" y="879" on="0"/>
        <pt x="788" y="969" on="0"/>
        <pt x="726" y="1005" on="0"/>
        <pt x="683" y="1005" on="1"/>
        <pt x="571" y="1005" on="0"/>
        <pt x="446" y="889" on="1"/>
        <pt x="449" y="816" on="0"/>
        <pt x="451" y="675" on="0"/>
      </contour>
      <contour>
        <pt x="650" y="-28" on="1"/>
        <pt x="587" y="-28" on="0"/>
        <pt x="452" y="-7" on="0"/>
        <pt x="324" y="52" on="0"/>
        <pt x="209" y="156" on="0"/>
        <pt x="123" y="321" on="0"/>
        <pt x="72" y="555" on="0"/>
        <pt x="72" y="715" on="1"/>
        <pt x="72" y="878" on="0"/>
        <pt x="101" y="1130" on="0"/>
        <pt x="153" y="1319" on="0"/>
        <pt x="224" y="1452" on="0"/>
        <pt x="308" y="1541" on="0"/>
        <pt x="400" y="1592" on="0"/>
        <pt x="494" y="1617" on="0"/>
        <pt x="586" y="1624" on="0"/>
        <pt x="628" y="1624" on="1"/>
        <pt x="638" y="1624" on="0"/>
        <pt x="674" y="1623" on="0"/>
        <pt x="712" y="1622" on="0"/>
        <pt x="744" y="1621" on="0"/>
        <pt x="750" y="1621" on="1"/>
        <pt x="787" y="1621" on="0"/>
        <pt x="843" y="1629" on="0"/>
        <pt x="881" y="1650" on="0"/>
        <pt x="899" y="1688" on="0"/>
        <pt x="899" y="1716" on="1"/>
        <pt x="1197" y="1716" on="1"/>
        <pt x="1197" y="1646" on="0"/>
        <pt x="1169" y="1550" on="0"/>
        <pt x="1118" y="1486" on="0"/>
        <pt x="1049" y="1452" on="0"/>
        <pt x="966" y="1436" on="0"/>
        <pt x="873" y="1433" on="0"/>
        <pt x="825" y="1433" on="1"/>
        <pt x="790" y="1433" on="1"/>
        <pt x="745" y="1433" on="0"/>
        <pt x="654" y="1429" on="0"/>
        <pt x="571" y="1410" on="0"/>
        <pt x="500" y="1370" on="0"/>
        <pt x="448" y="1298" on="0"/>
        <pt x="418" y="1189" on="0"/>
        <pt x="418" y="1111" on="1"/>
        <pt x="449" y="1144" on="0"/>
        <pt x="530" y="1195" on="0"/>
        <pt x="623" y="1229" on="0"/>
        <pt x="724" y="1246" on="0"/>
        <pt x="775" y="1246" on="1"/>
        <pt x="817" y="1246" on="0"/>
        <pt x="917" y="1225" on="0"/>
        <pt x="1017" y="1172" on="0"/>
        <pt x="1110" y="1081" on="0"/>
        <pt x="1182" y="939" on="0"/>
        <pt x="1225" y="742" on="0"/>
        <pt x="1225" y="610" on="1"/>
        <pt x="1225" y="469" on="0"/>
        <pt x="1165" y="264" on="0"/>
        <pt x="1068" y="122" on="0"/>
        <pt x="944" y="35" on="0"/>
        <pt x="816" y="-12" on="0"/>
        <pt x="695" y="-28" on="0"/>
      </contour>
    </TTGlyph>
    <TTGlyph name="afii10067" xMin="162" yMin="0" xMax="1147" yMax="1198">
      <contour>
        <pt x="616" y="256" on="1"/>
        <pt x="709" y="256" on="0"/>
        <pt x="792" y="307" on="0"/>
        <pt x="792" y="369" on="1"/>
        <pt x="792" y="398" on="0"/>
        <pt x="774" y="442" on="0"/>
        <pt x="718" y="471" on="0"/>
        <pt x="615" y="486" on="0"/>
        <pt x="530" y="488" on="1"/>
        <pt x="530" y="256" on="1"/>
      </contour>
      <contour>
        <pt x="530" y="722" on="1"/>
        <pt x="614" y="723" on="0"/>
        <pt x="717" y="734" on="0"/>
        <pt x="774" y="759" on="0"/>
        <pt x="794" y="800" on="0"/>
        <pt x="794" y="831" on="1"/>
        <pt x="794" y="895" on="0"/>
        <pt x="692" y="942" on="0"/>
        <pt x="592" y="942" on="1"/>
        <pt x="530" y="942" on="1"/>
      </contour>
      <contour>
        <pt x="162" y="1198" on="1"/>
        <pt x="664" y="1198" on="1"/>
        <pt x="768" y="1198" on="0"/>
        <pt x="945" y="1156" on="0"/>
        <pt x="1073" y="1072" on="0"/>
        <pt x="1145" y="943" on="0"/>
        <pt x="1145" y="856" on="1"/>
        <pt x="1145" y="802" on="0"/>
        <pt x="1117" y="721" on="0"/>
        <pt x="1074" y="663" on="0"/>
        <pt x="1020" y="626" on="0"/>
        <pt x="969" y="604" on="0"/>
        <pt x="925" y="596" on="0"/>
        <pt x="913" y="596" on="1"/>
        <pt x="966" y="588" on="0"/>
        <pt x="1052" y="539" on="0"/>
        <pt x="1114" y="464" on="0"/>
        <pt x="1147" y="371" on="0"/>
        <pt x="1147" y="320" on="1"/>
        <pt x="1147" y="240" on="0"/>
        <pt x="1072" y="120" on="0"/>
        <pt x="939" y="40" on="0"/>
        <pt x="756" y="0" on="0"/>
        <pt x="648" y="0" on="1"/>
        <pt x="162" y="0" on="1"/>
      </contour>
    </TTGlyph>
    <TTGlyph name="afii10068" xMin="162" yMin="0" xMax="1015" yMax="1198">
      <contour>
        <pt x="162" y="0" on="1"/>
        <pt x="162" y="1198" on="1"/>
        <pt x="1015" y="1198" on="1"/>
        <pt x="1015" y="948" on="1"/>
        <pt x="539" y="948" on="1"/>
        <pt x="539" y="0" on="1"/>
      </contour>
    </TTGlyph>
    <TTGlyph name="afii10069" xMin="29" yMin="-270" xMax="1486" yMax="1198">
      <contour>
        <pt x="29" y="253" on="1"/>
        <pt x="81" y="266" on="0"/>
        <pt x="167" y="333" on="0"/>
        <pt x="231" y="428" on="0"/>
        <pt x="274" y="547" on="0"/>
        <pt x="283" y="612" on="1"/>
        <pt x="272" y="601" on="0"/>
        <pt x="271" y="587" on="1"/>
        <pt x="295" y="741" on="0"/>
        <pt x="344" y="1044" on="0"/>
        <pt x="368" y="1198" on="1"/>
        <pt x="1304" y="1198" on="1"/>
        <pt x="1304" y="254" on="1"/>
        <pt x="1486" y="254" on="1"/>
        <pt x="1486" y="-270" on="1"/>
        <pt x="1162" y="-270" on="1"/>
        <pt x="1162" y="0" on="1"/>
        <pt x="351" y="0" on="1"/>
        <pt x="351" y="-270" on="1"/>
        <pt x="29" y="-270" on="1"/>
      </contour>
      <contour>
        <pt x="926" y="948" on="1"/>
        <pt x="668" y="948" on="1"/>
        <pt x="627" y="571" on="1"/>
        <pt x="619" y="503" on="0"/>
        <pt x="594" y="400" on="0"/>
        <pt x="564" y="323" on="0"/>
        <pt x="530" y="270" on="0"/>
        <pt x="513" y="252" on="1"/>
        <pt x="926" y="252" on="1"/>
      </contour>
    </TTGlyph>
    <TTGlyph name="afii10070" xMin="72" yMin="-27" xMax="1172" yMax="1236">
      <component glyphName="e" x="0" y="0" flags="0x1204"/>
    </TTGlyph>
    <TTGlyph name="afii10071" xMin="64" yMin="-27" xMax="1193" yMax="1720">
      <component glyphName="e" x="0" y="0" flags="0x1004"/>
      <component glyphName="dieresis" x="-35" y="1098" flags="0x1004"/>
    </TTGlyph>
    <TTGlyph name="afii10072" xMin="4" yMin="0" xMax="1913" yMax="1198">
      <contour>
        <pt x="784" y="0" on="1"/>
        <pt x="784" y="470" on="1"/>
        <pt x="704" y="470" on="1"/>
        <pt x="430" y="0" on="1"/>
        <pt x="13" y="0" on="1"/>
        <pt x="315" y="436" on="1"/>
        <pt x="358" y="498" on="0"/>
        <pt x="478" y="584" on="0"/>
        <pt x="544" y="604" on="1"/>
        <pt x="481" y="610" on="0"/>
        <pt x="360" y="697" on="0"/>
        <pt x="311" y="766" on="1"/>
        <pt x="4" y="1198" on="1"/>
        <pt x="430" y="1198" on="1"/>
        <pt x="718" y="755" on="1"/>
        <pt x="784" y="755" on="1"/>
        <pt x="784" y="1198" on="1"/>
        <pt x="1130" y="1198" on="1"/>
        <pt x="1130" y="756" on="1"/>
        <pt x="1199" y="756" on="1"/>
        <pt x="1487" y="1198" on="1"/>
        <pt x="1913" y="1198" on="1"/>
        <pt x="1606" y="766" on="1"/>
        <pt x="1556" y="697" on="0"/>
        <pt x="1435" y="610" on="0"/>
        <pt x="1373" y="604" on="1"/>
        <pt x="1404" y="594" on="0"/>
        <pt x="1468" y="562" on="0"/>
        <pt x="1528" y="518" on="0"/>
        <pt x="1581" y="466" on="0"/>
        <pt x="1602" y="436" on="1"/>
        <pt x="1905" y="1" on="1"/>
        <pt x="1489" y="1" on="1"/>
        <pt x="1212" y="470" on="1"/>
        <pt x="1130" y="470" on="1"/>
        <pt x="1130" y="0" on="1"/>
      </contour>
    </TTGlyph>
    <TTGlyph name="afii10073" xMin="184" yMin="-27" xMax="1141" yMax="1235">
      <contour>
        <pt x="345" y="734" on="1"/>
        <pt x="443" y="734" on="0"/>
        <pt x="583" y="740" on="0"/>
        <pt x="679" y="752" on="0"/>
        <pt x="736" y="773" on="0"/>
        <pt x="767" y="804" on="0"/>
        <pt x="776" y="844" on="0"/>
        <pt x="776" y="871" on="1"/>
        <pt x="776" y="932" on="0"/>
        <pt x="678" y="981" on="0"/>
        <pt x="566" y="981" on="1"/>
        <pt x="505" y="981" on="0"/>
        <pt x="392" y="949" on="0"/>
        <pt x="305" y="909" on="0"/>
        <pt x="253" y="875" on="0"/>
        <pt x="253" y="873" on="1"/>
        <pt x="184" y="1116" on="1"/>
        <pt x="293" y="1178" on="0"/>
        <pt x="519" y="1235" on="0"/>
        <pt x="648" y="1235" on="1"/>
        <pt x="757" y="1235" on="0"/>
        <pt x="938" y="1193" on="0"/>
        <pt x="1066" y="1108" on="0"/>
        <pt x="1137" y="980" on="0"/>
        <pt x="1137" y="894" on="1"/>
        <pt x="1137" y="832" on="0"/>
        <pt x="1104" y="742" on="0"/>
        <pt x="1054" y="679" on="0"/>
        <pt x="995" y="640" on="0"/>
        <pt x="943" y="618" on="0"/>
        <pt x="905" y="611" on="0"/>
        <pt x="901" y="611" on="1"/>
        <pt x="900" y="612" on="1"/>
        <pt x="901" y="612" on="1"/>
        <pt x="900" y="612" on="1"/>
        <pt x="900" y="612" on="0"/>
        <pt x="918" y="609" on="1"/>
        <pt x="935" y="606" on="0"/>
        <pt x="989" y="586" on="0"/>
        <pt x="1051" y="547" on="0"/>
        <pt x="1105" y="482" on="0"/>
        <pt x="1141" y="386" on="0"/>
        <pt x="1141" y="319" on="1"/>
        <pt x="1141" y="239" on="0"/>
        <pt x="1065" y="111" on="0"/>
        <pt x="928" y="21" on="0"/>
        <pt x="741" y="-27" on="0"/>
        <pt x="630" y="-27" on="1"/>
        <pt x="503" y="-27" on="0"/>
        <pt x="286" y="35" on="0"/>
        <pt x="184" y="103" on="1"/>
        <pt x="255" y="344" on="1"/>
        <pt x="283" y="323" on="0"/>
        <pt x="353" y="281" on="0"/>
        <pt x="436" y="247" on="0"/>
        <pt x="532" y="226" on="0"/>
        <pt x="586" y="226" on="1"/>
        <pt x="683" y="226" on="0"/>
        <pt x="774" y="293" on="0"/>
        <pt x="774" y="357" on="1"/>
        <pt x="774" y="399" on="0"/>
        <pt x="744" y="454" on="0"/>
        <pt x="652" y="485" on="0"/>
        <pt x="483" y="497" on="0"/>
        <pt x="345" y="497" on="1"/>
      </contour>
    </TTGlyph>
    <TTGlyph name="afii10074" xMin="162" yMin="0" xMax="1403" yMax="1199">
      <contour>
        <pt x="1403" y="0" on="1"/>
        <pt x="1034" y="0" on="1"/>
        <pt x="1034" y="720" on="1"/>
        <pt x="529" y="148" on="1"/>
        <pt x="529" y="0" on="1"/>
        <pt x="162" y="0" on="1"/>
        <pt x="162" y="1199" on="1"/>
        <pt x="529" y="1199" on="1"/>
        <pt x="529" y="599" on="1"/>
        <pt x="1041" y="1199" on="1"/>
        <pt x="1403" y="1199" on="1"/>
      </contour>
    </TTGlyph>
    <TTGlyph name="afii10075" xMin="162" yMin="0" xMax="1403" yMax="1632">
      <component glyphName="uni0306" x="94" y="-61" flags="0x1004"/>
      <component glyphName="afii10074" x="0" y="0" flags="0x1004"/>
    </TTGlyph>
    <TTGlyph name="afii10076" xMin="162" yMin="0" xMax="1359" yMax="1198">
      <contour>
        <pt x="506" y="1198" on="1"/>
        <pt x="506" y="756" on="1"/>
        <pt x="596" y="756" on="1"/>
        <pt x="934" y="1198" on="1"/>
        <pt x="1359" y="1198" on="1"/>
        <pt x="1016" y="764" on="1"/>
        <pt x="993" y="735" on="0"/>
        <pt x="926" y="679" on="0"/>
        <pt x="852" y="634" on="0"/>
        <pt x="777" y="606" on="0"/>
        <pt x="746" y="604" on="1"/>
        <pt x="775" y="596" on="0"/>
        <pt x="840" y="576" on="0"/>
        <pt x="910" y="536" on="0"/>
        <pt x="988" y="469" on="0"/>
        <pt x="1030" y="414" on="1"/>
        <pt x="1351" y="0" on="1"/>
        <pt x="934" y="0" on="1"/>
        <pt x="610" y="470" on="1"/>
        <pt x="506" y="470" on="1"/>
        <pt x="506" y="0" on="1"/>
        <pt x="162" y="0" on="1"/>
        <pt x="162" y="1198" on="1"/>
      </contour>
    </TTGlyph>
    <TTGlyph name="afii10077" xMin="5" yMin="0" xMax="1391" yMax="1198">
      <contour>
        <pt x="1391" y="0" on="1"/>
        <pt x="1014" y="0" on="1"/>
        <pt x="1014" y="948" on="1"/>
        <pt x="721" y="948" on="1"/>
        <pt x="683" y="572" on="1"/>
        <pt x="669" y="446" on="0"/>
        <pt x="594" y="236" on="0"/>
        <pt x="440" y="86" on="0"/>
        <pt x="191" y="2" on="0"/>
        <pt x="5" y="2" on="1"/>
        <pt x="5" y="328" on="1"/>
        <pt x="69" y="328" on="0"/>
        <pt x="181" y="346" on="0"/>
        <pt x="267" y="400" on="0"/>
        <pt x="323" y="497" on="0"/>
        <pt x="332" y="577" on="1"/>
        <pt x="399" y="1198" on="1"/>
        <pt x="1391" y="1198" on="1"/>
      </contour>
    </TTGlyph>
    <TTGlyph name="afii10078" xMin="162" yMin="0" xMax="1701" yMax="1198">
      <contour>
        <pt x="1701" y="1198" on="1"/>
        <pt x="1701" y="0" on="1"/>
        <pt x="1367" y="0" on="1"/>
        <pt x="1367" y="809" on="1"/>
        <pt x="1093" y="0" on="1"/>
        <pt x="757" y="0" on="1"/>
        <pt x="496" y="809" on="1"/>
        <pt x="496" y="0" on="1"/>
        <pt x="162" y="0" on="1"/>
        <pt x="162" y="1198" on="1"/>
        <pt x="663" y="1198" on="1"/>
        <pt x="931" y="412" on="1"/>
        <pt x="1200" y="1198" on="1"/>
      </contour>
    </TTGlyph>
    <TTGlyph name="afii10079" xMin="162" yMin="0" xMax="1361" yMax="1198">
      <contour>
        <pt x="535" y="744" on="1"/>
        <pt x="980" y="744" on="1"/>
        <pt x="980" y="1198" on="1"/>
        <pt x="1361" y="1198" on="1"/>
        <pt x="1361" y="0" on="1"/>
        <pt x="984" y="0" on="1"/>
        <pt x="984" y="493" on="1"/>
        <pt x="539" y="493" on="1"/>
        <pt x="539" y="0" on="1"/>
        <pt x="162" y="0" on="1"/>
        <pt x="162" y="1198" on="1"/>
        <pt x="535" y="1198" on="1"/>
      </contour>
    </TTGlyph>
    <TTGlyph name="afii10080" xMin="73" yMin="-25" xMax="1256" yMax="1237">
      <component glyphName="o" x="7" y="0" flags="0x1204"/>
    </TTGlyph>
    <TTGlyph name="afii10081" xMin="162" yMin="0" xMax="1361" yMax="1198">
      <contour>
        <pt x="1361" y="0" on="1"/>
        <pt x="984" y="0" on="1"/>
        <pt x="984" y="948" on="1"/>
        <pt x="539" y="948" on="1"/>
        <pt x="539" y="0" on="1"/>
        <pt x="162" y="0" on="1"/>
        <pt x="162" y="1198" on="1"/>
        <pt x="1361" y="1198" on="1"/>
      </contour>
    </TTGlyph>
    <TTGlyph name="afii10082" xMin="162" yMin="-411" xMax="1317" yMax="1236">
      <component glyphName="p" x="0" y="0" flags="0x1204"/>
    </TTGlyph>
    <TTGlyph name="afii10083" xMin="72" yMin="-27" xMax="1076" yMax="1236">
      <component glyphName="c" x="0" y="0" flags="0x1004"/>
    </TTGlyph>
    <TTGlyph name="afii10084" xMin="13" yMin="0" xMax="1126" yMax="1198">
      <contour>
        <pt x="1126" y="948" on="1"/>
        <pt x="759" y="948" on="1"/>
        <pt x="759" y="0" on="1"/>
        <pt x="381" y="0" on="1"/>
        <pt x="381" y="948" on="1"/>
        <pt x="13" y="948" on="1"/>
        <pt x="13" y="1198" on="1"/>
        <pt x="1126" y="1198" on="1"/>
      </contour>
    </TTGlyph>
    <TTGlyph name="afii10085" xMin="0" yMin="-484" xMax="1234" yMax="1198">
      <component glyphName="y" x="0" y="0" flags="0x1204"/>
    </TTGlyph>
    <TTGlyph name="afii10086" xMin="72" yMin="-81" xMax="1589" yMax="1271">
      <contour>
        <pt x="657" y="1271" on="1"/>
        <pt x="1005" y="1271" on="1"/>
        <pt x="1005" y="1167" on="1"/>
        <pt x="1014" y="1167" on="0"/>
        <pt x="1032" y="1171" on="0"/>
        <pt x="1041" y="1171" on="1"/>
        <pt x="1150" y="1171" on="0"/>
        <pt x="1349" y="1110" on="0"/>
        <pt x="1500" y="975" on="0"/>
        <pt x="1589" y="759" on="0"/>
        <pt x="1589" y="605" on="1"/>
        <pt x="1589" y="454" on="0"/>
        <pt x="1498" y="240" on="0"/>
        <pt x="1348" y="103" on="0"/>
        <pt x="1154" y="40" on="0"/>
        <pt x="1050" y="40" on="1"/>
        <pt x="1038" y="40" on="0"/>
        <pt x="1016" y="43" on="0"/>
        <pt x="1005" y="44" on="1"/>
        <pt x="1005" y="-81" on="1"/>
        <pt x="657" y="-81" on="1"/>
        <pt x="657" y="44" on="1"/>
        <pt x="648" y="44" on="0"/>
        <pt x="632" y="41" on="0"/>
        <pt x="623" y="40" on="1"/>
        <pt x="516" y="40" on="0"/>
        <pt x="317" y="101" on="0"/>
        <pt x="164" y="236" on="0"/>
        <pt x="72" y="451" on="0"/>
        <pt x="72" y="604" on="1"/>
        <pt x="72" y="755" on="0"/>
        <pt x="158" y="970" on="0"/>
        <pt x="305" y="1107" on="0"/>
        <pt x="499" y="1171" on="0"/>
        <pt x="608" y="1171" on="1"/>
        <pt x="621" y="1171" on="0"/>
        <pt x="644" y="1168" on="0"/>
        <pt x="657" y="1167" on="1"/>
      </contour>
      <contour>
        <pt x="657" y="917" on="1"/>
        <pt x="616" y="917" on="0"/>
        <pt x="541" y="900" on="0"/>
        <pt x="484" y="837" on="0"/>
        <pt x="451" y="713" on="0"/>
        <pt x="451" y="606" on="1"/>
        <pt x="451" y="501" on="0"/>
        <pt x="484" y="377" on="0"/>
        <pt x="541" y="312" on="0"/>
        <pt x="616" y="294" on="0"/>
        <pt x="657" y="294" on="1"/>
      </contour>
      <contour>
        <pt x="1005" y="294" on="1"/>
        <pt x="1048" y="294" on="0"/>
        <pt x="1123" y="314" on="0"/>
        <pt x="1179" y="380" on="0"/>
        <pt x="1211" y="503" on="0"/>
        <pt x="1211" y="606" on="1"/>
        <pt x="1211" y="712" on="0"/>
        <pt x="1177" y="835" on="0"/>
        <pt x="1120" y="899" on="0"/>
        <pt x="1046" y="917" on="0"/>
        <pt x="1005" y="917" on="1"/>
      </contour>
    </TTGlyph>
    <TTGlyph name="afii10087" xMin="5" yMin="0" xMax="1219" yMax="1198">
      <component glyphName="x" x="0" y="0" flags="0x1004"/>
    </TTGlyph>
    <TTGlyph name="afii10088" xMin="162" yMin="-468" xMax="1475" yMax="1198">
      <contour>
        <pt x="162" y="1198" on="1"/>
        <pt x="539" y="1198" on="1"/>
        <pt x="539" y="252" on="1"/>
        <pt x="990" y="252" on="1"/>
        <pt x="990" y="1198" on="1"/>
        <pt x="1367" y="1198" on="1"/>
        <pt x="1367" y="80" on="1"/>
        <pt x="1475" y="80" on="1"/>
        <pt x="1475" y="-468" on="1"/>
        <pt x="1134" y="-468" on="1"/>
        <pt x="1134" y="0" on="1"/>
        <pt x="162" y="0" on="1"/>
      </contour>
    </TTGlyph>
    <TTGlyph name="afii10089" xMin="134" yMin="0" xMax="1208" yMax="1198">
      <contour>
        <pt x="836" y="551" on="1"/>
        <pt x="836" y="0" on="1"/>
        <pt x="1208" y="0" on="1"/>
        <pt x="1208" y="1198" on="1"/>
        <pt x="829" y="1198" on="1"/>
        <pt x="829" y="717" on="1"/>
        <pt x="795" y="674" on="0"/>
        <pt x="714" y="624" on="0"/>
        <pt x="657" y="624" on="1"/>
        <pt x="612" y="624" on="0"/>
        <pt x="554" y="655" on="0"/>
        <pt x="520" y="711" on="0"/>
        <pt x="507" y="789" on="0"/>
        <pt x="507" y="835" on="1"/>
        <pt x="507" y="1198" on="1"/>
        <pt x="134" y="1198" on="1"/>
        <pt x="134" y="864" on="1"/>
        <pt x="134" y="620" on="0"/>
        <pt x="350" y="373" on="0"/>
        <pt x="577" y="373" on="1"/>
        <pt x="628" y="373" on="0"/>
        <pt x="804" y="459" on="0"/>
      </contour>
    </TTGlyph>
    <TTGlyph name="afii10090" xMin="162" yMin="0" xMax="1820" yMax="1198">
      <contour>
        <pt x="162" y="1198" on="1"/>
        <pt x="539" y="1198" on="1"/>
        <pt x="539" y="251" on="1"/>
        <pt x="801" y="251" on="1"/>
        <pt x="801" y="1198" on="1"/>
        <pt x="1179" y="1198" on="1"/>
        <pt x="1179" y="251" on="1"/>
        <pt x="1443" y="251" on="1"/>
        <pt x="1443" y="1198" on="1"/>
        <pt x="1820" y="1198" on="1"/>
        <pt x="1820" y="0" on="1"/>
        <pt x="162" y="0" on="1"/>
      </contour>
    </TTGlyph>
    <TTGlyph name="afii10091" xMin="162" yMin="-391" xMax="2218" yMax="1198">
      <contour>
        <pt x="2218" y="-391" on="1"/>
        <pt x="1863" y="-391" on="1"/>
        <pt x="1863" y="0" on="1"/>
        <pt x="162" y="0" on="1"/>
        <pt x="162" y="1198" on="1"/>
        <pt x="538" y="1198" on="1"/>
        <pt x="538" y="251" on="1"/>
        <pt x="903" y="251" on="1"/>
        <pt x="903" y="1198" on="1"/>
        <pt x="1281" y="1198" on="1"/>
        <pt x="1281" y="251" on="1"/>
        <pt x="1647" y="251" on="1"/>
        <pt x="1647" y="1198" on="1"/>
        <pt x="2025" y="1198" on="1"/>
        <pt x="2025" y="248" on="1"/>
        <pt x="2218" y="248" on="1"/>
      </contour>
    </TTGlyph>
    <TTGlyph name="afii10092" xMin="3" yMin="0" xMax="1435" yMax="1198">
      <contour>
        <pt x="309" y="0" on="1"/>
        <pt x="309" y="948" on="1"/>
        <pt x="3" y="948" on="1"/>
        <pt x="3" y="1198" on="1"/>
        <pt x="689" y="1198" on="1"/>
        <pt x="689" y="903" on="1"/>
        <pt x="729" y="903" on="0"/>
        <pt x="811" y="904" on="0"/>
        <pt x="853" y="904" on="1"/>
        <pt x="967" y="904" on="0"/>
        <pt x="1177" y="867" on="0"/>
        <pt x="1339" y="769" on="0"/>
        <pt x="1435" y="601" on="0"/>
        <pt x="1435" y="470" on="1"/>
        <pt x="1435" y="354" on="0"/>
        <pt x="1388" y="194" on="0"/>
        <pt x="1299" y="90" on="0"/>
        <pt x="1173" y="33" on="0"/>
        <pt x="1013" y="6" on="0"/>
        <pt x="823" y="1" on="0"/>
        <pt x="716" y="0" on="1"/>
      </contour>
      <contour>
        <pt x="1058" y="444" on="1"/>
        <pt x="1058" y="521" on="0"/>
        <pt x="1021" y="609" on="0"/>
        <pt x="961" y="653" on="0"/>
        <pt x="887" y="664" on="0"/>
        <pt x="850" y="664" on="1"/>
        <pt x="689" y="664" on="1"/>
        <pt x="689" y="236" on="1"/>
        <pt x="744" y="236" on="1"/>
        <pt x="770" y="236" on="0"/>
        <pt x="822" y="234" on="0"/>
        <pt x="848" y="234" on="1"/>
        <pt x="889" y="234" on="0"/>
        <pt x="965" y="247" on="0"/>
        <pt x="1023" y="290" on="0"/>
        <pt x="1058" y="373" on="0"/>
      </contour>
    </TTGlyph>
    <TTGlyph name="afii10093" xMin="162" yMin="0" xMax="1959" yMax="1198">
      <contour>
        <pt x="1580" y="0" on="1"/>
        <pt x="1580" y="1198" on="1"/>
        <pt x="1959" y="1198" on="1"/>
        <pt x="1959" y="0" on="1"/>
      </contour>
      <contour>
        <pt x="909" y="444" on="1"/>
        <pt x="909" y="524" on="0"/>
        <pt x="869" y="613" on="0"/>
        <pt x="806" y="657" on="0"/>
        <pt x="728" y="666" on="0"/>
        <pt x="690" y="666" on="1"/>
        <pt x="682" y="666" on="0"/>
        <pt x="633" y="665" on="0"/>
        <pt x="607" y="665" on="1"/>
        <pt x="540" y="665" on="1"/>
        <pt x="540" y="238" on="1"/>
        <pt x="545" y="238" on="1"/>
        <pt x="555" y="238" on="0"/>
        <pt x="601" y="238" on="0"/>
        <pt x="651" y="237" on="0"/>
        <pt x="695" y="236" on="0"/>
        <pt x="703" y="236" on="1"/>
        <pt x="739" y="236" on="0"/>
        <pt x="813" y="248" on="0"/>
        <pt x="872" y="290" on="0"/>
        <pt x="909" y="373" on="0"/>
      </contour>
      <contour>
        <pt x="162" y="0" on="1"/>
        <pt x="162" y="1194" on="1"/>
        <pt x="540" y="1194" on="1"/>
        <pt x="540" y="903" on="1"/>
        <pt x="633" y="903" on="0"/>
        <pt x="816" y="897" on="0"/>
        <pt x="982" y="869" on="0"/>
        <pt x="1123" y="811" on="0"/>
        <pt x="1227" y="709" on="0"/>
        <pt x="1286" y="555" on="0"/>
        <pt x="1286" y="444" on="1"/>
        <pt x="1286" y="334" on="0"/>
        <pt x="1239" y="182" on="0"/>
        <pt x="1150" y="84" on="0"/>
        <pt x="1024" y="31" on="0"/>
        <pt x="864" y="6" on="0"/>
        <pt x="674" y="1" on="0"/>
        <pt x="567" y="0" on="1"/>
      </contour>
    </TTGlyph>
    <TTGlyph name="afii10094" xMin="162" yMin="0" xMax="1286" yMax="1194">
      <contour>
        <pt x="909" y="444" on="1"/>
        <pt x="909" y="524" on="0"/>
        <pt x="869" y="613" on="0"/>
        <pt x="806" y="657" on="0"/>
        <pt x="728" y="666" on="0"/>
        <pt x="690" y="666" on="1"/>
        <pt x="682" y="666" on="0"/>
        <pt x="633" y="665" on="0"/>
        <pt x="607" y="665" on="1"/>
        <pt x="540" y="665" on="1"/>
        <pt x="540" y="238" on="1"/>
        <pt x="545" y="238" on="1"/>
        <pt x="555" y="238" on="0"/>
        <pt x="601" y="238" on="0"/>
        <pt x="651" y="237" on="0"/>
        <pt x="695" y="236" on="0"/>
        <pt x="703" y="236" on="1"/>
        <pt x="739" y="236" on="0"/>
        <pt x="813" y="248" on="0"/>
        <pt x="872" y="290" on="0"/>
        <pt x="909" y="373" on="0"/>
      </contour>
      <contour>
        <pt x="162" y="0" on="1"/>
        <pt x="162" y="1194" on="1"/>
        <pt x="540" y="1194" on="1"/>
        <pt x="540" y="903" on="1"/>
        <pt x="633" y="903" on="0"/>
        <pt x="816" y="897" on="0"/>
        <pt x="982" y="869" on="0"/>
        <pt x="1123" y="811" on="0"/>
        <pt x="1227" y="709" on="0"/>
        <pt x="1286" y="555" on="0"/>
        <pt x="1286" y="444" on="1"/>
        <pt x="1286" y="334" on="0"/>
        <pt x="1239" y="182" on="0"/>
        <pt x="1150" y="84" on="0"/>
        <pt x="1024" y="31" on="0"/>
        <pt x="864" y="6" on="0"/>
        <pt x="674" y="1" on="0"/>
        <pt x="567" y="0" on="1"/>
      </contour>
    </TTGlyph>
    <TTGlyph name="afii10095" xMin="105" yMin="-28" xMax="1108" yMax="1236">
      <contour>
        <pt x="489" y="-28" on="1"/>
        <pt x="436" y="-28" on="0"/>
        <pt x="345" y="-17" on="0"/>
        <pt x="255" y="7" on="0"/>
        <pt x="161" y="46" on="0"/>
        <pt x="106" y="75" on="1"/>
        <pt x="174" y="317" on="1"/>
        <pt x="175" y="317" on="0"/>
        <pt x="214" y="289" on="0"/>
        <pt x="280" y="255" on="0"/>
        <pt x="369" y="227" on="0"/>
        <pt x="421" y="227" on="1"/>
        <pt x="553" y="227" on="0"/>
        <pt x="699" y="358" on="0"/>
        <pt x="720" y="492" on="1"/>
        <pt x="405" y="492" on="1"/>
        <pt x="405" y="706" on="1"/>
        <pt x="724" y="706" on="1"/>
        <pt x="716" y="789" on="0"/>
        <pt x="673" y="897" on="0"/>
        <pt x="605" y="959" on="0"/>
        <pt x="511" y="983" on="0"/>
        <pt x="452" y="983" on="1"/>
        <pt x="412" y="983" on="0"/>
        <pt x="322" y="963" on="0"/>
        <pt x="243" y="934" on="0"/>
        <pt x="183" y="903" on="0"/>
        <pt x="173" y="893" on="1"/>
        <pt x="105" y="1135" on="1"/>
        <pt x="172" y="1169" on="0"/>
        <pt x="279" y="1210" on="0"/>
        <pt x="375" y="1230" on="0"/>
        <pt x="467" y="1236" on="0"/>
        <pt x="519" y="1236" on="1"/>
        <pt x="667" y="1236" on="0"/>
        <pt x="888" y="1133" on="0"/>
        <pt x="1035" y="957" on="0"/>
        <pt x="1108" y="722" on="0"/>
        <pt x="1108" y="590" on="1"/>
        <pt x="1108" y="532" on="0"/>
        <pt x="1088" y="396" on="0"/>
        <pt x="1036" y="258" on="0"/>
        <pt x="947" y="130" on="0"/>
        <pt x="809" y="31" on="0"/>
        <pt x="617" y="-28" on="0"/>
      </contour>
    </TTGlyph>
    <TTGlyph name="afii10096" xMin="162" yMin="-28" xMax="1854" yMax="1236">
      <contour>
        <pt x="1263" y="224" on="1"/>
        <pt x="1372" y="224" on="0"/>
        <pt x="1478" y="405" on="0"/>
        <pt x="1478" y="604" on="1"/>
        <pt x="1478" y="803" on="0"/>
        <pt x="1371" y="983" on="0"/>
        <pt x="1264" y="983" on="1"/>
        <pt x="1154" y="983" on="0"/>
        <pt x="1049" y="803" on="0"/>
        <pt x="1049" y="604" on="1"/>
        <pt x="1049" y="565" on="0"/>
        <pt x="1053" y="478" on="0"/>
        <pt x="1067" y="393" on="0"/>
        <pt x="1095" y="317" on="0"/>
        <pt x="1142" y="258" on="0"/>
        <pt x="1213" y="224" on="0"/>
      </contour>
      <contour>
        <pt x="1854" y="600" on="1"/>
        <pt x="1854" y="451" on="0"/>
        <pt x="1777" y="218" on="0"/>
        <pt x="1627" y="57" on="0"/>
        <pt x="1406" y="-28" on="0"/>
        <pt x="1262" y="-28" on="1"/>
        <pt x="1133" y="-28" on="0"/>
        <pt x="927" y="42" on="0"/>
        <pt x="778" y="176" on="0"/>
        <pt x="689" y="371" on="0"/>
        <pt x="676" y="496" on="1"/>
        <pt x="539" y="496" on="1"/>
        <pt x="539" y="0" on="1"/>
        <pt x="162" y="0" on="1"/>
        <pt x="162" y="1198" on="1"/>
        <pt x="535" y="1198" on="1"/>
        <pt x="535" y="747" on="1"/>
        <pt x="680" y="747" on="1"/>
        <pt x="698" y="865" on="0"/>
        <pt x="792" y="1047" on="0"/>
        <pt x="941" y="1172" on="0"/>
        <pt x="1140" y="1236" on="0"/>
        <pt x="1263" y="1236" on="1"/>
        <pt x="1402" y="1236" on="0"/>
        <pt x="1622" y="1152" on="0"/>
        <pt x="1774" y="990" on="0"/>
        <pt x="1854" y="753" on="0"/>
      </contour>
    </TTGlyph>
    <TTGlyph name="afii10097" xMin="107" yMin="0" xMax="1256" yMax="1195">
      <contour>
        <pt x="1256" y="1195" on="1"/>
        <pt x="1256" y="0" on="1"/>
        <pt x="877" y="0" on="1"/>
        <pt x="877" y="371" on="1"/>
        <pt x="840" y="371" on="0"/>
        <pt x="765" y="371" on="0"/>
        <pt x="727" y="370" on="1"/>
        <pt x="547" y="0" on="1"/>
        <pt x="107" y="0" on="1"/>
        <pt x="371" y="417" on="1"/>
        <pt x="256" y="458" on="0"/>
        <pt x="131" y="632" on="0"/>
        <pt x="131" y="784" on="1"/>
        <pt x="131" y="908" on="0"/>
        <pt x="206" y="1068" on="0"/>
        <pt x="376" y="1160" on="0"/>
        <pt x="651" y="1195" on="0"/>
        <pt x="852" y="1195" on="1"/>
      </contour>
      <contour>
        <pt x="508" y="784" on="1"/>
        <pt x="508" y="725" on="0"/>
        <pt x="543" y="656" on="0"/>
        <pt x="606" y="620" on="0"/>
        <pt x="693" y="609" on="0"/>
        <pt x="745" y="609" on="1"/>
        <pt x="776" y="609" on="0"/>
        <pt x="842" y="611" on="0"/>
        <pt x="877" y="611" on="1"/>
        <pt x="877" y="953" on="1"/>
        <pt x="756" y="953" on="1"/>
        <pt x="725" y="953" on="0"/>
        <pt x="640" y="949" on="0"/>
        <pt x="562" y="918" on="0"/>
        <pt x="508" y="849" on="0"/>
      </contour>
    </TTGlyph>
    <TTGlyph name="afii10099" xMin="-3" yMin="-476" xMax="1279" yMax="1796">
      <contour>
        <pt x="534" y="1630" on="1"/>
        <pt x="1024" y="1630" on="1"/>
        <pt x="1024" y="1451" on="1"/>
        <pt x="534" y="1451" on="1"/>
        <pt x="534" y="1099" on="1"/>
        <pt x="581" y="1163" on="0"/>
        <pt x="747" y="1236" on="0"/>
        <pt x="850" y="1236" on="1"/>
        <pt x="962" y="1236" on="0"/>
        <pt x="1124" y="1159" on="0"/>
        <pt x="1229" y="1027" on="0"/>
        <pt x="1279" y="849" on="0"/>
        <pt x="1279" y="747" on="1"/>
        <pt x="1279" y="326" on="1"/>
        <pt x="1279" y="159" on="0"/>
        <pt x="1252" y="-91" on="0"/>
        <pt x="1196" y="-269" on="0"/>
        <pt x="1114" y="-384" on="0"/>
        <pt x="1002" y="-450" on="0"/>
        <pt x="863" y="-476" on="0"/>
        <pt x="779" y="-476" on="1"/>
        <pt x="747" y="-476" on="1"/>
        <pt x="687" y="-179" on="1"/>
        <pt x="750" y="-179" on="0"/>
        <pt x="833" y="-144" on="0"/>
        <pt x="882" y="-39" on="0"/>
        <pt x="901" y="156" on="0"/>
        <pt x="901" y="315" on="1"/>
        <pt x="901" y="773" on="1"/>
        <pt x="901" y="826" on="0"/>
        <pt x="874" y="905" on="0"/>
        <pt x="829" y="958" on="0"/>
        <pt x="770" y="985" on="0"/>
        <pt x="739" y="985" on="1"/>
        <pt x="687" y="985" on="0"/>
        <pt x="610" y="962" on="0"/>
        <pt x="559" y="935" on="0"/>
        <pt x="546" y="924" on="1"/>
        <pt x="534" y="913" on="1"/>
        <pt x="534" y="0" on="1"/>
        <pt x="157" y="0" on="1"/>
        <pt x="157" y="1451" on="1"/>
        <pt x="-3" y="1451" on="1"/>
        <pt x="-3" y="1630" on="1"/>
        <pt x="157" y="1630" on="1"/>
        <pt x="157" y="1732" on="1"/>
        <pt x="534" y="1796" on="1"/>
      </contour>
    </TTGlyph>
    <TTGlyph name="afii10100" xMin="162" yMin="0" xMax="1015" yMax="2061">
      <contour>
        <pt x="162" y="0" on="1"/>
        <pt x="162" y="1198" on="1"/>
        <pt x="1015" y="1198" on="1"/>
        <pt x="1015" y="948" on="1"/>
        <pt x="539" y="948" on="1"/>
        <pt x="539" y="0" on="1"/>
      </contour>
      <contour>
        <pt x="390" y="1427" on="1"/>
        <pt x="604" y="2061" on="1"/>
        <pt x="935" y="1905" on="1"/>
        <pt x="562" y="1346" on="1"/>
      </contour>
    </TTGlyph>
    <TTGlyph name="afii10101" xMin="73" yMin="-28" xMax="1076" yMax="1236">
      <contour>
        <pt x="692" y="-28" on="1"/>
        <pt x="745" y="-28" on="0"/>
        <pt x="836" y="-17" on="0"/>
        <pt x="926" y="7" on="0"/>
        <pt x="1020" y="46" on="0"/>
        <pt x="1075" y="75" on="1"/>
        <pt x="1007" y="317" on="1"/>
        <pt x="1006" y="317" on="0"/>
        <pt x="967" y="289" on="0"/>
        <pt x="901" y="255" on="0"/>
        <pt x="812" y="227" on="0"/>
        <pt x="760" y="227" on="1"/>
        <pt x="628" y="227" on="0"/>
        <pt x="482" y="358" on="0"/>
        <pt x="461" y="492" on="1"/>
        <pt x="776" y="492" on="1"/>
        <pt x="776" y="706" on="1"/>
        <pt x="457" y="706" on="1"/>
        <pt x="465" y="789" on="0"/>
        <pt x="508" y="897" on="0"/>
        <pt x="576" y="959" on="0"/>
        <pt x="670" y="983" on="0"/>
        <pt x="729" y="983" on="1"/>
        <pt x="769" y="983" on="0"/>
        <pt x="859" y="963" on="0"/>
        <pt x="938" y="934" on="0"/>
        <pt x="998" y="903" on="0"/>
        <pt x="1008" y="893" on="1"/>
        <pt x="1076" y="1135" on="1"/>
        <pt x="1009" y="1169" on="0"/>
        <pt x="902" y="1210" on="0"/>
        <pt x="806" y="1230" on="0"/>
        <pt x="714" y="1236" on="0"/>
        <pt x="662" y="1236" on="1"/>
        <pt x="514" y="1236" on="0"/>
        <pt x="293" y="1133" on="0"/>
        <pt x="146" y="957" on="0"/>
        <pt x="73" y="722" on="0"/>
        <pt x="73" y="590" on="1"/>
        <pt x="73" y="532" on="0"/>
        <pt x="93" y="396" on="0"/>
        <pt x="145" y="258" on="0"/>
        <pt x="234" y="130" on="0"/>
        <pt x="372" y="31" on="0"/>
        <pt x="564" y="-28" on="0"/>
      </contour>
    </TTGlyph>
    <TTGlyph name="afii10102" xMin="113" yMin="-27" xMax="1071" yMax="1236">
      <component glyphName="s" x="34" y="0" flags="0x1004"/>
    </TTGlyph>
    <TTGlyph name="afii10103" xMin="208" yMin="0" xMax="627" yMax="1883">
      <component glyphName="i" x="69" y="0" flags="0x1004"/>
    </TTGlyph>
    <TTGlyph name="afii10104" xMin="-185" yMin="0" xMax="944" yMax="1692">
      <component glyphName="idieresis" x="-10" y="0" flags="0x1004"/>
    </TTGlyph>
    <TTGlyph name="afii10105" xMin="-12" yMin="-357" xMax="597" yMax="1880">
      <component glyphName="j" x="0" y="0" flags="0x1004"/>
    </TTGlyph>
    <TTGlyph name="afii10106" xMin="37" yMin="0" xMax="2166" yMax="1198">
      <contour>
        <pt x="1417" y="1198" on="1"/>
        <pt x="1417" y="903" on="1"/>
        <pt x="1506" y="903" on="0"/>
        <pt x="1686" y="897" on="0"/>
        <pt x="1853" y="869" on="0"/>
        <pt x="1997" y="812" on="0"/>
        <pt x="2104" y="710" on="0"/>
        <pt x="2166" y="555" on="0"/>
        <pt x="2166" y="444" on="1"/>
        <pt x="2166" y="332" on="0"/>
        <pt x="2113" y="180" on="0"/>
        <pt x="2017" y="81" on="0"/>
        <pt x="1885" y="28" on="0"/>
        <pt x="1726" y="4" on="0"/>
        <pt x="1547" y="0" on="0"/>
        <pt x="1453" y="0" on="1"/>
        <pt x="1040" y="0" on="1"/>
        <pt x="1040" y="948" on="1"/>
        <pt x="766" y="948" on="1"/>
        <pt x="708" y="572" on="1"/>
        <pt x="695" y="489" on="0"/>
        <pt x="654" y="340" on="0"/>
        <pt x="586" y="213" on="0"/>
        <pt x="487" y="111" on="0"/>
        <pt x="346" y="40" on="0"/>
        <pt x="159" y="2" on="0"/>
        <pt x="37" y="2" on="1"/>
        <pt x="37" y="328" on="1"/>
        <pt x="99" y="328" on="0"/>
        <pt x="202" y="347" on="0"/>
        <pt x="280" y="401" on="0"/>
        <pt x="332" y="499" on="0"/>
        <pt x="342" y="577" on="1"/>
        <pt x="421" y="1198" on="1"/>
      </contour>
      <contour>
        <pt x="1788" y="444" on="1"/>
        <pt x="1788" y="520" on="0"/>
        <pt x="1752" y="608" on="0"/>
        <pt x="1693" y="652" on="0"/>
        <pt x="1619" y="663" on="0"/>
        <pt x="1582" y="663" on="1"/>
        <pt x="1540" y="663" on="0"/>
        <pt x="1459" y="662" on="0"/>
        <pt x="1418" y="662" on="1"/>
        <pt x="1418" y="236" on="1"/>
        <pt x="1477" y="236" on="1"/>
        <pt x="1500" y="236" on="0"/>
        <pt x="1548" y="233" on="0"/>
        <pt x="1574" y="233" on="1"/>
        <pt x="1614" y="233" on="0"/>
        <pt x="1691" y="246" on="0"/>
        <pt x="1751" y="290" on="0"/>
        <pt x="1788" y="373" on="0"/>
      </contour>
    </TTGlyph>
    <TTGlyph name="afii10107" xMin="162" yMin="-1" xMax="2108" yMax="1198">
      <contour>
        <pt x="1731" y="444" on="1"/>
        <pt x="1731" y="520" on="0"/>
        <pt x="1694" y="608" on="0"/>
        <pt x="1635" y="652" on="0"/>
        <pt x="1561" y="663" on="0"/>
        <pt x="1524" y="663" on="1"/>
        <pt x="1483" y="663" on="0"/>
        <pt x="1404" y="662" on="0"/>
        <pt x="1365" y="662" on="1"/>
        <pt x="1365" y="236" on="1"/>
        <pt x="1403" y="236" on="0"/>
        <pt x="1487" y="234" on="0"/>
        <pt x="1532" y="235" on="1"/>
        <pt x="1569" y="235" on="0"/>
        <pt x="1640" y="249" on="0"/>
        <pt x="1696" y="292" on="0"/>
        <pt x="1731" y="375" on="0"/>
      </contour>
      <contour>
        <pt x="535" y="744" on="1"/>
        <pt x="984" y="744" on="1"/>
        <pt x="984" y="1198" on="1"/>
        <pt x="1365" y="1198" on="1"/>
        <pt x="1365" y="903" on="1"/>
        <pt x="1465" y="903" on="0"/>
        <pt x="1652" y="900" on="0"/>
        <pt x="1818" y="876" on="0"/>
        <pt x="1955" y="822" on="0"/>
        <pt x="2053" y="720" on="0"/>
        <pt x="2108" y="561" on="0"/>
        <pt x="2108" y="444" on="1"/>
        <pt x="2108" y="339" on="0"/>
        <pt x="2052" y="192" on="0"/>
        <pt x="1952" y="93" on="0"/>
        <pt x="1817" y="36" on="0"/>
        <pt x="1659" y="7" on="0"/>
        <pt x="1485" y="-1" on="0"/>
        <pt x="1397" y="-1" on="1"/>
        <pt x="1361" y="-1" on="0"/>
        <pt x="1288" y="0" on="0"/>
        <pt x="1253" y="0" on="1"/>
        <pt x="984" y="0" on="1"/>
        <pt x="984" y="493" on="1"/>
        <pt x="538" y="493" on="1"/>
        <pt x="538" y="0" on="1"/>
        <pt x="162" y="0" on="1"/>
        <pt x="162" y="1198" on="1"/>
        <pt x="535" y="1198" on="1"/>
      </contour>
    </TTGlyph>
    <TTGlyph name="afii10108" xMin="173" yMin="0" xMax="1494" yMax="1796">
      <contour>
        <pt x="748" y="1559" on="1"/>
        <pt x="1246" y="1559" on="1"/>
        <pt x="1246" y="1353" on="1"/>
        <pt x="748" y="1353" on="1"/>
        <pt x="748" y="1099" on="1"/>
        <pt x="795" y="1163" on="0"/>
        <pt x="960" y="1236" on="0"/>
        <pt x="1063" y="1236" on="1"/>
        <pt x="1165" y="1236" on="0"/>
        <pt x="1326" y="1174" on="0"/>
        <pt x="1436" y="1051" on="0"/>
        <pt x="1494" y="868" on="0"/>
        <pt x="1494" y="747" on="1"/>
        <pt x="1494" y="0" on="1"/>
        <pt x="1115" y="0" on="1"/>
        <pt x="1115" y="773" on="1"/>
        <pt x="1115" y="824" on="0"/>
        <pt x="1088" y="903" on="0"/>
        <pt x="1043" y="957" on="0"/>
        <pt x="985" y="985" on="0"/>
        <pt x="953" y="985" on="1"/>
        <pt x="902" y="985" on="0"/>
        <pt x="824" y="962" on="0"/>
        <pt x="773" y="935" on="0"/>
        <pt x="760" y="924" on="1"/>
        <pt x="748" y="913" on="1"/>
        <pt x="748" y="0" on="1"/>
        <pt x="370" y="0" on="1"/>
        <pt x="370" y="1353" on="1"/>
        <pt x="173" y="1353" on="1"/>
        <pt x="173" y="1559" on="1"/>
        <pt x="370" y="1559" on="1"/>
        <pt x="370" y="1732" on="1"/>
        <pt x="748" y="1796" on="1"/>
      </contour>
    </TTGlyph>
    <TTGlyph name="afii10109" xMin="162" yMin="0" xMax="1359" yMax="1962">
      <contour>
        <pt x="506" y="1198" on="1"/>
        <pt x="506" y="756" on="1"/>
        <pt x="596" y="756" on="1"/>
        <pt x="934" y="1198" on="1"/>
        <pt x="1359" y="1198" on="1"/>
        <pt x="1016" y="764" on="1"/>
        <pt x="992" y="734" on="0"/>
        <pt x="925" y="678" on="0"/>
        <pt x="852" y="634" on="0"/>
        <pt x="777" y="606" on="0"/>
        <pt x="746" y="604" on="1"/>
        <pt x="775" y="596" on="0"/>
        <pt x="840" y="576" on="0"/>
        <pt x="910" y="536" on="0"/>
        <pt x="988" y="469" on="0"/>
        <pt x="1030" y="414" on="1"/>
        <pt x="1351" y="0" on="1"/>
        <pt x="934" y="0" on="1"/>
        <pt x="610" y="470" on="1"/>
        <pt x="506" y="470" on="1"/>
        <pt x="506" y="0" on="1"/>
        <pt x="162" y="0" on="1"/>
        <pt x="162" y="1198" on="1"/>
      </contour>
      <contour>
        <pt x="593" y="1328" on="1"/>
        <pt x="807" y="1962" on="1"/>
        <pt x="1138" y="1807" on="1"/>
        <pt x="765" y="1247" on="1"/>
      </contour>
    </TTGlyph>
    <TTGlyph name="afii10110" xMin="0" yMin="-484" xMax="1234" yMax="1701">
      <contour>
        <pt x="0" y="1198" on="1"/>
        <pt x="388" y="1198" on="1"/>
        <pt x="664" y="399" on="1"/>
        <pt x="852" y="1198" on="1"/>
        <pt x="1234" y="1198" on="1"/>
        <pt x="829" y="-33" on="1"/>
        <pt x="790" y="-150" on="0"/>
        <pt x="684" y="-320" on="0"/>
        <pt x="540" y="-430" on="0"/>
        <pt x="357" y="-483" on="0"/>
        <pt x="242" y="-484" on="1"/>
        <pt x="136" y="-228" on="1"/>
        <pt x="234" y="-221" on="0"/>
        <pt x="359" y="-186" on="0"/>
        <pt x="438" y="-121" on="0"/>
        <pt x="483" y="-23" on="0"/>
        <pt x="501" y="46" on="1"/>
      </contour>
      <contour>
        <pt x="977" y="1701" on="1"/>
        <pt x="977" y="1520" on="0"/>
        <pt x="797" y="1354" on="0"/>
        <pt x="617" y="1354" on="1"/>
        <pt x="438" y="1354" on="0"/>
        <pt x="257" y="1519" on="0"/>
        <pt x="257" y="1701" on="1"/>
        <pt x="483" y="1701" on="1"/>
        <pt x="483" y="1648" on="0"/>
        <pt x="495" y="1573" on="0"/>
        <pt x="526" y="1525" on="0"/>
        <pt x="578" y="1502" on="0"/>
        <pt x="617" y="1502" on="1"/>
        <pt x="656" y="1502" on="0"/>
        <pt x="709" y="1525" on="0"/>
        <pt x="740" y="1573" on="0"/>
        <pt x="753" y="1648" on="0"/>
        <pt x="753" y="1701" on="1"/>
      </contour>
    </TTGlyph>
    <TTGlyph name="afii10145" xMin="158" yMin="-366" xMax="1550" yMax="1630">
      <contour>
        <pt x="158" y="1630" on="1"/>
        <pt x="557" y="1630" on="1"/>
        <pt x="557" y="251" on="1"/>
        <pt x="1151" y="251" on="1"/>
        <pt x="1151" y="1630" on="1"/>
        <pt x="1550" y="1630" on="1"/>
        <pt x="1550" y="0" on="1"/>
        <pt x="1055" y="0" on="1"/>
        <pt x="1055" y="-366" on="1"/>
        <pt x="656" y="-366" on="1"/>
        <pt x="656" y="0" on="1"/>
        <pt x="158" y="0" on="1"/>
      </contour>
    </TTGlyph>
    <TTGlyph name="afii10193" xMin="162" yMin="-366" xMax="1360" yMax="1198">
      <contour>
        <pt x="162" y="1198" on="1"/>
        <pt x="539" y="1198" on="1"/>
        <pt x="539" y="251" on="1"/>
        <pt x="983" y="251" on="1"/>
        <pt x="983" y="1198" on="1"/>
        <pt x="1360" y="1198" on="1"/>
        <pt x="1360" y="0" on="1"/>
        <pt x="958" y="0" on="1"/>
        <pt x="958" y="-366" on="1"/>
        <pt x="558" y="-366" on="1"/>
        <pt x="558" y="0" on="1"/>
        <pt x="162" y="0" on="1"/>
      </contour>
    </TTGlyph>
    <TTGlyph name="afii61352" xMin="158" yMin="-25" xMax="2956" yMax="1630">
      <component glyphName="N" x="0" y="0" flags="0x1004"/>
      <component glyphName="o" x="1707" y="0" flags="0x1004"/>
    </TTGlyph>
    <TTGlyph name="agrave" xMin="72" yMin="-27" xMax="1146" yMax="2126">
      <component glyphName="a" x="0" y="0" flags="0x1204"/>
      <component glyphName="grave" x="200" y="1195" flags="0x1004"/>
    </TTGlyph>
    <TTGlyph name="ampersand" xMin="165" yMin="-61" xMax="1858" yMax="1681">
      <contour>
        <pt x="501" y="478" on="1"/>
        <pt x="501" y="366" on="0"/>
        <pt x="666" y="247" on="0"/>
        <pt x="847" y="247" on="1"/>
        <pt x="938" y="247" on="0"/>
        <pt x="1077" y="276" on="0"/>
        <pt x="1124" y="294" on="1"/>
        <pt x="1170" y="312" on="0"/>
        <pt x="1194" y="326" on="1"/>
        <pt x="1218" y="340" on="1"/>
        <pt x="771" y="729" on="1"/>
        <pt x="716" y="715" on="0"/>
        <pt x="618" y="674" on="0"/>
        <pt x="544" y="615" on="0"/>
        <pt x="501" y="533" on="0"/>
      </contour>
      <contour>
        <pt x="847" y="-41" on="1"/>
        <pt x="706" y="-41" on="0"/>
        <pt x="458" y="14" on="0"/>
        <pt x="273" y="132" on="0"/>
        <pt x="165" y="320" on="0"/>
        <pt x="165" y="453" on="1"/>
        <pt x="165" y="560" on="0"/>
        <pt x="230" y="712" on="0"/>
        <pt x="336" y="823" on="0"/>
        <pt x="471" y="901" on="0"/>
        <pt x="542" y="934" on="1"/>
        <pt x="542" y="933" on="1"/>
        <pt x="479" y="984" on="0"/>
        <pt x="431" y="1046" on="1"/>
        <pt x="410" y="1072" on="0"/>
        <pt x="370" y="1135" on="0"/>
        <pt x="339" y="1206" on="0"/>
        <pt x="320" y="1284" on="0"/>
        <pt x="320" y="1325" on="1"/>
        <pt x="320" y="1411" on="0"/>
        <pt x="400" y="1544" on="0"/>
        <pt x="537" y="1634" on="0"/>
        <pt x="718" y="1681" on="0"/>
        <pt x="820" y="1681" on="1"/>
        <pt x="925" y="1681" on="0"/>
        <pt x="1101" y="1631" on="0"/>
        <pt x="1227" y="1539" on="0"/>
        <pt x="1298" y="1410" on="0"/>
        <pt x="1298" y="1331" on="1"/>
        <pt x="1298" y="1256" on="0"/>
        <pt x="1265" y="1111" on="0"/>
        <pt x="1195" y="985" on="0"/>
        <pt x="1087" y="886" on="0"/>
        <pt x="1013" y="858" on="1"/>
        <pt x="1328" y="582" on="1"/>
        <pt x="1327" y="628" on="0"/>
        <pt x="1326" y="713" on="0"/>
        <pt x="1326" y="799" on="0"/>
        <pt x="1326" y="890" on="0"/>
        <pt x="1326" y="941" on="1"/>
        <pt x="1635" y="941" on="1"/>
        <pt x="1635" y="869" on="0"/>
        <pt x="1626" y="720" on="0"/>
        <pt x="1614" y="588" on="0"/>
        <pt x="1600" y="480" on="0"/>
        <pt x="1594" y="449" on="1"/>
        <pt x="1580" y="377" on="1"/>
        <pt x="1858" y="138" on="1"/>
        <pt x="1700" y="-61" on="1"/>
        <pt x="1450" y="150" on="1"/>
        <pt x="1371" y="64" on="0"/>
        <pt x="1072" y="-41" on="0"/>
      </contour>
      <contour>
        <pt x="1017" y="1287" on="1"/>
        <pt x="1017" y="1367" on="0"/>
        <pt x="920" y="1441" on="0"/>
        <pt x="831" y="1441" on="1"/>
        <pt x="642" y="1441" on="0"/>
        <pt x="642" y="1295" on="1"/>
        <pt x="642" y="1247" on="0"/>
        <pt x="681" y="1176" on="0"/>
        <pt x="707" y="1146" on="1"/>
        <pt x="724" y="1129" on="0"/>
        <pt x="768" y="1084" on="0"/>
        <pt x="794" y="1072" on="1"/>
        <pt x="840" y="1086" on="0"/>
        <pt x="921" y="1120" on="0"/>
        <pt x="982" y="1169" on="0"/>
        <pt x="1017" y="1238" on="0"/>
      </contour>
    </TTGlyph>
    <TTGlyph name="aring" xMin="72" yMin="-27" xMax="1146" yMax="2132">
      <component glyphName="a" x="0" y="0" flags="0x1204"/>
      <component glyphName="ring" x="198" y="1195" flags="0x1004"/>
    </TTGlyph>
    <TTGlyph name="asciicircum" xMin="222" yMin="587" xMax="1026" yMax="1238">
      <contour>
        <pt x="763" y="1238" on="1"/>
        <pt x="1026" y="595" on="1"/>
        <pt x="729" y="595" on="1"/>
        <pt x="623" y="992" on="1"/>
        <pt x="517" y="587" on="1"/>
        <pt x="222" y="587" on="1"/>
        <pt x="486" y="1238" on="1"/>
      </contour>
    </TTGlyph>
    <TTGlyph name="asciicircum.001" xMin="374" yMin="432" xMax="1054" yMax="1011">
      <contour>
        <pt x="666" y="1011" on="1"/>
        <pt x="762" y="1011" on="1"/>
        <pt x="1054" y="510" on="1"/>
        <pt x="926" y="432" on="1"/>
        <pt x="714" y="809" on="1"/>
        <pt x="502" y="432" on="1"/>
        <pt x="374" y="510" on="1"/>
      </contour>
    </TTGlyph>
    <TTGlyph name="asciitilde" xMin="191" yMin="200" xMax="1117" yMax="586">
      <contour>
        <pt x="874" y="200" on="1"/>
        <pt x="823" y="200" on="0"/>
        <pt x="722" y="233" on="0"/>
        <pt x="680" y="258" on="1"/>
        <pt x="655" y="273" on="0"/>
        <pt x="597" y="308" on="0"/>
        <pt x="540" y="339" on="0"/>
        <pt x="490" y="359" on="0"/>
        <pt x="472" y="359" on="1"/>
        <pt x="441" y="359" on="0"/>
        <pt x="412" y="301" on="0"/>
        <pt x="412" y="229" on="1"/>
        <pt x="191" y="229" on="1"/>
        <pt x="191" y="406" on="0"/>
        <pt x="310" y="586" on="0"/>
        <pt x="431" y="586" on="1"/>
        <pt x="477" y="586" on="0"/>
        <pt x="553" y="564" on="0"/>
        <pt x="619" y="531" on="0"/>
        <pt x="678" y="492" on="0"/>
        <pt x="734" y="459" on="0"/>
        <pt x="791" y="437" on="0"/>
        <pt x="823" y="437" on="1"/>
        <pt x="841" y="437" on="0"/>
        <pt x="864" y="445" on="0"/>
        <pt x="878" y="468" on="0"/>
        <pt x="883" y="509" on="0"/>
        <pt x="883" y="543" on="1"/>
        <pt x="1117" y="543" on="1"/>
        <pt x="1117" y="466" on="0"/>
        <pt x="1083" y="339" on="0"/>
        <pt x="1020" y="249" on="0"/>
        <pt x="930" y="200" on="0"/>
      </contour>
    </TTGlyph>
    <TTGlyph name="asterisk" xMin="60" yMin="763" xMax="991" yMax="1701">
      <contour>
        <pt x="665" y="1701" on="1"/>
        <pt x="875" y="1576" on="1"/>
        <pt x="737" y="1336" on="1"/>
        <pt x="991" y="1336" on="1"/>
        <pt x="991" y="1125" on="1"/>
        <pt x="740" y="1125" on="1"/>
        <pt x="876" y="892" on="1"/>
        <pt x="662" y="763" on="1"/>
        <pt x="535" y="985" on="1"/>
        <pt x="409" y="765" on="1"/>
        <pt x="197" y="892" on="1"/>
        <pt x="333" y="1125" on="1"/>
        <pt x="60" y="1125" on="1"/>
        <pt x="60" y="1336" on="1"/>
        <pt x="336" y="1336" on="1"/>
        <pt x="197" y="1580" on="1"/>
        <pt x="405" y="1699" on="1"/>
        <pt x="532" y="1475" on="1"/>
      </contour>
    </TTGlyph>
    <TTGlyph name="at" xMin="130" yMin="-135" xMax="1934" yMax="1590">
      <contour>
        <pt x="1002" y="-135" on="1"/>
        <pt x="808" y="-135" on="0"/>
        <pt x="488" y="-22" on="0"/>
        <pt x="257" y="187" on="0"/>
        <pt x="130" y="484" on="0"/>
        <pt x="130" y="669" on="1"/>
        <pt x="130" y="781" on="0"/>
        <pt x="181" y="1005" on="0"/>
        <pt x="284" y="1210" on="0"/>
        <pt x="443" y="1386" on="0"/>
        <pt x="658" y="1516" on="0"/>
        <pt x="931" y="1590" on="0"/>
        <pt x="1098" y="1590" on="1"/>
        <pt x="1207" y="1590" on="0"/>
        <pt x="1416" y="1544" on="0"/>
        <pt x="1602" y="1455" on="0"/>
        <pt x="1758" y="1324" on="0"/>
        <pt x="1871" y="1155" on="0"/>
        <pt x="1934" y="950" on="0"/>
        <pt x="1934" y="831" on="1"/>
        <pt x="1934" y="749" on="0"/>
        <pt x="1895" y="591" on="0"/>
        <pt x="1827" y="456" on="0"/>
        <pt x="1734" y="349" on="0"/>
        <pt x="1680" y="318" on="1"/>
        <pt x="1652" y="301" on="0"/>
        <pt x="1531" y="287" on="0"/>
        <pt x="1435" y="287" on="1"/>
        <pt x="1344" y="287" on="0"/>
        <pt x="1250" y="400" on="0"/>
        <pt x="1250" y="506" on="1"/>
        <pt x="1250" y="515" on="0"/>
        <pt x="1251" y="532" on="0"/>
        <pt x="1255" y="542" on="1"/>
        <pt x="1228" y="470" on="0"/>
        <pt x="1172" y="367" on="0"/>
        <pt x="1099" y="302" on="0"/>
        <pt x="1004" y="272" on="0"/>
        <pt x="939" y="272" on="1"/>
        <pt x="892" y="272" on="0"/>
        <pt x="795" y="292" on="0"/>
        <pt x="704" y="346" on="0"/>
        <pt x="621" y="441" on="0"/>
        <pt x="588" y="515" on="1"/>
        <pt x="554" y="589" on="0"/>
        <pt x="554" y="688" on="1"/>
        <pt x="554" y="752" on="0"/>
        <pt x="581" y="866" on="0"/>
        <pt x="627" y="962" on="0"/>
        <pt x="688" y="1042" on="0"/>
        <pt x="721" y="1073" on="1"/>
        <pt x="793" y="1140" on="0"/>
        <pt x="975" y="1207" on="0"/>
        <pt x="1082" y="1207" on="1"/>
        <pt x="1154" y="1207" on="0"/>
        <pt x="1297" y="1180" on="0"/>
        <pt x="1413" y="1126" on="0"/>
        <pt x="1485" y="1045" on="0"/>
        <pt x="1485" y="991" on="1"/>
        <pt x="1485" y="977" on="0"/>
        <pt x="1483" y="973" on="1"/>
        <pt x="1390" y="496" on="1"/>
        <pt x="1527" y="521" on="0"/>
        <pt x="1647" y="667" on="0"/>
        <pt x="1647" y="783" on="1"/>
        <pt x="1647" y="1048" on="0"/>
        <pt x="1352" y="1332" on="0"/>
        <pt x="1069" y="1332" on="1"/>
        <pt x="925" y="1332" on="0"/>
        <pt x="689" y="1233" on="0"/>
        <pt x="523" y="1057" on="0"/>
        <pt x="432" y="813" on="0"/>
        <pt x="432" y="669" on="1"/>
        <pt x="432" y="517" on="0"/>
        <pt x="526" y="304" on="0"/>
        <pt x="700" y="168" on="0"/>
        <pt x="947" y="106" on="0"/>
        <pt x="1101" y="106" on="1"/>
        <pt x="1146" y="106" on="0"/>
        <pt x="1249" y="136" on="0"/>
        <pt x="1297" y="156" on="1"/>
        <pt x="1350" y="-70" on="1"/>
        <pt x="1285" y="-102" on="0"/>
        <pt x="1102" y="-135" on="0"/>
      </contour>
      <contour>
        <pt x="1087" y="1018" on="1"/>
        <pt x="1022" y="1018" on="0"/>
        <pt x="921" y="977" on="0"/>
        <pt x="852" y="890" on="0"/>
        <pt x="816" y="755" on="0"/>
        <pt x="816" y="662" on="1"/>
        <pt x="816" y="628" on="0"/>
        <pt x="834" y="563" on="0"/>
        <pt x="868" y="512" on="0"/>
        <pt x="916" y="481" on="0"/>
        <pt x="946" y="481" on="1"/>
        <pt x="1001" y="481" on="0"/>
        <pt x="1085" y="525" on="0"/>
        <pt x="1149" y="601" on="0"/>
        <pt x="1195" y="703" on="0"/>
        <pt x="1231" y="818" on="0"/>
        <pt x="1257" y="940" on="0"/>
        <pt x="1269" y="998" on="1"/>
        <pt x="1224" y="1005" on="0"/>
        <pt x="1136" y="1018" on="0"/>
      </contour>
    </TTGlyph>
    <TTGlyph name="atilde" xMin="72" yMin="-27" xMax="1146" yMax="1794">
      <component glyphName="a" x="0" y="0" flags="0x1204"/>
      <component glyphName="tilde" x="-3" y="1195" flags="0x1004"/>
    </TTGlyph>
    <TTGlyph name="b" xMin="162" yMin="-27" xMax="1313" yMax="1793">
      <contour>
        <pt x="733" y="227" on="1"/>
        <pt x="782" y="227" on="0"/>
        <pt x="857" y="271" on="0"/>
        <pt x="908" y="363" on="0"/>
        <pt x="933" y="505" on="0"/>
        <pt x="933" y="603" on="1"/>
        <pt x="933" y="717" on="0"/>
        <pt x="914" y="865" on="0"/>
        <pt x="874" y="951" on="0"/>
        <pt x="812" y="985" on="0"/>
        <pt x="768" y="985" on="1"/>
        <pt x="711" y="985" on="0"/>
        <pt x="600" y="938" on="0"/>
        <pt x="540" y="880" on="1"/>
        <pt x="540" y="308" on="1"/>
        <pt x="583" y="260" on="0"/>
        <pt x="677" y="227" on="0"/>
      </contour>
      <contour>
        <pt x="826" y="-27" on="1"/>
        <pt x="563" y="-27" on="0"/>
        <pt x="508" y="170" on="1"/>
        <pt x="425" y="0" on="1"/>
        <pt x="162" y="0" on="1"/>
        <pt x="162" y="1743" on="1"/>
        <pt x="540" y="1793" on="1"/>
        <pt x="540" y="1098" on="1"/>
        <pt x="600" y="1167" on="0"/>
        <pt x="759" y="1236" on="0"/>
        <pt x="865" y="1236" on="1"/>
        <pt x="971" y="1236" on="0"/>
        <pt x="1138" y="1144" on="0"/>
        <pt x="1253" y="980" on="0"/>
        <pt x="1313" y="754" on="0"/>
        <pt x="1313" y="620" on="1"/>
        <pt x="1313" y="465" on="0"/>
        <pt x="1255" y="224" on="0"/>
        <pt x="1135" y="59" on="0"/>
        <pt x="952" y="-27" on="0"/>
      </contour>
    </TTGlyph>
    <TTGlyph name="backslash" xMin="176" yMin="-149" xMax="1109" yMax="1735">
      <contour>
        <pt x="1109" y="-33" on="1"/>
        <pt x="762" y="-149" on="1"/>
        <pt x="176" y="1620" on="1"/>
        <pt x="525" y="1735" on="1"/>
      </contour>
    </TTGlyph>
    <TTGlyph name="bar" xMin="264" yMin="-155" xMax="594" yMax="1719">
      <contour>
        <pt x="264" y="1719" on="1"/>
        <pt x="594" y="1719" on="1"/>
        <pt x="594" y="-155" on="1"/>
        <pt x="264" y="-155" on="1"/>
      </contour>
    </TTGlyph>
    <TTGlyph name="braceleft" xMin="154" yMin="-217" xMax="710" yMax="1544">
      <contour>
        <pt x="610" y="1002" on="1"/>
        <pt x="610" y="905" on="0"/>
        <pt x="572" y="783" on="0"/>
        <pt x="516" y="709" on="0"/>
        <pt x="453" y="674" on="0"/>
        <pt x="428" y="664" on="1"/>
        <pt x="519" y="629" on="0"/>
        <pt x="612" y="458" on="0"/>
        <pt x="612" y="324" on="1"/>
        <pt x="612" y="210" on="0"/>
        <pt x="619" y="74" on="0"/>
        <pt x="640" y="2" on="0"/>
        <pt x="678" y="-20" on="0"/>
        <pt x="710" y="-20" on="1"/>
        <pt x="710" y="-217" on="1"/>
        <pt x="662" y="-217" on="0"/>
        <pt x="558" y="-205" on="0"/>
        <pt x="457" y="-170" on="0"/>
        <pt x="366" y="-107" on="0"/>
        <pt x="298" y="-6" on="0"/>
        <pt x="257" y="138" on="0"/>
        <pt x="257" y="238" on="1"/>
        <pt x="257" y="290" on="1"/>
        <pt x="257" y="371" on="0"/>
        <pt x="246" y="477" on="0"/>
        <pt x="221" y="540" on="0"/>
        <pt x="182" y="565" on="0"/>
        <pt x="154" y="565" on="1"/>
        <pt x="154" y="761" on="1"/>
        <pt x="181" y="761" on="0"/>
        <pt x="220" y="787" on="0"/>
        <pt x="244" y="848" on="0"/>
        <pt x="255" y="951" on="0"/>
        <pt x="255" y="1028" on="1"/>
        <pt x="255" y="1086" on="1"/>
        <pt x="255" y="1184" on="0"/>
        <pt x="295" y="1329" on="0"/>
        <pt x="364" y="1430" on="0"/>
        <pt x="455" y="1494" on="0"/>
        <pt x="556" y="1531" on="0"/>
        <pt x="661" y="1544" on="0"/>
        <pt x="710" y="1544" on="1"/>
        <pt x="710" y="1347" on="1"/>
        <pt x="680" y="1347" on="0"/>
        <pt x="642" y="1328" on="0"/>
        <pt x="619" y="1257" on="0"/>
        <pt x="610" y="1120" on="0"/>
      </contour>
    </TTGlyph>
    <TTGlyph name="braceright" xMin="169" yMin="-216" xMax="724" yMax="1546">
      <contour>
        <pt x="268" y="1004" on="1"/>
        <pt x="268" y="1125" on="0"/>
        <pt x="258" y="1263" on="0"/>
        <pt x="235" y="1331" on="0"/>
        <pt x="197" y="1348" on="0"/>
        <pt x="169" y="1348" on="1"/>
        <pt x="169" y="1546" on="1"/>
        <pt x="217" y="1546" on="0"/>
        <pt x="322" y="1534" on="0"/>
        <pt x="423" y="1498" on="0"/>
        <pt x="514" y="1435" on="0"/>
        <pt x="583" y="1333" on="0"/>
        <pt x="624" y="1187" on="0"/>
        <pt x="624" y="1087" on="1"/>
        <pt x="624" y="1071" on="0"/>
        <pt x="623" y="1039" on="0"/>
        <pt x="623" y="1025" on="1"/>
        <pt x="623" y="949" on="0"/>
        <pt x="633" y="848" on="0"/>
        <pt x="657" y="787" on="0"/>
        <pt x="696" y="762" on="0"/>
        <pt x="724" y="762" on="1"/>
        <pt x="724" y="568" on="1"/>
        <pt x="696" y="568" on="0"/>
        <pt x="657" y="542" on="0"/>
        <pt x="633" y="479" on="0"/>
        <pt x="622" y="373" on="0"/>
        <pt x="622" y="293" on="1"/>
        <pt x="622" y="240" on="1"/>
        <pt x="622" y="142" on="0"/>
        <pt x="582" y="-1" on="0"/>
        <pt x="514" y="-103" on="0"/>
        <pt x="424" y="-167" on="0"/>
        <pt x="323" y="-203" on="0"/>
        <pt x="218" y="-216" on="0"/>
        <pt x="169" y="-216" on="1"/>
        <pt x="169" y="-19" on="1"/>
        <pt x="196" y="-19" on="0"/>
        <pt x="233" y="-3" on="0"/>
        <pt x="257" y="62" on="0"/>
        <pt x="267" y="193" on="0"/>
        <pt x="267" y="307" on="1"/>
        <pt x="267" y="449" on="0"/>
        <pt x="354" y="627" on="0"/>
        <pt x="451" y="665" on="1"/>
        <pt x="421" y="675" on="0"/>
        <pt x="357" y="714" on="0"/>
        <pt x="303" y="789" on="0"/>
        <pt x="268" y="911" on="0"/>
      </contour>
    </TTGlyph>
    <TTGlyph name="bracketleft" xMin="233" yMin="0" xMax="1016" yMax="1630">
      <contour>
        <pt x="1016" y="1630" on="1"/>
        <pt x="1016" y="1380" on="1"/>
        <pt x="590" y="1380" on="1"/>
        <pt x="590" y="251" on="1"/>
        <pt x="1016" y="251" on="1"/>
        <pt x="1016" y="0" on="1"/>
        <pt x="233" y="0" on="1"/>
        <pt x="233" y="1630" on="1"/>
      </contour>
    </TTGlyph>
    <TTGlyph name="bracketright" xMin="243" yMin="0" xMax="1026" yMax="1630">
      <contour>
        <pt x="1026" y="1630" on="1"/>
        <pt x="1026" y="0" on="1"/>
        <pt x="243" y="0" on="1"/>
        <pt x="243" y="251" on="1"/>
        <pt x="667" y="251" on="1"/>
        <pt x="667" y="1379" on="1"/>
        <pt x="243" y="1379" on="1"/>
        <pt x="243" y="1630" on="1"/>
      </contour>
    </TTGlyph>
    <TTGlyph name="brokenbar" xMin="230" yMin="-166" xMax="561" yMax="1731">
      <contour>
        <pt x="230" y="1731" on="1"/>
        <pt x="561" y="1731" on="1"/>
        <pt x="561" y="955" on="1"/>
        <pt x="230" y="955" on="1"/>
      </contour>
      <contour>
        <pt x="230" y="610" on="1"/>
        <pt x="561" y="610" on="1"/>
        <pt x="561" y="-166" on="1"/>
        <pt x="230" y="-166" on="1"/>
      </contour>
    </TTGlyph>
    <TTGlyph name="bullet" xMin="214" yMin="324" xMax="1033" yMax="1080">
      <contour>
        <pt x="627" y="324" on="1"/>
        <pt x="550" y="324" on="0"/>
        <pt x="402" y="378" on="0"/>
        <pt x="286" y="477" on="0"/>
        <pt x="214" y="616" on="0"/>
        <pt x="214" y="701" on="1"/>
        <pt x="214" y="777" on="0"/>
        <pt x="280" y="915" on="0"/>
        <pt x="392" y="1019" on="0"/>
        <pt x="538" y="1080" on="0"/>
        <pt x="618" y="1080" on="1"/>
        <pt x="695" y="1080" on="0"/>
        <pt x="844" y="1024" on="0"/>
        <pt x="961" y="924" on="0"/>
        <pt x="1033" y="785" on="0"/>
        <pt x="1033" y="701" on="1"/>
        <pt x="1033" y="619" on="0"/>
        <pt x="963" y="481" on="0"/>
        <pt x="849" y="380" on="0"/>
        <pt x="703" y="324" on="0"/>
      </contour>
    </TTGlyph>
    <TTGlyph name="c" xMin="72" yMin="-27" xMax="1076" yMax="1236">
      <contour>
        <pt x="690" y="-27" on="1"/>
        <pt x="564" y="-27" on="0"/>
        <pt x="374" y="31" on="0"/>
        <pt x="237" y="128" on="0"/>
        <pt x="147" y="255" on="0"/>
        <pt x="93" y="392" on="0"/>
        <pt x="72" y="530" on="0"/>
        <pt x="72" y="590" on="1"/>
        <pt x="72" y="728" on="0"/>
        <pt x="157" y="964" on="0"/>
        <pt x="317" y="1138" on="0"/>
        <pt x="547" y="1236" on="0"/>
        <pt x="693" y="1236" on="1"/>
        <pt x="773" y="1236" on="0"/>
        <pt x="896" y="1217" on="0"/>
        <pt x="989" y="1187" on="0"/>
        <pt x="1054" y="1151" on="0"/>
        <pt x="1076" y="1135" on="1"/>
        <pt x="1008" y="893" on="1"/>
        <pt x="986" y="908" on="0"/>
        <pt x="930" y="940" on="0"/>
        <pt x="861" y="967" on="0"/>
        <pt x="776" y="985" on="0"/>
        <pt x="726" y="985" on="1"/>
        <pt x="665" y="985" on="0"/>
        <pt x="564" y="943" on="0"/>
        <pt x="492" y="852" on="0"/>
        <pt x="453" y="709" on="0"/>
        <pt x="453" y="607" on="1"/>
        <pt x="453" y="416" on="0"/>
        <pt x="603" y="227" on="0"/>
        <pt x="760" y="227" on="1"/>
        <pt x="832" y="227" on="0"/>
        <pt x="962" y="280" on="0"/>
        <pt x="1007" y="315" on="1"/>
        <pt x="1075" y="74" on="1"/>
        <pt x="1051" y="56" on="0"/>
        <pt x="981" y="20" on="0"/>
        <pt x="887" y="-9" on="0"/>
        <pt x="766" y="-27" on="0"/>
      </contour>
    </TTGlyph>
    <TTGlyph name="caron" xMin="267" yMin="217" xMax="1072" yMax="869">
      <contour>
        <pt x="531" y="217" on="1"/>
        <pt x="267" y="861" on="1"/>
        <pt x="565" y="861" on="1"/>
        <pt x="671" y="463" on="1"/>
        <pt x="776" y="869" on="1"/>
        <pt x="1072" y="869" on="1"/>
        <pt x="808" y="217" on="1"/>
      </contour>
    </TTGlyph>
    <TTGlyph name="ccedilla" xMin="72" yMin="-696" xMax="1077" yMax="1236">
      <component glyphName="c" x="0" y="0" flags="0x1204"/>
      <component glyphName="cedilla" x="475" y="0" flags="0x1004"/>
    </TTGlyph>
    <TTGlyph name="cedilla" xMin="73" yMin="-696" xMax="602" yMax="19">
      <contour>
        <pt x="74" y="-495" on="1"/>
        <pt x="104" y="-508" on="0"/>
        <pt x="137" y="-518" on="1"/>
        <pt x="165" y="-526" on="0"/>
        <pt x="234" y="-540" on="0"/>
        <pt x="269" y="-540" on="1"/>
        <pt x="294" y="-540" on="0"/>
        <pt x="340" y="-532" on="0"/>
        <pt x="375" y="-508" on="0"/>
        <pt x="396" y="-467" on="0"/>
        <pt x="396" y="-434" on="1"/>
        <pt x="396" y="-356" on="0"/>
        <pt x="261" y="-287" on="0"/>
        <pt x="127" y="-287" on="1"/>
        <pt x="149" y="19" on="1"/>
        <pt x="273" y="19" on="1"/>
        <pt x="260" y="-167" on="1"/>
        <pt x="289" y="-167" on="0"/>
        <pt x="362" y="-178" on="0"/>
        <pt x="438" y="-204" on="0"/>
        <pt x="510" y="-244" on="0"/>
        <pt x="567" y="-304" on="0"/>
        <pt x="602" y="-383" on="0"/>
        <pt x="602" y="-434" on="1"/>
        <pt x="602" y="-494" on="0"/>
        <pt x="559" y="-591" on="0"/>
        <pt x="480" y="-659" on="0"/>
        <pt x="368" y="-696" on="0"/>
        <pt x="299" y="-696" on="1"/>
        <pt x="245" y="-696" on="0"/>
        <pt x="161" y="-678" on="0"/>
        <pt x="103" y="-656" on="0"/>
        <pt x="73" y="-638" on="0"/>
        <pt x="74" y="-638" on="1"/>
      </contour>
    </TTGlyph>
    <TTGlyph name="cent" xMin="74" yMin="-150" xMax="1077" yMax="1427">
      <contour>
        <pt x="454" y="606" on="1"/>
        <pt x="454" y="319" on="0"/>
        <pt x="641" y="256" on="1"/>
        <pt x="641" y="963" on="1"/>
        <pt x="575" y="949" on="0"/>
        <pt x="501" y="873" on="0"/>
        <pt x="464" y="773" on="0"/>
        <pt x="454" y="658" on="0"/>
      </contour>
      <contour>
        <pt x="641" y="-13" on="1"/>
        <pt x="524" y="-9" on="0"/>
        <pt x="317" y="75" on="0"/>
        <pt x="163" y="230" on="0"/>
        <pt x="74" y="457" on="0"/>
        <pt x="74" y="606" on="1"/>
        <pt x="74" y="754" on="0"/>
        <pt x="171" y="982" on="0"/>
        <pt x="331" y="1139" on="0"/>
        <pt x="534" y="1221" on="0"/>
        <pt x="641" y="1224" on="1"/>
        <pt x="641" y="1427" on="1"/>
        <pt x="815" y="1427" on="1"/>
        <pt x="815" y="1215" on="1"/>
        <pt x="855" y="1207" on="0"/>
        <pt x="922" y="1190" on="0"/>
        <pt x="983" y="1168" on="0"/>
        <pt x="1043" y="1141" on="0"/>
        <pt x="1077" y="1123" on="1"/>
        <pt x="1009" y="881" on="1"/>
        <pt x="1002" y="890" on="0"/>
        <pt x="964" y="912" on="0"/>
        <pt x="911" y="934" on="0"/>
        <pt x="848" y="955" on="0"/>
        <pt x="815" y="961" on="1"/>
        <pt x="815" y="244" on="1"/>
        <pt x="843" y="244" on="0"/>
        <pt x="910" y="271" on="0"/>
        <pt x="969" y="303" on="0"/>
        <pt x="988" y="316" on="1"/>
        <pt x="1007" y="330" on="1"/>
        <pt x="1077" y="91" on="1"/>
        <pt x="1077" y="91" on="0"/>
        <pt x="1052" y="76" on="1"/>
        <pt x="1028" y="61" on="0"/>
        <pt x="952" y="25" on="0"/>
        <pt x="859" y="-4" on="0"/>
        <pt x="815" y="-4" on="1"/>
        <pt x="815" y="-150" on="1"/>
        <pt x="641" y="-150" on="1"/>
      </contour>
    </TTGlyph>
    <TTGlyph name="circumflex" xMin="267" yMin="205" xMax="1072" yMax="857">
      <contour>
        <pt x="808" y="857" on="1"/>
        <pt x="1072" y="213" on="1"/>
        <pt x="774" y="213" on="1"/>
        <pt x="669" y="611" on="1"/>
        <pt x="562" y="205" on="1"/>
        <pt x="267" y="205" on="1"/>
        <pt x="531" y="857" on="1"/>
      </contour>
    </TTGlyph>
    <TTGlyph name="colon" xMin="199" yMin="0" xMax="645" yMax="1237">
      <contour>
        <pt x="199" y="461" on="1"/>
        <pt x="645" y="461" on="1"/>
        <pt x="645" y="0" on="1"/>
        <pt x="199" y="0" on="1"/>
      </contour>
      <contour>
        <pt x="199" y="1237" on="1"/>
        <pt x="645" y="1237" on="1"/>
        <pt x="645" y="775" on="1"/>
        <pt x="199" y="775" on="1"/>
      </contour>
    </TTGlyph>
    <TTGlyph name="comma" xMin="170" yMin="-322" xMax="617" yMax="440">
      <contour>
        <pt x="170" y="440" on="1"/>
        <pt x="617" y="440" on="1"/>
        <pt x="617" y="56" on="1"/>
        <pt x="617" y="-40" on="0"/>
        <pt x="548" y="-168" on="0"/>
        <pt x="439" y="-251" on="0"/>
        <pt x="305" y="-302" on="0"/>
        <pt x="239" y="-322" on="1"/>
        <pt x="171" y="-203" on="1"/>
        <pt x="221" y="-185" on="0"/>
        <pt x="293" y="-147" on="0"/>
        <pt x="338" y="-100" on="0"/>
        <pt x="359" y="-40" on="0"/>
        <pt x="359" y="0" on="1"/>
        <pt x="170" y="0" on="1"/>
      </contour>
    </TTGlyph>
    <TTGlyph name="copyright" xMin="136" yMin="-148" xMax="2046" yMax="1761">
      <contour>
        <pt x="1070" y="104" on="1"/>
        <pt x="1227" y="104" on="0"/>
        <pt x="1485" y="213" on="0"/>
        <pt x="1670" y="403" on="0"/>
        <pt x="1771" y="658" on="0"/>
        <pt x="1771" y="804" on="1"/>
        <pt x="1771" y="913" on="0"/>
        <pt x="1716" y="1103" on="0"/>
        <pt x="1620" y="1259" on="0"/>
        <pt x="1489" y="1380" on="0"/>
        <pt x="1338" y="1464" on="0"/>
        <pt x="1174" y="1507" on="0"/>
        <pt x="1092" y="1507" on="1"/>
        <pt x="1010" y="1507" on="0"/>
        <pt x="845" y="1464" on="0"/>
        <pt x="694" y="1381" on="0"/>
        <pt x="563" y="1259" on="0"/>
        <pt x="467" y="1103" on="0"/>
        <pt x="412" y="914" on="0"/>
        <pt x="412" y="804" on="1"/>
        <pt x="412" y="658" on="0"/>
        <pt x="499" y="403" on="0"/>
        <pt x="667" y="213" on="0"/>
        <pt x="912" y="104" on="0"/>
      </contour>
      <contour>
        <pt x="884" y="806" on="1"/>
        <pt x="884" y="717" on="0"/>
        <pt x="919" y="598" on="0"/>
        <pt x="980" y="526" on="0"/>
        <pt x="1066" y="496" on="0"/>
        <pt x="1117" y="496" on="1"/>
        <pt x="1144" y="496" on="0"/>
        <pt x="1202" y="504" on="0"/>
        <pt x="1273" y="526" on="0"/>
        <pt x="1363" y="565" on="0"/>
        <pt x="1423" y="595" on="1"/>
        <pt x="1423" y="360" on="1"/>
        <pt x="1376" y="336" on="0"/>
        <pt x="1295" y="302" on="0"/>
        <pt x="1223" y="281" on="0"/>
        <pt x="1160" y="272" on="0"/>
        <pt x="1130" y="272" on="1"/>
        <pt x="1033" y="272" on="0"/>
        <pt x="883" y="317" on="0"/>
        <pt x="773" y="396" on="0"/>
        <pt x="698" y="501" on="0"/>
        <pt x="653" y="622" on="0"/>
        <pt x="633" y="753" on="0"/>
        <pt x="633" y="817" on="1"/>
        <pt x="633" y="935" on="0"/>
        <pt x="702" y="1127" on="0"/>
        <pt x="828" y="1264" on="0"/>
        <pt x="1004" y="1338" on="0"/>
        <pt x="1111" y="1338" on="1"/>
        <pt x="1145" y="1338" on="0"/>
        <pt x="1230" y="1324" on="0"/>
        <pt x="1313" y="1301" on="0"/>
        <pt x="1388" y="1271" on="0"/>
        <pt x="1414" y="1255" on="1"/>
        <pt x="1414" y="1028" on="1"/>
        <pt x="1326" y="1073" on="0"/>
        <pt x="1172" y="1114" on="0"/>
        <pt x="1108" y="1114" on="1"/>
        <pt x="1038" y="1114" on="0"/>
        <pt x="951" y="1058" on="0"/>
        <pt x="902" y="969" on="0"/>
        <pt x="884" y="859" on="0"/>
      </contour>
      <contour>
        <pt x="1079" y="-148" on="1"/>
        <pt x="950" y="-148" on="0"/>
        <pt x="710" y="-85" on="0"/>
        <pt x="500" y="32" on="0"/>
        <pt x="328" y="201" on="0"/>
        <pt x="204" y="413" on="0"/>
        <pt x="136" y="666" on="0"/>
        <pt x="136" y="808" on="1"/>
        <pt x="136" y="951" on="0"/>
        <pt x="207" y="1204" on="0"/>
        <pt x="334" y="1416" on="0"/>
        <pt x="511" y="1583" on="0"/>
        <pt x="723" y="1699" on="0"/>
        <pt x="964" y="1761" on="0"/>
        <pt x="1092" y="1761" on="1"/>
        <pt x="1215" y="1761" on="0"/>
        <pt x="1452" y="1699" on="0"/>
        <pt x="1664" y="1583" on="0"/>
        <pt x="1843" y="1416" on="0"/>
        <pt x="1973" y="1204" on="0"/>
        <pt x="2046" y="951" on="0"/>
        <pt x="2046" y="808" on="1"/>
        <pt x="2046" y="666" on="0"/>
        <pt x="1974" y="413" on="0"/>
        <pt x="1845" y="201" on="0"/>
        <pt x="1666" y="32" on="0"/>
        <pt x="1451" y="-86" on="0"/>
        <pt x="1207" y="-148" on="0"/>
      </contour>
    </TTGlyph>
    <TTGlyph name="currency" xMin="148" yMin="419" xMax="1330" yMax="1602">
      <contour>
        <pt x="350" y="755" on="1"/>
        <pt x="277" y="865" on="0"/>
        <pt x="277" y="999" on="1"/>
        <pt x="277" y="1137" on="0"/>
        <pt x="358" y="1259" on="1"/>
        <pt x="148" y="1468" on="1"/>
        <pt x="282" y="1602" on="1"/>
        <pt x="492" y="1392" on="1"/>
        <pt x="611" y="1475" on="0"/>
        <pt x="755" y="1475" on="1"/>
        <pt x="887" y="1475" on="0"/>
        <pt x="997" y="1403" on="1"/>
        <pt x="1197" y="1602" on="1"/>
        <pt x="1330" y="1468" on="1"/>
        <pt x="1129" y="1266" on="1"/>
        <pt x="1195" y="1161" on="0"/>
        <pt x="1195" y="1035" on="1"/>
        <pt x="1195" y="892" on="0"/>
        <pt x="1113" y="771" on="1"/>
        <pt x="1330" y="554" on="1"/>
        <pt x="1197" y="419" on="1"/>
        <pt x="978" y="638" on="1"/>
        <pt x="858" y="557" on="0"/>
        <pt x="718" y="557" on="1"/>
        <pt x="593" y="557" on="0"/>
        <pt x="487" y="622" on="1"/>
        <pt x="282" y="419" on="1"/>
        <pt x="148" y="554" on="1"/>
      </contour>
      <contour>
        <pt x="747" y="1288" on="1"/>
        <pt x="691" y="1288" on="0"/>
        <pt x="588" y="1242" on="0"/>
        <pt x="509" y="1165" on="0"/>
        <pt x="462" y="1063" on="0"/>
        <pt x="462" y="1007" on="1"/>
        <pt x="462" y="951" on="0"/>
        <pt x="507" y="854" on="0"/>
        <pt x="583" y="782" on="0"/>
        <pt x="681" y="741" on="0"/>
        <pt x="735" y="741" on="1"/>
        <pt x="789" y="741" on="0"/>
        <pt x="888" y="789" on="0"/>
        <pt x="964" y="868" on="0"/>
        <pt x="1009" y="970" on="0"/>
        <pt x="1009" y="1024" on="1"/>
        <pt x="1009" y="1078" on="0"/>
        <pt x="965" y="1174" on="0"/>
        <pt x="892" y="1246" on="0"/>
        <pt x="798" y="1288" on="0"/>
      </contour>
    </TTGlyph>
    <TTGlyph name="d" xMin="72" yMin="-27" xMax="1225" yMax="1794">
      <contour>
        <pt x="451" y="606" on="1"/>
        <pt x="451" y="419" on="0"/>
        <pt x="547" y="227" on="0"/>
        <pt x="650" y="227" on="1"/>
        <pt x="723" y="227" on="0"/>
        <pt x="819" y="267" on="0"/>
        <pt x="847" y="308" on="1"/>
        <pt x="847" y="880" on="1"/>
        <pt x="787" y="934" on="0"/>
        <pt x="672" y="985" on="0"/>
        <pt x="616" y="985" on="1"/>
        <pt x="569" y="985" on="0"/>
        <pt x="505" y="939" on="0"/>
        <pt x="467" y="844" on="0"/>
        <pt x="451" y="702" on="0"/>
      </contour>
      <contour>
        <pt x="535" y="1236" on="1"/>
        <pt x="735" y="1236" on="0"/>
        <pt x="847" y="1082" on="1"/>
        <pt x="847" y="1743" on="1"/>
        <pt x="1225" y="1794" on="1"/>
        <pt x="1225" y="0" on="1"/>
        <pt x="959" y="0" on="1"/>
        <pt x="876" y="170" on="1"/>
        <pt x="863" y="126" on="0"/>
        <pt x="799" y="54" on="0"/>
        <pt x="710" y="2" on="0"/>
        <pt x="607" y="-27" on="0"/>
        <pt x="555" y="-27" on="1"/>
        <pt x="456" y="-27" on="0"/>
        <pt x="307" y="30" on="0"/>
        <pt x="200" y="128" on="0"/>
        <pt x="130" y="259" on="0"/>
        <pt x="89" y="409" on="0"/>
        <pt x="72" y="569" on="0"/>
        <pt x="72" y="646" on="1"/>
        <pt x="72" y="767" on="0"/>
        <pt x="135" y="982" on="0"/>
        <pt x="253" y="1142" on="0"/>
        <pt x="425" y="1236" on="0"/>
      </contour>
    </TTGlyph>
    <TTGlyph name="dagger" xMin="112" yMin="0" xMax="966" yMax="1468">
      <contour>
        <pt x="388" y="960" on="1"/>
        <pt x="112" y="960" on="1"/>
        <pt x="112" y="1161" on="1"/>
        <pt x="387" y="1161" on="1"/>
        <pt x="387" y="1468" on="1"/>
        <pt x="700" y="1468" on="1"/>
        <pt x="700" y="1161" on="1"/>
        <pt x="966" y="1161" on="1"/>
        <pt x="966" y="960" on="1"/>
        <pt x="698" y="960" on="1"/>
        <pt x="698" y="0" on="1"/>
        <pt x="388" y="0" on="1"/>
      </contour>
    </TTGlyph>
    <TTGlyph name="daggerdbl" xMin="112" yMin="0" xMax="967" yMax="1468">
      <contour>
        <pt x="388" y="307" on="1"/>
        <pt x="113" y="307" on="1"/>
        <pt x="113" y="508" on="1"/>
        <pt x="388" y="508" on="1"/>
        <pt x="388" y="960" on="1"/>
        <pt x="112" y="960" on="1"/>
        <pt x="112" y="1161" on="1"/>
        <pt x="388" y="1161" on="1"/>
        <pt x="388" y="1468" on="1"/>
        <pt x="700" y="1468" on="1"/>
        <pt x="700" y="1161" on="1"/>
        <pt x="966" y="1161" on="1"/>
        <pt x="966" y="960" on="1"/>
        <pt x="700" y="960" on="1"/>
        <pt x="700" y="508" on="1"/>
        <pt x="967" y="508" on="1"/>
        <pt x="967" y="307" on="1"/>
        <pt x="700" y="307" on="1"/>
        <pt x="700" y="0" on="1"/>
        <pt x="388" y="0" on="1"/>
      </contour>
    </TTGlyph>
    <TTGlyph name="degree" xMin="25" yMin="695" xMax="824" yMax="1435">
      <contour>
        <pt x="245" y="1065" on="1"/>
        <pt x="245" y="1027" on="0"/>
        <pt x="274" y="963" on="0"/>
        <pt x="323" y="916" on="0"/>
        <pt x="388" y="889" on="0"/>
        <pt x="424" y="889" on="1"/>
        <pt x="460" y="889" on="0"/>
        <pt x="526" y="916" on="0"/>
        <pt x="576" y="963" on="0"/>
        <pt x="605" y="1027" on="0"/>
        <pt x="605" y="1065" on="1"/>
        <pt x="605" y="1103" on="0"/>
        <pt x="575" y="1167" on="0"/>
        <pt x="525" y="1214" on="0"/>
        <pt x="460" y="1241" on="0"/>
        <pt x="424" y="1241" on="1"/>
        <pt x="387" y="1241" on="0"/>
        <pt x="322" y="1213" on="0"/>
        <pt x="273" y="1165" on="0"/>
        <pt x="245" y="1101" on="0"/>
      </contour>
      <contour>
        <pt x="426" y="1435" on="1"/>
        <pt x="505" y="1435" on="0"/>
        <pt x="650" y="1379" on="0"/>
        <pt x="759" y="1279" on="0"/>
        <pt x="824" y="1142" on="0"/>
        <pt x="824" y="1060" on="1"/>
        <pt x="824" y="977" on="0"/>
        <pt x="755" y="842" on="0"/>
        <pt x="640" y="747" on="0"/>
        <pt x="492" y="695" on="0"/>
        <pt x="414" y="695" on="1"/>
        <pt x="336" y="695" on="0"/>
        <pt x="194" y="754" on="0"/>
        <pt x="88" y="856" on="0"/>
        <pt x="25" y="993" on="0"/>
        <pt x="25" y="1071" on="1"/>
        <pt x="25" y="1151" on="0"/>
        <pt x="93" y="1285" on="0"/>
        <pt x="206" y="1381" on="0"/>
        <pt x="350" y="1435" on="0"/>
      </contour>
    </TTGlyph>
    <TTGlyph name="dieresis" xMin="99" yMin="205" xMax="1228" yMax="622">
      <contour>
        <pt x="99" y="414" on="1"/>
        <pt x="99" y="458" on="0"/>
        <pt x="131" y="534" on="0"/>
        <pt x="187" y="590" on="0"/>
        <pt x="263" y="622" on="0"/>
        <pt x="307" y="622" on="1"/>
        <pt x="350" y="622" on="0"/>
        <pt x="427" y="590" on="0"/>
        <pt x="484" y="534" on="0"/>
        <pt x="518" y="458" on="0"/>
        <pt x="518" y="414" on="1"/>
        <pt x="518" y="370" on="0"/>
        <pt x="484" y="294" on="0"/>
        <pt x="427" y="237" on="0"/>
        <pt x="350" y="205" on="0"/>
        <pt x="307" y="205" on="1"/>
        <pt x="262" y="205" on="0"/>
        <pt x="185" y="238" on="0"/>
        <pt x="130" y="294" on="0"/>
        <pt x="99" y="370" on="0"/>
      </contour>
      <contour>
        <pt x="809" y="414" on="1"/>
        <pt x="809" y="458" on="0"/>
        <pt x="841" y="534" on="0"/>
        <pt x="898" y="590" on="0"/>
        <pt x="973" y="622" on="0"/>
        <pt x="1017" y="622" on="1"/>
        <pt x="1060" y="622" on="0"/>
        <pt x="1137" y="590" on="0"/>
        <pt x="1194" y="534" on="0"/>
        <pt x="1228" y="458" on="0"/>
        <pt x="1228" y="414" on="1"/>
        <pt x="1228" y="370" on="0"/>
        <pt x="1194" y="294" on="0"/>
        <pt x="1137" y="237" on="0"/>
        <pt x="1060" y="205" on="0"/>
        <pt x="1017" y="205" on="1"/>
        <pt x="972" y="205" on="0"/>
        <pt x="895" y="238" on="0"/>
        <pt x="840" y="294" on="0"/>
        <pt x="809" y="370" on="0"/>
      </contour>
    </TTGlyph>
    <TTGlyph name="divide" xMin="84" yMin="108" xMax="1153" yMax="1421">
      <contour>
        <pt x="418" y="1212" on="1"/>
        <pt x="418" y="1256" on="0"/>
        <pt x="448" y="1333" on="0"/>
        <pt x="502" y="1389" on="0"/>
        <pt x="577" y="1421" on="0"/>
        <pt x="621" y="1421" on="1"/>
        <pt x="665" y="1421" on="0"/>
        <pt x="740" y="1389" on="0"/>
        <pt x="794" y="1332" on="0"/>
        <pt x="825" y="1256" on="0"/>
        <pt x="825" y="1212" on="1"/>
        <pt x="825" y="1168" on="0"/>
        <pt x="795" y="1092" on="0"/>
        <pt x="741" y="1036" on="0"/>
        <pt x="666" y="1004" on="0"/>
        <pt x="621" y="1004" on="1"/>
        <pt x="576" y="1004" on="0"/>
        <pt x="501" y="1037" on="0"/>
        <pt x="448" y="1093" on="0"/>
        <pt x="418" y="1169" on="0"/>
      </contour>
      <contour>
        <pt x="421" y="316" on="1"/>
        <pt x="421" y="360" on="0"/>
        <pt x="452" y="437" on="0"/>
        <pt x="506" y="493" on="0"/>
        <pt x="581" y="525" on="0"/>
        <pt x="625" y="525" on="1"/>
        <pt x="669" y="525" on="0"/>
        <pt x="743" y="492" on="0"/>
        <pt x="797" y="436" on="0"/>
        <pt x="828" y="359" on="0"/>
        <pt x="828" y="316" on="1"/>
        <pt x="828" y="272" on="0"/>
        <pt x="798" y="197" on="0"/>
        <pt x="744" y="140" on="0"/>
        <pt x="670" y="108" on="0"/>
        <pt x="625" y="108" on="1"/>
        <pt x="580" y="108" on="0"/>
        <pt x="505" y="141" on="0"/>
        <pt x="451" y="198" on="0"/>
        <pt x="421" y="273" on="0"/>
      </contour>
      <contour>
        <pt x="84" y="621" on="1"/>
        <pt x="84" y="905" on="1"/>
        <pt x="1153" y="905" on="1"/>
        <pt x="1153" y="621" on="1"/>
      </contour>
    </TTGlyph>
    <TTGlyph name="dollar" xMin="77" yMin="-148" xMax="1311" yMax="1800">
      <contour>
        <pt x="771" y="271" on="1"/>
        <pt x="849" y="291" on="0"/>
        <pt x="944" y="384" on="0"/>
        <pt x="944" y="462" on="1"/>
        <pt x="944" y="528" on="0"/>
        <pt x="879" y="621" on="0"/>
        <pt x="800" y="655" on="1"/>
        <pt x="792" y="659" on="0"/>
        <pt x="778" y="664" on="0"/>
        <pt x="771" y="668" on="1"/>
      </contour>
      <contour>
        <pt x="657" y="1386" on="1"/>
        <pt x="612" y="1385" on="0"/>
        <pt x="532" y="1373" on="0"/>
        <pt x="472" y="1341" on="0"/>
        <pt x="437" y="1282" on="0"/>
        <pt x="437" y="1233" on="1"/>
        <pt x="437" y="1218" on="0"/>
        <pt x="445" y="1187" on="0"/>
        <pt x="473" y="1154" on="0"/>
        <pt x="526" y="1120" on="0"/>
        <pt x="572" y="1103" on="1"/>
        <pt x="595" y="1095" on="0"/>
        <pt x="637" y="1080" on="0"/>
        <pt x="657" y="1072" on="1"/>
      </contour>
      <contour>
        <pt x="657" y="1800" on="1"/>
        <pt x="771" y="1800" on="1"/>
        <pt x="771" y="1681" on="1"/>
        <pt x="923" y="1667" on="0"/>
        <pt x="1156" y="1604" on="0"/>
        <pt x="1238" y="1561" on="1"/>
        <pt x="1146" y="1284" on="1"/>
        <pt x="1077" y="1311" on="0"/>
        <pt x="1009" y="1332" on="1"/>
        <pt x="980" y="1341" on="0"/>
        <pt x="917" y="1359" on="0"/>
        <pt x="855" y="1372" on="0"/>
        <pt x="796" y="1381" on="0"/>
        <pt x="771" y="1381" on="1"/>
        <pt x="771" y="1029" on="1"/>
        <pt x="813" y="1014" on="0"/>
        <pt x="894" y="983" on="0"/>
        <pt x="936" y="968" on="1"/>
        <pt x="1012" y="940" on="0"/>
        <pt x="1149" y="855" on="0"/>
        <pt x="1251" y="742" on="0"/>
        <pt x="1311" y="600" on="0"/>
        <pt x="1311" y="516" on="1"/>
        <pt x="1311" y="387" on="0"/>
        <pt x="1240" y="189" on="0"/>
        <pt x="1102" y="51" on="0"/>
        <pt x="901" y="-27" on="0"/>
        <pt x="771" y="-37" on="1"/>
        <pt x="771" y="-148" on="1"/>
        <pt x="657" y="-148" on="1"/>
        <pt x="657" y="-39" on="1"/>
        <pt x="612" y="-39" on="0"/>
        <pt x="520" y="-27" on="0"/>
        <pt x="429" y="-6" on="0"/>
        <pt x="343" y="19" on="0"/>
        <pt x="305" y="33" on="1"/>
        <pt x="215" y="65" on="0"/>
        <pt x="131" y="105" on="1"/>
        <pt x="200" y="391" on="1"/>
        <pt x="275" y="354" on="0"/>
        <pt x="354" y="325" on="1"/>
        <pt x="387" y="313" on="0"/>
        <pt x="463" y="289" on="0"/>
        <pt x="541" y="270" on="0"/>
        <pt x="620" y="259" on="0"/>
        <pt x="657" y="259" on="1"/>
        <pt x="657" y="715" on="1"/>
        <pt x="583" y="747" on="0"/>
        <pt x="435" y="810" on="0"/>
        <pt x="359" y="841" on="1"/>
        <pt x="219" y="898" on="0"/>
        <pt x="77" y="1089" on="0"/>
        <pt x="77" y="1230" on="1"/>
        <pt x="77" y="1361" on="0"/>
        <pt x="171" y="1537" on="0"/>
        <pt x="331" y="1643" on="0"/>
        <pt x="541" y="1688" on="0"/>
        <pt x="657" y="1688" on="1"/>
      </contour>
    </TTGlyph>
    <TTGlyph name="dotlessi" xMin="159" yMin="0" xMax="536" yMax="1198">
      <contour>
        <pt x="159" y="0" on="1"/>
        <pt x="159" y="1198" on="1"/>
        <pt x="536" y="1198" on="1"/>
        <pt x="536" y="0" on="1"/>
      </contour>
    </TTGlyph>
    <TTGlyph name="dotlessigrave" xMin="-128" yMin="0" xMax="536" yMax="2100">
      <component glyphName="dotlessi" x="0" y="0" flags="0x1204"/>
      <component glyphName="grave" x="-303" y="1169" flags="0x1004"/>
    </TTGlyph>
    <TTGlyph name="e" xMin="72" yMin="-27" xMax="1172" yMax="1236">
      <contour>
        <pt x="1111" y="69" on="1"/>
        <pt x="1012" y="20" on="0"/>
        <pt x="816" y="-27" on="0"/>
        <pt x="707" y="-27" on="1"/>
        <pt x="564" y="-27" on="0"/>
        <pt x="330" y="51" on="0"/>
        <pt x="164" y="201" on="0"/>
        <pt x="72" y="420" on="0"/>
        <pt x="72" y="560" on="1"/>
        <pt x="72" y="723" on="0"/>
        <pt x="151" y="976" on="0"/>
        <pt x="304" y="1147" on="0"/>
        <pt x="528" y="1236" on="0"/>
        <pt x="674" y="1236" on="1"/>
        <pt x="795" y="1236" on="0"/>
        <pt x="980" y="1154" on="0"/>
        <pt x="1106" y="1008" on="0"/>
        <pt x="1171" y="806" on="0"/>
        <pt x="1171" y="686" on="1"/>
        <pt x="1171" y="643" on="0"/>
        <pt x="1171" y="556" on="0"/>
        <pt x="1172" y="512" on="1"/>
        <pt x="461" y="512" on="1"/>
        <pt x="463" y="449" on="0"/>
        <pt x="502" y="344" on="0"/>
        <pt x="573" y="269" on="0"/>
        <pt x="674" y="227" on="0"/>
        <pt x="737" y="227" on="1"/>
        <pt x="827" y="227" on="0"/>
        <pt x="976" y="273" on="0"/>
        <pt x="1042" y="321" on="1"/>
      </contour>
      <contour>
        <pt x="866" y="694" on="1"/>
        <pt x="866" y="843" on="0"/>
        <pt x="769" y="981" on="0"/>
        <pt x="665" y="985" on="1"/>
        <pt x="611" y="981" on="0"/>
        <pt x="533" y="933" on="0"/>
        <pt x="483" y="856" on="0"/>
        <pt x="460" y="754" on="0"/>
        <pt x="460" y="697" on="1"/>
        <pt x="866" y="697" on="1"/>
      </contour>
    </TTGlyph>
    <TTGlyph name="eacute" xMin="72" yMin="-27" xMax="1172" yMax="2122">
      <component glyphName="e" x="0" y="0" flags="0x1204"/>
      <component glyphName="acute" x="108" y="1193" flags="0x1004"/>
    </TTGlyph>
    <TTGlyph name="ecircumflex" xMin="72" yMin="-27" xMax="1172" yMax="2050">
      <component glyphName="e" x="0" y="0" flags="0x1204"/>
      <component glyphName="circumflex" x="1" y="1193" flags="0x1004"/>
    </TTGlyph>
    <TTGlyph name="edieresis" xMin="72" yMin="-27" xMax="1232" yMax="1824">
      <component glyphName="e" x="0" y="0" flags="0x1204"/>
      <component glyphName="dieresis" x="4" y="1202" flags="0x1004"/>
    </TTGlyph>
    <TTGlyph name="egrave" xMin="72" yMin="-27" xMax="1172" yMax="2124">
      <component glyphName="e" x="0" y="0" flags="0x1204"/>
      <component glyphName="grave" x="234" y="1193" flags="0x1004"/>
    </TTGlyph>
    <TTGlyph name="eight" xMin="141" yMin="-129" xMax="1212" yMax="1366">
      <contour>
        <pt x="845" y="949" on="1"/>
        <pt x="845" y="1018" on="0"/>
        <pt x="765" y="1091" on="0"/>
        <pt x="677" y="1091" on="1"/>
        <pt x="588" y="1091" on="0"/>
        <pt x="509" y="1018" on="0"/>
        <pt x="509" y="948" on="1"/>
        <pt x="509" y="860" on="0"/>
        <pt x="588" y="786" on="0"/>
        <pt x="677" y="786" on="1"/>
        <pt x="765" y="786" on="0"/>
        <pt x="845" y="860" on="0"/>
      </contour>
      <contour>
        <pt x="864" y="311" on="1"/>
        <pt x="864" y="407" on="0"/>
        <pt x="770" y="520" on="0"/>
        <pt x="677" y="520" on="1"/>
        <pt x="583" y="520" on="0"/>
        <pt x="489" y="408" on="0"/>
        <pt x="489" y="311" on="1"/>
        <pt x="489" y="224" on="0"/>
        <pt x="584" y="156" on="0"/>
        <pt x="677" y="156" on="1"/>
        <pt x="771" y="156" on="0"/>
        <pt x="864" y="224" on="0"/>
      </contour>
      <contour>
        <pt x="1181" y="964" on="1"/>
        <pt x="1181" y="901" on="0"/>
        <pt x="1141" y="789" on="0"/>
        <pt x="1069" y="701" on="0"/>
        <pt x="969" y="640" on="0"/>
        <pt x="909" y="630" on="1"/>
        <pt x="966" y="623" on="0"/>
        <pt x="1074" y="566" on="0"/>
        <pt x="1160" y="476" on="0"/>
        <pt x="1212" y="357" on="0"/>
        <pt x="1212" y="288" on="1"/>
        <pt x="1212" y="176" on="0"/>
        <pt x="1121" y="18" on="0"/>
        <pt x="971" y="-83" on="0"/>
        <pt x="779" y="-129" on="0"/>
        <pt x="677" y="-129" on="1"/>
        <pt x="575" y="-129" on="0"/>
        <pt x="382" y="-82" on="0"/>
        <pt x="232" y="18" on="0"/>
        <pt x="141" y="177" on="0"/>
        <pt x="141" y="290" on="1"/>
        <pt x="141" y="359" on="0"/>
        <pt x="194" y="477" on="0"/>
        <pt x="279" y="566" on="0"/>
        <pt x="388" y="622" on="0"/>
        <pt x="444" y="629" on="1"/>
        <pt x="385" y="640" on="0"/>
        <pt x="285" y="700" on="0"/>
        <pt x="213" y="789" on="0"/>
        <pt x="172" y="901" on="0"/>
        <pt x="172" y="964" on="1"/>
        <pt x="172" y="1063" on="0"/>
        <pt x="251" y="1213" on="0"/>
        <pt x="388" y="1314" on="0"/>
        <pt x="572" y="1366" on="0"/>
        <pt x="677" y="1366" on="1"/>
        <pt x="783" y="1366" on="0"/>
        <pt x="967" y="1314" on="0"/>
        <pt x="1103" y="1212" on="0"/>
        <pt x="1181" y="1062" on="0"/>
      </contour>
    </TTGlyph>
    <TTGlyph name="ellipsis" xMin="97" yMin="-1" xMax="1658" yMax="412">
      <contour>
        <pt x="1243" y="191" on="1"/>
        <pt x="1242" y="196" on="0"/>
        <pt x="1242" y="203" on="0"/>
        <pt x="1242" y="208" on="1"/>
        <pt x="1242" y="256" on="0"/>
        <pt x="1275" y="332" on="0"/>
        <pt x="1333" y="384" on="0"/>
        <pt x="1411" y="412" on="0"/>
        <pt x="1455" y="412" on="1"/>
        <pt x="1502" y="412" on="0"/>
        <pt x="1577" y="379" on="0"/>
        <pt x="1630" y="322" on="0"/>
        <pt x="1658" y="246" on="0"/>
        <pt x="1658" y="203" on="1"/>
        <pt x="1658" y="155" on="0"/>
        <pt x="1623" y="79" on="0"/>
        <pt x="1564" y="26" on="0"/>
        <pt x="1486" y="-1" on="0"/>
        <pt x="1442" y="-1" on="1"/>
        <pt x="1398" y="-1" on="0"/>
        <pt x="1325" y="29" on="0"/>
        <pt x="1272" y="81" on="0"/>
        <pt x="1243" y="151" on="0"/>
      </contour>
      <contour>
        <pt x="659" y="191" on="1"/>
        <pt x="659" y="195" on="0"/>
        <pt x="658" y="202" on="0"/>
        <pt x="658" y="206" on="1"/>
        <pt x="658" y="254" on="0"/>
        <pt x="692" y="331" on="0"/>
        <pt x="750" y="384" on="0"/>
        <pt x="827" y="412" on="0"/>
        <pt x="871" y="412" on="1"/>
        <pt x="918" y="412" on="0"/>
        <pt x="993" y="379" on="0"/>
        <pt x="1046" y="322" on="0"/>
        <pt x="1074" y="246" on="0"/>
        <pt x="1074" y="203" on="1"/>
        <pt x="1074" y="155" on="0"/>
        <pt x="1040" y="79" on="0"/>
        <pt x="981" y="26" on="0"/>
        <pt x="902" y="-1" on="0"/>
        <pt x="858" y="-1" on="1"/>
        <pt x="814" y="-1" on="0"/>
        <pt x="741" y="29" on="0"/>
        <pt x="689" y="81" on="0"/>
        <pt x="659" y="151" on="0"/>
      </contour>
      <contour>
        <pt x="98" y="191" on="1"/>
        <pt x="97" y="196" on="0"/>
        <pt x="97" y="204" on="0"/>
        <pt x="97" y="208" on="1"/>
        <pt x="97" y="256" on="0"/>
        <pt x="130" y="332" on="0"/>
        <pt x="187" y="384" on="0"/>
        <pt x="265" y="412" on="0"/>
        <pt x="309" y="412" on="1"/>
        <pt x="356" y="412" on="0"/>
        <pt x="431" y="379" on="0"/>
        <pt x="484" y="323" on="0"/>
        <pt x="513" y="248" on="0"/>
        <pt x="513" y="205" on="1"/>
        <pt x="513" y="156" on="0"/>
        <pt x="478" y="80" on="0"/>
        <pt x="419" y="27" on="0"/>
        <pt x="341" y="-1" on="0"/>
        <pt x="297" y="-1" on="1"/>
        <pt x="253" y="-1" on="0"/>
        <pt x="180" y="29" on="0"/>
        <pt x="127" y="81" on="0"/>
        <pt x="98" y="151" on="0"/>
      </contour>
    </TTGlyph>
    <TTGlyph name="emdash" xMin="164" yMin="595" xMax="2021" yMax="877">
      <contour>
        <pt x="164" y="877" on="1"/>
        <pt x="2021" y="877" on="1"/>
        <pt x="2021" y="595" on="1"/>
        <pt x="164" y="595" on="1"/>
      </contour>
    </TTGlyph>
    <TTGlyph name="endash" xMin="141" yMin="595" xMax="885" yMax="877">
      <contour>
        <pt x="141" y="877" on="1"/>
        <pt x="885" y="877" on="1"/>
        <pt x="885" y="595" on="1"/>
        <pt x="141" y="595" on="1"/>
      </contour>
    </TTGlyph>
    <TTGlyph name="equal" xMin="148" yMin="277" xMax="1105" yMax="929">
      <contour>
        <pt x="148" y="277" on="1"/>
        <pt x="148" y="528" on="1"/>
        <pt x="1105" y="528" on="1"/>
        <pt x="1105" y="277" on="1"/>
      </contour>
      <contour>
        <pt x="148" y="678" on="1"/>
        <pt x="148" y="929" on="1"/>
        <pt x="1105" y="929" on="1"/>
        <pt x="1105" y="678" on="1"/>
      </contour>
    </TTGlyph>
    <TTGlyph name="eth" xMin="72" yMin="-16" xMax="1224" yMax="1811">
      <contour>
        <pt x="1224" y="624" on="1"/>
        <pt x="1224" y="454" on="0"/>
        <pt x="1146" y="212" on="0"/>
        <pt x="996" y="57" on="0"/>
        <pt x="775" y="-16" on="0"/>
        <pt x="632" y="-16" on="1"/>
        <pt x="489" y="-16" on="0"/>
        <pt x="279" y="85" on="0"/>
        <pt x="140" y="257" on="0"/>
        <pt x="72" y="488" on="0"/>
        <pt x="72" y="619" on="1"/>
        <pt x="72" y="753" on="0"/>
        <pt x="136" y="976" on="0"/>
        <pt x="256" y="1136" on="0"/>
        <pt x="427" y="1225" on="0"/>
        <pt x="533" y="1225" on="1"/>
        <pt x="639" y="1225" on="0"/>
        <pt x="793" y="1156" on="0"/>
        <pt x="847" y="1082" on="1"/>
        <pt x="842" y="1108" on="0"/>
        <pt x="814" y="1177" on="0"/>
        <pt x="768" y="1255" on="0"/>
        <pt x="706" y="1338" on="0"/>
        <pt x="669" y="1378" on="1"/>
        <pt x="428" y="1300" on="1"/>
        <pt x="384" y="1460" on="1"/>
        <pt x="536" y="1510" on="1"/>
        <pt x="496" y="1545" on="0"/>
        <pt x="421" y="1599" on="0"/>
        <pt x="383" y="1620" on="1"/>
        <pt x="545" y="1811" on="1"/>
        <pt x="586" y="1785" on="0"/>
        <pt x="651" y="1745" on="0"/>
        <pt x="714" y="1700" on="0"/>
        <pt x="783" y="1644" on="0"/>
        <pt x="828" y="1604" on="1"/>
        <pt x="1133" y="1703" on="1"/>
        <pt x="1176" y="1543" on="1"/>
        <pt x="958" y="1471" on="1"/>
        <pt x="1015" y="1397" on="0"/>
        <pt x="1112" y="1227" on="0"/>
        <pt x="1183" y="1022" on="0"/>
        <pt x="1224" y="774" on="0"/>
      </contour>
      <contour>
        <pt x="451" y="606" on="1"/>
        <pt x="451" y="538" on="0"/>
        <pt x="469" y="405" on="0"/>
        <pt x="514" y="301" on="0"/>
        <pt x="591" y="237" on="0"/>
        <pt x="650" y="237" on="1"/>
        <pt x="705" y="237" on="0"/>
        <pt x="781" y="295" on="0"/>
        <pt x="827" y="389" on="0"/>
        <pt x="847" y="507" on="0"/>
        <pt x="847" y="566" on="1"/>
        <pt x="847" y="651" on="0"/>
        <pt x="846" y="819" on="0"/>
        <pt x="846" y="904" on="1"/>
        <pt x="790" y="936" on="0"/>
        <pt x="681" y="974" on="0"/>
        <pt x="612" y="974" on="1"/>
        <pt x="571" y="974" on="0"/>
        <pt x="515" y="941" on="0"/>
        <pt x="479" y="885" on="0"/>
        <pt x="461" y="811" on="0"/>
        <pt x="452" y="729" on="0"/>
        <pt x="451" y="644" on="0"/>
      </contour>
    </TTGlyph>
    <TTGlyph name="exclam" xMin="133" yMin="-13" xMax="603" yMax="1630">
      <contour>
        <pt x="240" y="48" on="1"/>
        <pt x="180" y="105" on="0"/>
        <pt x="180" y="194" on="1"/>
        <pt x="180" y="235" on="0"/>
        <pt x="210" y="311" on="0"/>
        <pt x="264" y="370" on="0"/>
        <pt x="337" y="405" on="0"/>
        <pt x="380" y="405" on="1"/>
        <pt x="424" y="405" on="0"/>
        <pt x="500" y="371" on="0"/>
        <pt x="555" y="313" on="0"/>
        <pt x="587" y="236" on="0"/>
        <pt x="587" y="194" on="1"/>
        <pt x="587" y="150" on="0"/>
        <pt x="555" y="75" on="0"/>
        <pt x="499" y="19" on="0"/>
        <pt x="423" y="-13" on="0"/>
        <pt x="380" y="-13" on="1"/>
        <pt x="292" y="-13" on="0"/>
      </contour>
      <contour>
        <pt x="481" y="518" on="1"/>
        <pt x="259" y="518" on="1"/>
        <pt x="133" y="1630" on="1"/>
        <pt x="603" y="1630" on="1"/>
      </contour>
    </TTGlyph>
    <TTGlyph name="exclamdown" xMin="171" yMin="-1" xMax="642" yMax="1588">
      <contour>
        <pt x="642" y="-1" on="1"/>
        <pt x="171" y="-1" on="1"/>
        <pt x="298" y="1089" on="1"/>
        <pt x="520" y="1089" on="1"/>
      </contour>
      <contour>
        <pt x="211" y="1380" on="1"/>
        <pt x="211" y="1420" on="0"/>
        <pt x="242" y="1496" on="0"/>
        <pt x="296" y="1553" on="0"/>
        <pt x="370" y="1588" on="0"/>
        <pt x="412" y="1588" on="1"/>
        <pt x="454" y="1588" on="0"/>
        <pt x="530" y="1555" on="0"/>
        <pt x="586" y="1499" on="0"/>
        <pt x="619" y="1423" on="0"/>
        <pt x="619" y="1380" on="1"/>
        <pt x="619" y="1337" on="0"/>
        <pt x="587" y="1261" on="0"/>
        <pt x="532" y="1203" on="0"/>
        <pt x="456" y="1169" on="0"/>
        <pt x="412" y="1169" on="1"/>
        <pt x="368" y="1169" on="0"/>
        <pt x="295" y="1204" on="0"/>
        <pt x="241" y="1262" on="0"/>
        <pt x="211" y="1339" on="0"/>
      </contour>
    </TTGlyph>
    <TTGlyph name="f" xMin="12" yMin="0" xMax="877" yMax="1755">
      <contour>
        <pt x="727" y="1475" on="1"/>
        <pt x="694" y="1475" on="0"/>
        <pt x="642" y="1450" on="0"/>
        <pt x="606" y="1388" on="0"/>
        <pt x="587" y="1281" on="0"/>
        <pt x="587" y="1199" on="1"/>
        <pt x="869" y="1199" on="1"/>
        <pt x="869" y="1044" on="1"/>
        <pt x="586" y="1044" on="1"/>
        <pt x="586" y="0" on="1"/>
        <pt x="208" y="0" on="1"/>
        <pt x="208" y="1044" on="1"/>
        <pt x="12" y="1044" on="1"/>
        <pt x="12" y="1199" on="1"/>
        <pt x="208" y="1199" on="1"/>
        <pt x="208" y="1332" on="0"/>
        <pt x="259" y="1540" on="0"/>
        <pt x="364" y="1681" on="0"/>
        <pt x="527" y="1755" on="0"/>
        <pt x="638" y="1755" on="1"/>
        <pt x="723" y="1755" on="0"/>
        <pt x="835" y="1737" on="0"/>
        <pt x="871" y="1730" on="1"/>
        <pt x="877" y="1453" on="1"/>
        <pt x="841" y="1459" on="0"/>
        <pt x="763" y="1475" on="0"/>
      </contour>
    </TTGlyph>
    <TTGlyph name="f_j" xMin="12" yMin="-357" xMax="1431" yMax="1880">
      <contour>
        <pt x="1025" y="1671" on="1"/>
        <pt x="1025" y="1716" on="0"/>
        <pt x="1056" y="1793" on="0"/>
        <pt x="1110" y="1848" on="0"/>
        <pt x="1184" y="1880" on="0"/>
        <pt x="1228" y="1880" on="1"/>
        <pt x="1273" y="1880" on="0"/>
        <pt x="1347" y="1848" on="0"/>
        <pt x="1401" y="1791" on="0"/>
        <pt x="1431" y="1715" on="0"/>
        <pt x="1431" y="1671" on="1"/>
        <pt x="1431" y="1627" on="0"/>
        <pt x="1401" y="1551" on="0"/>
        <pt x="1348" y="1494" on="0"/>
        <pt x="1273" y="1462" on="0"/>
        <pt x="1228" y="1462" on="1"/>
        <pt x="1183" y="1462" on="0"/>
        <pt x="1108" y="1495" on="0"/>
        <pt x="1055" y="1552" on="0"/>
        <pt x="1025" y="1628" on="0"/>
      </contour>
      <contour>
        <pt x="823" y="-102" on="1"/>
        <pt x="872" y="-74" on="0"/>
        <pt x="953" y="-14" on="0"/>
        <pt x="1009" y="63" on="0"/>
        <pt x="1040" y="165" on="0"/>
        <pt x="1040" y="235" on="1"/>
        <pt x="1040" y="1044" on="1"/>
        <pt x="581" y="1044" on="1"/>
        <pt x="581" y="0" on="1"/>
        <pt x="203" y="0" on="1"/>
        <pt x="203" y="1044" on="1"/>
        <pt x="12" y="1044" on="1"/>
        <pt x="12" y="1199" on="1"/>
        <pt x="203" y="1199" on="1"/>
        <pt x="203" y="1472" on="0"/>
        <pt x="414" y="1755" on="0"/>
        <pt x="633" y="1755" on="1"/>
        <pt x="751" y="1755" on="0"/>
        <pt x="866" y="1730" on="1"/>
        <pt x="872" y="1453" on="1"/>
        <pt x="841" y="1466" on="0"/>
        <pt x="765" y="1475" on="0"/>
        <pt x="722" y="1475" on="1"/>
        <pt x="688" y="1475" on="0"/>
        <pt x="636" y="1449" on="0"/>
        <pt x="600" y="1385" on="0"/>
        <pt x="582" y="1279" on="0"/>
        <pt x="582" y="1199" on="1"/>
        <pt x="1420" y="1199" on="1"/>
        <pt x="1420" y="214" on="1"/>
        <pt x="1420" y="101" on="0"/>
        <pt x="1343" y="-89" on="0"/>
        <pt x="1212" y="-236" on="0"/>
        <pt x="1039" y="-335" on="0"/>
        <pt x="943" y="-357" on="1"/>
      </contour>
    </TTGlyph>
</ttFont>
